<mxfile host="app.diagrams.net" modified="2022-07-17T03:45:56.448Z" agent="5.0 (Windows NT 10.0; Win64; x64) AppleWebKit/537.36 (KHTML, like Gecko) Chrome/103.0.0.0 Safari/537.36" etag="UTN4B70ZZJ3nDA_gRfoe" version="20.1.1" type="github">
  <diagram id="07fea595-8f29-1299-0266-81d95cde20df" name="Page-1">
    <mxGraphModel dx="1185" dy="1456" grid="1" gridSize="10" guides="1" tooltips="1" connect="1" arrows="1" fold="1" page="1" pageScale="1" pageWidth="1169" pageHeight="827" background="#ffffff" math="0" shadow="0">
      <root>
        <mxCell id="0" />
        <mxCell id="1" parent="0" />
        <mxCell id="qs4FXXVYRaF119wpGoub-245" value="" style="shape=table;html=1;whiteSpace=wrap;startSize=0;container=1;collapsible=0;childLayout=tableLayout;fillColor=#151715;strokeColor=#82b366;strokeWidth=4;verticalAlign=top;spacingTop=0;" vertex="1" parent="1">
          <mxGeometry x="250" width="670" height="686" as="geometry" />
        </mxCell>
        <mxCell id="qs4FXXVYRaF119wpGoub-246" value="" style="shape=tableRow;horizontal=0;startSize=0;swimlaneHead=0;swimlaneBody=0;top=0;left=0;bottom=0;right=0;collapsible=0;dropTarget=0;fillColor=none;points=[[0,0.5],[1,0.5]];portConstraint=eastwest;" vertex="1" parent="qs4FXXVYRaF119wpGoub-245">
          <mxGeometry width="670" height="110" as="geometry" />
        </mxCell>
        <mxCell id="qs4FXXVYRaF119wpGoub-247" value="&lt;span style=&quot;background-color: rgb(21, 23, 21);&quot;&gt;&lt;font color=&quot;#ffffff&quot;&gt;阿萨&lt;/font&gt;&lt;/span&gt;" style="shape=partialRectangle;html=1;whiteSpace=wrap;connectable=0;fillColor=none;top=0;left=0;bottom=0;right=0;overflow=hidden;fontColor=default;" vertex="1" parent="qs4FXXVYRaF119wpGoub-246">
          <mxGeometry width="149" height="110" as="geometry">
            <mxRectangle width="149" height="110" as="alternateBounds" />
          </mxGeometry>
        </mxCell>
        <mxCell id="qs4FXXVYRaF119wpGoub-248" value="" style="shape=partialRectangle;html=1;whiteSpace=wrap;connectable=0;fillColor=none;top=0;left=0;bottom=0;right=0;overflow=hidden;fontSize=22;strokeWidth=1;sketch=0;" vertex="1" parent="qs4FXXVYRaF119wpGoub-246">
          <mxGeometry x="149" width="340" height="110" as="geometry">
            <mxRectangle width="340" height="110" as="alternateBounds" />
          </mxGeometry>
        </mxCell>
        <mxCell id="qs4FXXVYRaF119wpGoub-249" value="&lt;font style=&quot;background-color: rgb(21, 23, 21);&quot; color=&quot;#ffffff&quot;&gt;ASDASD&lt;/font&gt;" style="shape=partialRectangle;html=1;whiteSpace=wrap;connectable=0;fillColor=none;top=0;left=0;bottom=0;right=0;overflow=hidden;strokeWidth=1;" vertex="1" parent="qs4FXXVYRaF119wpGoub-246">
          <mxGeometry x="489" width="181" height="110" as="geometry">
            <mxRectangle width="181" height="110" as="alternateBounds" />
          </mxGeometry>
        </mxCell>
        <mxCell id="qs4FXXVYRaF119wpGoub-250" value="" style="shape=tableRow;horizontal=0;startSize=0;swimlaneHead=0;swimlaneBody=0;top=0;left=0;bottom=0;right=0;collapsible=0;dropTarget=0;fillColor=none;points=[[0,0.5],[1,0.5]];portConstraint=eastwest;" vertex="1" parent="qs4FXXVYRaF119wpGoub-245">
          <mxGeometry y="110" width="670" height="470" as="geometry" />
        </mxCell>
        <mxCell id="qs4FXXVYRaF119wpGoub-251" value="" style="shape=partialRectangle;html=1;whiteSpace=wrap;connectable=0;fillColor=none;top=0;left=0;bottom=0;right=0;overflow=hidden;verticalAlign=middle;" vertex="1" parent="qs4FXXVYRaF119wpGoub-250">
          <mxGeometry width="149" height="470" as="geometry">
            <mxRectangle width="149" height="470" as="alternateBounds" />
          </mxGeometry>
        </mxCell>
        <mxCell id="qs4FXXVYRaF119wpGoub-252" value="" style="shape=partialRectangle;html=1;whiteSpace=wrap;connectable=0;fillColor=none;top=0;left=0;bottom=0;right=0;overflow=hidden;" vertex="1" parent="qs4FXXVYRaF119wpGoub-250">
          <mxGeometry x="149" width="340" height="470" as="geometry">
            <mxRectangle width="340" height="470" as="alternateBounds" />
          </mxGeometry>
        </mxCell>
        <mxCell id="qs4FXXVYRaF119wpGoub-253" value="&lt;br&gt;&lt;br&gt;&lt;br&gt;&lt;br&gt;&lt;br&gt;&lt;br&gt;&lt;br&gt;&lt;hr&gt;&lt;span style=&quot;color: rgb(255, 255, 255); font-size: 22px; background-color: rgb(21, 23, 21);&quot;&gt;XR驾驶舱&lt;br&gt;点击驱动&lt;/span&gt;" style="shape=partialRectangle;html=1;whiteSpace=wrap;connectable=0;fillColor=none;top=0;left=0;bottom=0;right=0;overflow=hidden;" vertex="1" parent="qs4FXXVYRaF119wpGoub-250">
          <mxGeometry x="489" width="181" height="470" as="geometry">
            <mxRectangle width="181" height="470" as="alternateBounds" />
          </mxGeometry>
        </mxCell>
        <mxCell id="qs4FXXVYRaF119wpGoub-254" value="" style="shape=tableRow;horizontal=0;startSize=0;swimlaneHead=0;swimlaneBody=0;top=0;left=0;bottom=0;right=0;collapsible=0;dropTarget=0;fillColor=none;points=[[0,0.5],[1,0.5]];portConstraint=eastwest;" vertex="1" parent="qs4FXXVYRaF119wpGoub-245">
          <mxGeometry y="580" width="670" height="106" as="geometry" />
        </mxCell>
        <mxCell id="qs4FXXVYRaF119wpGoub-255" value="" style="shape=partialRectangle;html=1;whiteSpace=wrap;connectable=0;fillColor=none;top=0;left=0;bottom=0;right=0;overflow=hidden;" vertex="1" parent="qs4FXXVYRaF119wpGoub-254">
          <mxGeometry width="149" height="106" as="geometry">
            <mxRectangle width="149" height="106" as="alternateBounds" />
          </mxGeometry>
        </mxCell>
        <mxCell id="qs4FXXVYRaF119wpGoub-256" value="&lt;span style=&quot;color: rgb(255, 255, 255); font-size: 22px; background-color: rgb(26, 26, 26);&quot;&gt;虚拟人表情&lt;/span&gt;&lt;br style=&quot;color: rgb(255, 255, 255); font-size: 22px; background-color: rgb(26, 26, 26);&quot;&gt;&lt;span style=&quot;color: rgb(255, 255, 255); font-size: 22px; background-color: rgb(26, 26, 26);&quot;&gt;算力顶替带宽&lt;/span&gt;" style="shape=partialRectangle;html=1;whiteSpace=wrap;connectable=0;fillColor=none;top=0;left=0;bottom=0;right=0;overflow=hidden;" vertex="1" parent="qs4FXXVYRaF119wpGoub-254">
          <mxGeometry x="149" width="340" height="106" as="geometry">
            <mxRectangle width="340" height="106" as="alternateBounds" />
          </mxGeometry>
        </mxCell>
        <mxCell id="qs4FXXVYRaF119wpGoub-257" value="" style="shape=partialRectangle;html=1;whiteSpace=wrap;connectable=0;fillColor=none;top=0;left=0;bottom=0;right=0;overflow=hidden;pointerEvents=1;" vertex="1" parent="qs4FXXVYRaF119wpGoub-254">
          <mxGeometry x="489" width="181" height="106" as="geometry">
            <mxRectangle width="181" height="106" as="alternateBounds" />
          </mxGeometry>
        </mxCell>
        <mxCell id="qs4FXXVYRaF119wpGoub-217" value="" style="shape=image;imageAspect=0;aspect=fixed;verticalLabelPosition=bottom;verticalAlign=top;image=data:image/jpeg,/9j/4AAQSkZJRgABAQEAYABgAAD/4RDaRXhpZgAATU0AKgAAAAgABAE7AAIAAAAFAAAISodpAAQAAAABAAAIUJydAAEAAAAKAAAQyOocAAcAAAgMAAAAPgAAAAAc6gAAAAgAAAAAAAAAAAAAAAAAAAAAAAAAAAAAAAAAAAAAAAAAAAAAAAAAAAAAAAAAAAAAAAAAAAAAAAAAAAAAAAAAAAAAAAAAAAAAAAAAAAAAAAAAAAAAAAAAAAAAAAAAAAAAAAAAAAAAAAAAAAAAAAAAAAAAAAAAAAAAAAAAAAAAAAAAAAAAAAAAAAAAAAAAAAAAAAAAAAAAAAAAAAAAAAAAAAAAAAAAAAAAAAAAAAAAAAAAAAAAAAAAAAAAAAAAAAAAAAAAAAAAAAAAAAAAAAAAAAAAAAAAAAAAAAAAAAAAAAAAAAAAAAAAAAAAAAAAAAAAAAAAAAAAAAAAAAAAAAAAAAAAAAAAAAAAAAAAAAAAAAAAAAAAAAAAAAAAAAAAAAAAAAAAAAAAAAAAAAAAAAAAAAAAAAAAAAAAAAAAAAAAAAAAAAAAAAAAAAAAAAAAAAAAAAAAAAAAAAAAAAAAAAAAAAAAAAAAAAAAAAAAAAAAAAAAAAAAAAAAAAAAAAAAAAAAAAAAAAAAAAAAAAAAAAAAAAAAAAAAAAAAAAAAAAAAAAAAAAAAAAAAAAAAAAAAAAAAAAAAAAAAAAAAAAAAAAAAAAAAAAAAAAAAAAAAAAAAAAAAAAAAAAAAAAAAAAAAAAAAAAAAAAAAAAAAAAAAAAAAAAAAAAAAAAAAAAAAAAAAAAAAAAAAAAAAAAAAAAAAAAAAAAAAAAAAAAAAAAAAAAAAAAAAAAAAAAAAAAAAAAAAAAAAAAAAAAAAAAAAAAAAAAAAAAAAAAAAAAAAAAAAAAAAAAAAAAAAAAAAAAAAAAAAAAAAAAAAAAAAAAAAAAAAAAAAAAAAAAAAAAAAAAAAAAAAAAAAAAAAAAAAAAAAAAAAAAAAAAAAAAAAAAAAAAAAAAAAAAAAAAAAAAAAAAAAAAAAAAAAAAAAAAAAAAAAAAAAAAAAAAAAAAAAAAAAAAAAAAAAAAAAAAAAAAAAAAAAAAAAAAAAAAAAAAAAAAAAAAAAAAAAAAAAAAAAAAAAAAAAAAAAAAAAAAAAAAAAAAAAAAAAAAAAAAAAAAAAAAAAAAAAAAAAAAAAAAAAAAAAAAAAAAAAAAAAAAAAAAAAAAAAAAAAAAAAAAAAAAAAAAAAAAAAAAAAAAAAAAAAAAAAAAAAAAAAAAAAAAAAAAAAAAAAAAAAAAAAAAAAAAAAAAAAAAAAAAAAAAAAAAAAAAAAAAAAAAAAAAAAAAAAAAAAAAAAAAAAAAAAAAAAAAAAAAAAAAAAAAAAAAAAAAAAAAAAAAAAAAAAAAAAAAAAAAAAAAAAAAAAAAAAAAAAAAAAAAAAAAAAAAAAAAAAAAAAAAAAAAAAAAAAAAAAAAAAAAAAAAAAAAAAAAAAAAAAAAAAAAAAAAAAAAAAAAAAAAAAAAAAAAAAAAAAAAAAAAAAAAAAAAAAAAAAAAAAAAAAAAAAAAAAAAAAAAAAAAAAAAAAAAAAAAAAAAAAAAAAAAAAAAAAAAAAAAAAAAAAAAAAAAAAAAAAAAAAAAAAAAAAAAAAAAAAAAAAAAAAAAAAAAAAAAAAAAAAAAAAAAAAAAAAAAAAAAAAAAAAAAAAAAAAAAAAAAAAAAAAAAAAAAAAAAAAAAAAAAAAAAAAAAAAAAAAAAAAAAAAAAAAAAAAAAAAAAAAAAAAAAAAAAAAAAAAAAAAAAAAAAAAAAAAAAAAAAAAAAAAAAAAAAAAAAAAAAAAAAAAAAAAAAAAAAAAAAAAAAAAAAAAAAAAAAAAAAAAAAAAAAAAAAAAAAAAAAAAAAAAAAAAAAAAAAAAAAAAAAAAAAAAAAAAAAAAAAAAAAAAAAAAAAAAAAAAAAAAAAAAAAAAAAAAAAAAAAAAAAAAAAAAAAAAAAAAAAAAAAAAAAAAAAAAAAAAAAAAAAAAAAAAAAAAAAAAAAAAAAAAAAAAAAAAAAAAAAAAAAAAAAAAAAAAAAAAAAAAAAAAAAAAAAAAAAAAAAAAAAAAAAAAAAAAAAAAAAAAAAAAAAAAAAAAAAAAAAAAAAAAAAAAAAAAAAAAAAAAAAAAAAAAAAAAAAAAAAAAAAAAAAAAAAAAAAAAAAAAAAAAAAAAAAAAAAAAAAAAAAAAAAAAAAAAAAAAAAAAAAAAAAAAAAAAAAAAAAAAAAAAAAAAAAAAAAAAAAAAAAAAAAAAAAAAAAAAAAAAAAAAAAAAAAAAAAAAAAAAAAAAAAAAAAAAAAAAAAAAAAAAAAAAAAAAAAAAAAAAAAAAAAAAAAAAAAAAAAAAAAAAAAAAAAAAAAAAAAAAAAAAAAAAAAAAAAAAAAAAAAAAAAAAAAAAAAAAAAAAAAAAAAAAAAAAAAAAAAAAAAAAAAAAAAAAAAAAAAAAAAAAAAAAAAAAAAAAAAAAAAAAAAAAAAAAAAAAAAAAAAAAAAAAAAAAAAAAAAAAAAAAAAAAAAAAAAAAAAAAAAAAAAAAAAAAAAAAAAAAAAAAAAAAAAAAAAAAAAAAAAAAAAAAAAAAAAAAAAAAAAAAAAAAAAAAAAAAAAAAAAAAAAAAAAAAAAAAAAAAAAAAAAAAAAAAAAAAAAAAAAAAAAAAAAAAAAAAAAAAAAAAAAAAAAAAAAAAAAAAAAAAAAAAAAAAAAAAAAAAAAAAAAAAAAAAAAAAAAAAAAAAAAAAAAAAAAAAAAAAAAAAAAAAAAAAAAAAAAAAAAAAAAAAAAAAAAAAAAAAAAAAAAAAAAAAAAAAAAAAAAAAAAAAAAAAAAAAAAAAAAAAAAAAAHJpY2sAAAAFkAMAAgAAABQAABCekAQAAgAAABQAABCykpEAAgAAAAM1NwAAkpIAAgAAAAM1NwAA6hwABwAACAwAAAiSAAAAABzqAAAACAAAAAAAAAAAAAAAAAAAAAAAAAAAAAAAAAAAAAAAAAAAAAAAAAAAAAAAAAAAAAAAAAAAAAAAAAAAAAAAAAAAAAAAAAAAAAAAAAAAAAAAAAAAAAAAAAAAAAAAAAAAAAAAAAAAAAAAAAAAAAAAAAAAAAAAAAAAAAAAAAAAAAAAAAAAAAAAAAAAAAAAAAAAAAAAAAAAAAAAAAAAAAAAAAAAAAAAAAAAAAAAAAAAAAAAAAAAAAAAAAAAAAAAAAAAAAAAAAAAAAAAAAAAAAAAAAAAAAAAAAAAAAAAAAAAAAAAAAAAAAAAAAAAAAAAAAAAAAAAAAAAAAAAAAAAAAAAAAAAAAAAAAAAAAAAAAAAAAAAAAAAAAAAAAAAAAAAAAAAAAAAAAAAAAAAAAAAAAAAAAAAAAAAAAAAAAAAAAAAAAAAAAAAAAAAAAAAAAAAAAAAAAAAAAAAAAAAAAAAAAAAAAAAAAAAAAAAAAAAAAAAAAAAAAAAAAAAAAAAAAAAAAAAAAAAAAAAAAAAAAAAAAAAAAAAAAAAAAAAAAAAAAAAAAAAAAAAAAAAAAAAAAAAAAAAAAAAAAAAAAAAAAAAAAAAAAAAAAAAAAAAAAAAAAAAAAAAAAAAAAAAAAAAAAAAAAAAAAAAAAAAAAAAAAAAAAAAAAAAAAAAAAAAAAAAAAAAAAAAAAAAAAAAAAAAAAAAAAAAAAAAAAAAAAAAAAAAAAAAAAAAAAAAAAAAAAAAAAAAAAAAAAAAAAAAAAAAAAAAAAAAAAAAAAAAAAAAAAAAAAAAAAAAAAAAAAAAAAAAAAAAAAAAAAAAAAAAAAAAAAAAAAAAAAAAAAAAAAAAAAAAAAAAAAAAAAAAAAAAAAAAAAAAAAAAAAAAAAAAAAAAAAAAAAAAAAAAAAAAAAAAAAAAAAAAAAAAAAAAAAAAAAAAAAAAAAAAAAAAAAAAAAAAAAAAAAAAAAAAAAAAAAAAAAAAAAAAAAAAAAAAAAAAAAAAAAAAAAAAAAAAAAAAAAAAAAAAAAAAAAAAAAAAAAAAAAAAAAAAAAAAAAAAAAAAAAAAAAAAAAAAAAAAAAAAAAAAAAAAAAAAAAAAAAAAAAAAAAAAAAAAAAAAAAAAAAAAAAAAAAAAAAAAAAAAAAAAAAAAAAAAAAAAAAAAAAAAAAAAAAAAAAAAAAAAAAAAAAAAAAAAAAAAAAAAAAAAAAAAAAAAAAAAAAAAAAAAAAAAAAAAAAAAAAAAAAAAAAAAAAAAAAAAAAAAAAAAAAAAAAAAAAAAAAAAAAAAAAAAAAAAAAAAAAAAAAAAAAAAAAAAAAAAAAAAAAAAAAAAAAAAAAAAAAAAAAAAAAAAAAAAAAAAAAAAAAAAAAAAAAAAAAAAAAAAAAAAAAAAAAAAAAAAAAAAAAAAAAAAAAAAAAAAAAAAAAAAAAAAAAAAAAAAAAAAAAAAAAAAAAAAAAAAAAAAAAAAAAAAAAAAAAAAAAAAAAAAAAAAAAAAAAAAAAAAAAAAAAAAAAAAAAAAAAAAAAAAAAAAAAAAAAAAAAAAAAAAAAAAAAAAAAAAAAAAAAAAAAAAAAAAAAAAAAAAAAAAAAAAAAAAAAAAAAAAAAAAAAAAAAAAAAAAAAAAAAAAAAAAAAAAAAAAAAAAAAAAAAAAAAAAAAAAAAAAAAAAAAAAAAAAAAAAAAAAAAAAAAAAAAAAAAAAAAAAAAAAAAAAAAAAAAAAAAAAAAAAAAAAAAAAAAAAAAAAAAAAAAAAAAAAAAAAAAAAAAAAAAAAAAAAAAAAAAAAAAAAAAAAAAAAAAAAAAAAAAAAAAAAAAAAAAAAAAAAAAAAAAAAAAAAAAAAAAAAAAAAAAAAAAAAAAAAAAAAAAAAAAAAAAAAAAAAAAAAAAAAAAAAAAAAAAAAAAAAAAAAAAAAAAAAAAAAAAAAAAAAAAAAAAAAAAAAAAAAAAAAAAAAAAAAAAAAAAAAAAAAAAAAAAAAAAAAAAAAAAAAAAAAAAAAAAAAAAAAAAAAAAAAAAAAAAAAAAAAAAAAAAAAAAAAAAAAAAAAAAAAAAAAAAAAAAAAAAAAAAAAAAAAAAAAAAAAAAAAAAAAAAAAAAAAAAAAAAAAAAAAAAAAAAAAAAAAAAAAAAAAAAAAAAAAAAAAAAAAAAAAAAAAAAAAAAAAAAAAAAAAAAAAAAAAAAAAAAAAAAAAAAAAAAAAAAAAAAAAAAAAAAAAAAAAAAAAAAAAAAAAAAAAAAAAAAAAAAAAAAAAAAAAAAAAAAAAAAAAAAAAAAAAAAAAAAAAAAAAAAAAAAAAAAAAAAAAAAAAAAAAAAAAAAAAAAAAAAAAAAAAAAAAAAAAAAAAAAAAAAAAAAAAAAAAAAAAAAAAAAAAAAAAAAAAAAAAAAAAAAAAAAAAAAAAAAAAAAAAAAAAAAAAAAAAAAAAAAAAAAAAAAAAAAAAAAAAAAAAAAAAAAAAAAAAAAAAAAAAAAAAAAAAAAAAAAAAAAAAAAAAAAAAAAAAAAAAAAAAAAAAAAAAAAAAAAAAAAAAAAAAAAAAAAAAAAAAAAAAAAAAAAAAAAAAAAAAAAAAAAAAAAAAAAAAAAAAAAAAAAAAAAAAAAAAAAAAAAAAAAAAAAAAAAAAAAAAAAAAAAAAAAAAAAAAAAAAAAAAAAAAAAAAAAAAAAAAAAAAAAAAAAAAAAAAAAAAAAAAAAAAAAAAAAAAAAAAAAAAAAAAAAAAAAAAAAAAAAAAAAAAAAAAAAAAAAAAAAAAAAAAAAAAMjAyMjowNzoxNyAxMDowOToyNgAyMDIyOjA3OjE3IDEwOjA5OjI2AAAAcgBpAGMAawAAAP/hCxdodHRwOi8vbnMuYWRvYmUuY29tL3hhcC8xLjAvADw/eHBhY2tldCBiZWdpbj0n77u/JyBpZD0nVzVNME1wQ2VoaUh6cmVTek5UY3prYzlkJz8+DQo8eDp4bXBtZXRhIHhtbG5zOng9ImFkb2JlOm5zOm1ldGEvIj48cmRmOlJERiB4bWxuczpyZGY9Imh0dHA6Ly93d3cudzMub3JnLzE5OTkvMDIvMjItcmRmLXN5bnRheC1ucyMiPjxyZGY6RGVzY3JpcHRpb24gcmRmOmFib3V0PSJ1dWlkOmZhZjViZGQ1LWJhM2QtMTFkYS1hZDMxLWQzM2Q3NTE4MmYxYiIgeG1sbnM6ZGM9Imh0dHA6Ly9wdXJsLm9yZy9kYy9lbGVtZW50cy8xLjEvIi8+PHJkZjpEZXNjcmlwdGlvbiByZGY6YWJvdXQ9InV1aWQ6ZmFmNWJkZDUtYmEzZC0xMWRhLWFkMzEtZDMzZDc1MTgyZjFiIiB4bWxuczp4bXA9Imh0dHA6Ly9ucy5hZG9iZS5jb20veGFwLzEuMC8iPjx4bXA6Q3JlYXRlRGF0ZT4yMDIyLTA3LTE3VDEwOjA5OjI2LjU3MzwveG1wOkNyZWF0ZURhdGU+PC9yZGY6RGVzY3JpcHRpb24+PHJkZjpEZXNjcmlwdGlvbiByZGY6YWJvdXQ9InV1aWQ6ZmFmNWJkZDUtYmEzZC0xMWRhLWFkMzEtZDMzZDc1MTgyZjFiIiB4bWxuczpkYz0iaHR0cDovL3B1cmwub3JnL2RjL2VsZW1lbnRzLzEuMS8iPjxkYzpjcmVhdG9yPjxyZGY6U2VxIHhtbG5zOnJkZj0iaHR0cDovL3d3dy53My5vcmcvMTk5OS8wMi8yMi1yZGYtc3ludGF4LW5zIyI+PHJkZjpsaT5yaWNrPC9yZGY6bGk+PC9yZGY6U2VxPg0KCQkJPC9kYzpjcmVhdG9yPjwvcmRmOkRlc2NyaXB0aW9uPjwvcmRmOlJERj48L3g6eG1wbWV0YT4NCiAgICAgICAgICAgICAgICAgICAgICAgICAgICAgICAgICAgICAgICAgICAgICAgICAgICAgICAgICAgICAgICAgICAgICAgICAgICAgICAgICAgICAgICAgICAgICAgICAgICAKICAgICAgICAgICAgICAgICAgICAgICAgICAgICAgICAgICAgICAgICAgICAgICAgICAgICAgICAgICAgICAgICAgICAgICAgICAgICAgICAgICAgICAgICAgICAgICAgICAgIAogICAgICAgICAgICAgICAgICAgICAgICAgICAgICAgICAgICAgICAgICAgICAgICAgICAgICAgICAgICAgICAgICAgICAgICAgICAgICAgICAgICAgICAgICAgICAgICAgICAgCiAgICAgICAgICAgICAgICAgICAgICAgICAgICAgICAgICAgICAgICAgICAgICAgICAgICAgICAgICAgICAgICAgICAgICAgICAgICAgICAgICAgICAgICAgICAgICAgICAgICAKICAgICAgICAgICAgICAgICAgICAgICAgICAgICAgICAgICAgICAgICAgICAgICAgICAgICAgICAgICAgICAgICAgICAgICAgICAgICAgICAgICAgICAgICAgICAgICAgICAgIAogICAgICAgICAgICAgICAgICAgICAgICAgICAgICAgICAgICAgICAgICAgICAgICAgICAgICAgICAgICAgICAgICAgICAgICAgICAgICAgICAgICAgICAgICAgICAgICAgICAgCiAgICAgICAgICAgICAgICAgICAgICAgICAgICAgICAgICAgICAgICAgICAgICAgICAgICAgICAgICAgICAgICAgICAgICAgICAgICAgICAgICAgICAgICAgICAgICAgICAgICAKICAgICAgICAgICAgICAgICAgICAgICAgICAgICAgICAgICAgICAgICAgICAgICAgICAgICAgICAgICAgICAgICAgICAgICAgICAgICAgICAgICAgICAgICAgICAgICAgICAgIAogICAgICAgICAgICAgICAgICAgICAgICAgICAgICAgICAgICAgICAgICAgICAgICAgICAgICAgICAgICAgICAgICAgICAgICAgICAgICAgICAgICAgICAgICAgICAgICAgICAgCiAgICAgICAgICAgICAgICAgICAgICAgICAgICAgICAgICAgICAgICAgICAgICAgICAgICAgICAgICAgICAgICAgICAgICAgICAgICAgICAgICAgICAgICAgICAgICAgICAgICAKICAgICAgICAgICAgICAgICAgICAgICAgICAgICAgICAgICAgICAgICAgICAgICAgICAgICAgICAgICAgICAgICAgICAgICAgICAgICAgICAgICAgICAgICAgICAgICAgICAgIAogICAgICAgICAgICAgICAgICAgICAgICAgICAgICAgICAgICAgICAgICAgICAgICAgICAgICAgICAgICAgICAgICAgICAgICAgICAgICAgICAgICAgICAgICAgICAgICAgICAgCiAgICAgICAgICAgICAgICAgICAgICAgICAgICAgICAgICAgICAgICAgICAgICAgICAgICAgICAgICAgICAgICAgICAgICAgICAgICAgICAgICAgICAgICAgICAgICAgICAgICAKICAgICAgICAgICAgICAgICAgICAgICAgICAgICAgICAgICAgICAgICAgICAgICAgICAgICAgICAgICAgICAgICAgICAgICAgICAgICAgICAgICAgICAgICAgICAgICAgICAgIAogICAgICAgICAgICAgICAgICAgICAgICAgICAgICAgICAgICAgICAgICAgICAgICAgICAgICAgICAgICAgICAgICAgICAgICAgICAgICAgICAgICAgICAgICAgICAgICAgICAgCiAgICAgICAgICAgICAgICAgICAgICAgICAgICAgICAgICAgICAgICAgICAgICAgICAgICAgICAgICAgICAgICAgICAgICAgICAgICAgICAgICAgICAgICAgICAgICAgICAgICAKICAgICAgICAgICAgICAgICAgICAgICAgICAgICAgICAgICAgICAgICAgICAgICAgICAgICAgICAgICAgICAgICAgICAgICAgICAgICAgICAgICAgICAgICAgICAgICAgICAgIAogICAgICAgICAgICAgICAgICAgICAgICAgICAgICAgICAgICAgICAgICAgICAgICAgICAgICAgICAgICAgICAgICAgICAgICAgICAgICAgICAgICAgICAgICAgICAgICAgICAgCiAgICAgICAgICAgICAgICAgICAgICAgICAgICAgICAgICAgICAgICAgICAgICAgICAgICAgICAgICAgICAgICAgICAgICAgICAgICAgICAgICAgICAgICAgICAgICAgICAgICAKICAgICAgICAgICAgICAgICAgICAgICAgICAgICAgICAgICAgICAgICAgICAgICAgICAgICAgICAgICAgICAgICAgICAgICAgICAgICAgICAgICAgICAgICAgICAgICAgICAgIAogICAgICAgICAgICAgICAgICAgICAgICAgICAgPD94cGFja2V0IGVuZD0ndyc/Pv/bAEMABwUFBgUEBwYFBggHBwgKEQsKCQkKFQ8QDBEYFRoZGBUYFxseJyEbHSUdFxgiLiIlKCkrLCsaIC8zLyoyJyorKv/bAEMBBwgICgkKFAsLFCocGBwqKioqKioqKioqKioqKioqKioqKioqKioqKioqKioqKioqKioqKioqKioqKioqKioqKv/AABEIAucB+wMBIgACEQEDEQH/xAAfAAABBQEBAQEBAQAAAAAAAAAAAQIDBAUGBwgJCgv/xAC1EAACAQMDAgQDBQUEBAAAAX0BAgMABBEFEiExQQYTUWEHInEUMoGRoQgjQrHBFVLR8CQzYnKCCQoWFxgZGiUmJygpKjQ1Njc4OTpDREVGR0hJSlNUVVZXWFlaY2RlZmdoaWpzdHV2d3h5eoOEhYaHiImKkpOUlZaXmJmaoqOkpaanqKmqsrO0tba3uLm6wsPExcbHyMnK0tPU1dbX2Nna4eLj5OXm5+jp6vHy8/T19vf4+fr/xAAfAQADAQEBAQEBAQEBAAAAAAAAAQIDBAUGBwgJCgv/xAC1EQACAQIEBAMEBwUEBAABAncAAQIDEQQFITEGEkFRB2FxEyIygQgUQpGhscEJIzNS8BVictEKFiQ04SXxFxgZGiYnKCkqNTY3ODk6Q0RFRkdISUpTVFVWV1hZWmNkZWZnaGlqc3R1dnd4eXqCg4SFhoeIiYqSk5SVlpeYmZqio6Slpqeoqaqys7S1tre4ubrCw8TFxsfIycrS09TV1tfY2dri4+Tl5ufo6ery8/T19vf4+fr/2gAMAwEAAhEDEQA/APDaKKKACiiigAooooAKKKKACiiigAooooAKKKKACiiigAooooAKKKKACiiigAooooAKKKKACiiigAooooAKKKKACiiigAooooAKKKKACiiigAooooAKKKKACiiigAooooAKKKKACiiigAooooAKKKKACiiigAooooAKKKKACiiigAooooAKKKKACiiigAooooAKKKKACiiigAooooAKKKKACiiigAooooAKKKKACiiigAooooAKKKKACiiigAooooAKKKKACiiigAooooAKKKKACiiigAooooAKKKKACiilClvugn6UAJRV+00HV7//AI8dLvbj/rlbu38hWnF4B8US9dGuIv8AruBH/wChEVShJ7IzlUhH4mkc7RXSXPw+8T21q9wdLeWOMbnMDrKVHqQpJxXN9OtEouOjQ4zjNXi7hRRRUlhRRRQAUUUUAFFFFABRRRQAUUUUAFFFFABRRRQAUUUUAFFFFABRRRQAUUUUAFFFFABRRRQAUUUUAFFFFABRRRQAUUUUAFFFFABRRRQAUUUUAFFFFABRRRQAUUUUAFFFFABRRXTeANIi1jxbBFcoskUStMyMMhsdAR6ZIqoRc5KK6mdSoqcHN9CDTfBHiDVbcXFrYbIW5WSeVIgw9RuIyPpWgPhxqaDN1fadb+oacnH5AisXXfFGq6tqdxKL2aKFnOyNHKgL26VhPJK7Zld3PqzE1s/YR0Sb/A5I/XKiu3GPybf5o7hfBOnw83/imwiHfylLn9SKeuj+BLTP2zxHc3R/6YRhP/iq8/NKFz0pe0praH4sfsMQ/iq/ckv8zvjP8Obf7q6ncn3c8/kopf8AhJPAtr/x7eGZJ2HeaVz+m/H6VwjRPGBvXGeneh0KrnIPqB2o9tbaK+4Pqd/iqSfz/wAkjvG+JNhAu3TvCmmQ46M0Eefz25/Wq7fFXWgf9Et7S3H+wnSuKjR5HCRgkscYHepJrWS3nEco5IyMd6PrFTo7fcH1Ch9pN+rb/U6W4+Jfii4+9fhf91B/Ws6bxf4guD+81WcZ/ukL/Ks+az8qzSfepDnAUMCR1/wqK2jWW4RXztJ+bA5xUutUf2mWsHhltBfcdr8PPFusW/jKzhkvZp4rh9jrK5bHBIIz06V0/wAYvDdnAsGv2MSQPNL5NyiDAdiCVfHr8pz+HvXEeFooI/iFpaWpJTzQT7Haa9O+MDf8UVCP+n+P/wBAkrsj7+Fk5a2PPnajjoRpqya1PEqKKK849sKKKKACiiigAooooAKKKKACiiigBaKKKACiiigAooooAKKKKACiiigAooooAKKKKACiiigAooooAKKKKACiiigAooooAKKKKACiiigAooooAKKKKACiiigAooooAKKKKACu5+En/I3zH0tHP/jy1w1d18J+PE14392xc/qtb4f+KjlxmmHkcC/LH602nHmuusfhprd9axXAe1ijlQOpeQ5wRkcAGsoxlJ+6jWVSFNXm7HGlQeopY12yBhzg5xXoMfwlvif32p2y/wC4jN/hVyH4SRD/AI+NWc/9c4AP5k1qsPVfQweNw6+1+Z5zdS741WMY5ySe1V5ZNy4Xgnrz0r1xPhfoNum65ubtx6tKqD/0GrMPgPwptysIlAOMtcE/yNWsLUMnmNFbXZ4xFKYpAwGfbOKdLO803mOTu7c5r2+38MeFIpNkOn2Lv6MQ5/UmtSLS9Otv+PewtYv9yBR/SrWDk92YyzSC2iz5+8u4uCNkLOfRE/wp8unX1vB589ncRRZA8x4mVc+mSK+hsKv3QAPYVx/xOOfCA/6+k/k1OeFUIuVxUsydSooctr+ZwfgMZ8c6X/11P/oDV6j8YT/xR9uPW/T/ANAkrzH4ejd490sf9NGP/kNq9K+Mef8AhGLMAHH23k/8Aarpf7pL1/yIxH/Ixp+n+Z43RRRXnHthRRRQAUUUUAFFFFABRRRQAUUUUAFFFFABRRRQAUUUUAFFFFABRRRQAUUUUAFFFFABRRRQAUUUUAFFFFABRRRQAUUUUAFFFFABRRRQAUUUUAFFFFABRRRQAUUUUAFFFFABXc/Cw7dZ1N/7unyH+VcNXcfDLi81lvTTZf5Vvh/4qOTG/wC7yOC619DaR/yArAf9O0f/AKAK+euw+lfQ2nDZpNmv92CMf+Oit8HuzizP4YlnvxXIeJvG66czWulhZrjlWkPKqfQep/T61J428SjSbRbG2Y/arlTkr/AnTP1P9DXn1qj3kg2I0hPyoqDNPFYnk92IsvwCqr2lRadEUtT1nUb1zNeXLu+eMHp+P+FVrXVL+GCSZbiRYwQuM9a7jT/hvdagBLqJ8pc5EYHT61c1T4cRw2BW3Y4TkDpzXjfWY33PpfqcuW1tDio7xprcFiQ/Zs9a2/DXjuTTr5LLVpWltZDgO/LRe+e4rnLqyksN8MwIK8MP6isG5ZvMIY5K9/WuqnVlF80WcVfDwqxcJo+kMhlBByDyCO9cd8TP+RUQHvcp/JqX4ba0dT8MC3lYmaxbyjnunVT/AE/CmfEw58MQ/wDX0v8A6C1exUkp0HJdj5ejTdLFqD6M5D4cxj/hP9M9mf8A9FtXpnxcmij8JIkjDfJcAIp6kjnP5fzrzj4bDPj/AE76yf8Aotq7X40H/iX6SPWWU/otYQ0wkvX/ACO6trmMPT/M8looorzj2wooooAKKKKACiiigAooooAKKKKACiiigAooooAKKKKACiiigAooooAKKKKACiiigAooooAKKKKACiiigAooooAKKKKACiiigAooooAKKKKACiiigAooooAKKKKACiiigArufhmP3muH/qGy/wDoJrhq7r4a8ReIGPbTpP8A0Fq3w/8AERyYz+BL5fmcCOgr6Hs+LC3zx+6T/wBBFfPK9q9z8QXTaf4Pvp4zh47QhT6Ergfqa3wjtzM4syTlyRXX/gHl11NP4r8XzmEs4mlKoR2TOFA/D+te2eFvBlno9nGGRXn2/MxHSvPvhFowkY37rwnIJ9TwP0H617RbgFwM/rXgV6jqTdz63DU40qaSD7GiJnjj2rMvI0csMfLWhqGqWGnW7PfXccIUZO5ufyrmG8V6TeZNs8uz/nq8TKmfqRWLi7aG6nrZnnPxH05Yg13ANpU8kV5TO5eQtmvdfFdl/aOkTquGBBII9MV4VLG0cpRhgglTXZh3eNjjxMfeudz8KrpofEFxbZ+SeDP4qR/Qmun+JrY8O249bkf+gtXF/DVwnimPPB2MK7D4mn/iR2v/AF8/+ymvapu+GZ8tXilmEX3Oe+Ggz4+sPYSf+gNXYfGhv9G0df8AbmP6JXI/DIZ8e2P+7J/6Aa6v40H5dHHvN/7JVR/3N+v+Qp/8jKPp/meV0UUV5x7QUUUUAFFFFABRRRQAUUUUAFFFFABRRRQAUUUUAFFFFABRRRQAUUUUAFFFFABRRRQAUUUUAFFFFABRRRQAUUUUAFFFFABRRRQAUUUUAFFFFABRRRQAUUUUAFFFFABRRRQAV3Hw/by9H8TyD+HTZP8A0B64eu38DceGfFjemnP/AOgPW+H/AIn3/kcmM/gP5fmjhVHzqPcV7T40BPgTUQOogX9GFeMxD9+g/wBoV7prtut5oN5bP92SIqfat8Krwmv66nHmEuWpSfn/AJHM+FXitPCUC3mrS6bE/wA2IAA7npkk9AOBXU+GdUhTUALTV7rUUZghE5DbT9VJFZ2neCPt1rp96WdgtqI/KAGMFcE4Pfk810mk+HrbRJolht0gUtnaCSSepJJ69BXzspRaZ9hCL0M7xLJE2szSy2/2hkwiqRkZ+lYM/ibXba6FmumSvEDs3KqmNxkj5cAZGOcjPWu3igtrnVbjzedzcDPQ1rWumRZ8wICF5y3OKlS8rmkonHtZyQ6cvn2/kKwOU7A+wrw3xNp7W+vTxRKTubcAB68V9BeKbkBdg7HmvHvE0eNZt7wDjzQh/GtKMmm2ZYiN4ooeC7W5svFlsbiMp5qll56j/INdX8TW/wCJVZD1mJ/8dqvpVqqa7pxX+ESHntkL/jUnxLP/ABLbAesrf+givcoScsLJnyuLio5jBLt+jMr4XjPjyz9kk/8AQTXT/Gc/vdIHtKf/AEGuc+Fi58dW3tFIf0roPjMf9K0kf7Ev81rdf7m/U55f8jKPoeY0UUV5x7QUUUUAFFFFABRRRQAUUUUAFFFLQAUUUUAFFFFABRRRQAUUUUAFFFFABRRRQAUUUUAFFFFABRRRQAUUUUAFFFFABRRRQAUUUUAFFFFABRRRQAUUUUAFFFFABRRRQAUUUUAFdr4K48I+LT/04N/6C1cVXbeDuPBPi1v+nMj/AMdatqHx/J/kcuL/AIXzX5o4mAZuoh6uB+te+XKebbSxn+NGX9K8FtOb6D/rov8AOvfj94/WuvBbSPNzV2cPn+ht+HLiJNFtTL0EQyPTiob7VPKuIrr7O0kTKQMchR6n61laUskmk/Z42PyZU49AcGpLfUrrUdel0TT7JhcW8QkczLtXbkDgnr1FfNVISVRw7H3FCcZ01O+6Ktm+oajeM0lqkULOG8zJ3YHbGK3ItRlsiYZWLxN91j1HsaTUtH1WztQ95qllaBQchCWJwwHTAzwc1zukWuqXV093f3qvaKMRRqmDI3qfb+dTKHLqbXTWjuhdZdrqZgemOa4jW7HzrOWQDiKeI/m1d3q22DznP0Aryq/vJ7vxTNZpcSLbrCGeJWIDHPBI/GtKMXLY5cRNR3Ok0KEzanJc9g2xOOgz/jn8MVU+Jh/0fTh23uf0Fb+iwiG1iCjHOf51zvxMPyaaPeT/ANlr6LkVPCtLyPi/aurmCk/P8mQfChc+NkP92Bz+orY+Mh/0/Sx/0yk/mKy/hIM+Mz7Wz/8AoS1pfGQ/8TPTB/0xc/8Aj1P/AJg/mU/+RmvQ83ooorzj2gooooAKKKKACiiigAooooAKKKKACiiigAooooAKKKKACiiigAooooAKKKKACiiigAooooAKKKKACiiigAooooAKKKKACiiigAooooAKKKKACiiigAooooAKKKKACiiigArtfCfHgHxWf+ncD+dcVXa+F+Ph34pP/TNB+orah8Xyf5HLi/4fzX5o46wGdSth6zIP/HhXvbHrXg2mjOr2g/6bp/6EK94NdmC2keXmu8Pn+gul3Atp9rYwzn8c8/1rUvdPjvJklhk8qVRhXAzlfQ1z8gzINvrwfStewv8A90BKfmx3715mY4fll7WPU9vJMdJr2L3Wq9CwdEa7X/S5WlCnIU/KCff1oYraOqZHy9h0FE+urFblExu7EVzF5qDySMzueewryrOR9FOo3uyt4hv/ADpGC/dX9TXHWOjlry6vpBh7mVY0z/dBGT/n0ror1fM5HQDis3w1eNfXJhlIPkSyBTnkqCRj9TXfhVFvl7nj46UlHn6K7/A6i0j2KF4GCW/P/wDXXF/Es5k04e0n/std3tw5I9MVwXxKP+kacP8AZkP6rXvYhWos+RwUubFxfr+RN8IVz4umP920b/0NKu/GM/8AE500f9O7f+hVB8HwD4muj3Fof/Q1qX4xH/if6ePS1z/4+1Y/8wfzO1f8jL5HndFFFece0FFFFABRRRQAUUUUAFFFFABRRRQAUUUUAFFFFABRRRQAUUUUAFFFFABRRRQAUUUUAFFFFABRRRQAUUUUAFFFFABRRRQAUUUUAFFFFABRRRQAUUUUAFFFFABRRRQAUUUUAFdt4Z4+Gvig/wCzGP8Ax5a4mu28PfL8L/Ex9WjH/j6VtR+J+j/I5cV8C9V+ZyWkjOtWI/6eI/8A0IV7mTXiGiRtJ4g09EUszXMYAHOTuFfVPhvwktuEvNTU+f1WIjIT3Pv/ACrfD1Y04Ns48dh516kIxPPpAY2BZSM9zWxZ2C3VjlhzzirvifQp7TxFJJF9ontrr98icsI2Awwx26Z/H2pbOVRbBV7cV5WOxkqz9nayR7WW5fHDL2vNds5y6014pDgnFZ5sWeTkV1tyQxIOKqPabYmkPHFcKeh69jj9QURvtrza01iWz1FZIGw8Vw7Y6ZG4jH8/zr0nUvnnZq5NvhlqV7o93ruks9yUuWDWoX5iPvEr64zjFdNHy3OOulbXY7rT76HUbGO5tz8rjp/dPpXEfEn/AI/rAf8ATN/5irvw8j1FbWZ7u3eK3fBjLcbj64qj8ST/AMTKxHpC3/oVe/Ocp4XmktT5CjShSx/LB3Wv5Gj8HhnxDeH/AKdsf+PD/Cj4wn/iprEf9OQ/9GPT/g6P+J5fH/pgP51F8YD/AMVVZj0sV/8ARj0pf7mvU2j/AMjKXp+hwFFFFece0FFFFABRRRQAUUUUAFFFFABRRS0AJRS0UAJRS0UAJRS0UAJRS0UAJRS0UAJRS0UAJRS0UAJRS0UAJRS0UAJRS0UAJRS0UAJRS0UAJRS0UAJRS0UAJRS0UAJRS0UAJRS0UAJRS0UAJRS0UAJXb6EMfCbxE3rNEP8Ax9K4mu60MD/hUOu5GQ11GP8Ax5K2o7v0Zy4r4Y+q/M4/S79tJ1mz1BIxI1pOkwRjgMVYHB/KvVZP2jtd/wCWejaev+8zn+orytYoyQAi8n0pwhjJ6Y/4DWJ1Hocn7QXippjJHbaemf4djkAf99Vz8nxT8QPcyzRrZwmVixVIflBPoCa58JGOh/8AHaUBPc/hUyjGXxIqMpR+FmvJ8R/EshJ+1Rqf9mBf8KrzeO/FE8ZR9Ql2HqFiUfyFUdyDqrH/AIEP8KXcnZG/Fv8A61L2cOw/aTfVjX13W5fvXU5/DFSReIPEUMPk2+p30UWSdiTFRnvwDTQ6/wB39aQsc/cUj8apJLYltvcia91eViZLu4Yk5JaY8/rUEsd3OwMzs5HQu+atCTnlQB+NHU8ccVV2TZI7n4QQvFq1+Xx/qVxg+5qj8XW3eL7cf3bJB/4+9avwqIGqX/8A1yX/ANmrF+LDbvGgH921jH869Cf+5x9Txqf/ACMp+n+RxFFLRXnHtCUUtFACUUtFACUUtFACUUtFACUtFFABRRRQAUUUUAFFFFABRRRQAUUUUAFFFFABRRRQAUUUUAFFFFABRRRQAUUUUAFFFFABRRRQAUUUUAFFFFABRRRQAUUUUAFFFFABRRRQAV2+iv8A8Wl1tPS7jJ/NK4iut0GXd8PfEUA+8oSX8AwP/stb0NZNeT/I5MXpBPzX5nNiTDgr2pTcNnhRj3qgbnFMNwT3rA6zR88+gpwmPtWV9oPrR9oPrQBpmVicfL+VKZSBndn8KyvtJ/vUfaCepoA1PPA6sfyo88dMmsrzvfigTHPWgDYBUqCxP50GdE6frWSLg0hmJoA9S+FNyG1i9XPWJf5ms/4sJt8YRN2e0Qj82H9Kp/Cy9EPiWZGOPMgOPchh/ia2/i3ZubjTdQCkoY2gZuwIO4D/AMeP5V6bjfBJ9meBGajm0ovqv0/4B5zRRRXmHvhRRRQAUUUUAFFFFABRRRQAUUUUAFFFFABRRRQAUUUUAFFFFABRRRQAUUUUAFFFFABRRRQAUUUUAFFFFABRRRQAUUUUAFFFFABRRRQAUUUUAFFFFABRRRQAUUUUAFFFFABXReD5ke8u9MmOI9Qtnhz6Njj+tc7T4pXhlWSJijocqw6g1dOfJNSMa1P2tNw7mZcxyW8rxTKQ8bFWB7EcGolYHpXXahaweJl+12m2PUdv7+3PHm4/iX39q5W5sp7JyJI2UZ7j9Kc4crutgpVOZWlo+oyir1pYm4hSRmVVdiq574xn+dWhovzYMi/nWZsZGM0orX/sT0kH5Up0Y/3s/QU7MXMu5kClArWOjOBwGPpgU3+xbon5YXP/AAGnyy7E+0gupmlRjikxWxHoFyeWjZR+FTDw65PKufwo5Zdg9pDuVPDeojSvEVndM21Ffa59mGD/ADzXvN1p9p4l0B7G8J8uUAq69UcdGHuP5E14idB243o+K7zwh4nGnKlhqTMIxxHIw6fU16mBqR5XRqbM+dzehPnji6L1jv6dzkfE3hHUvC86i9VZLeRiIbiM5V/w6g+xrCr1L4s3Ucui6SEcN5ksjqQc5AVf8a8trgxFNU6rhE9nBV5V8PGpLdhRRRWB2BRRRQAUUUUAFFFFABRRRQAUUUUAFFFFABRRRQAUUUUAFFFFABRRRQAUUUUAFFFFABRRRQAUUUUAFFFFABRRRQAUUUUAFFFFABRRRQAUUUUAFFFFABRRRQAUUUUAFFFFACgkHIOCOhFXv7WndQt2sd0AMZlXLY/3hzVCimm1sJxT3LwvrbYqHToti5KqJGAGfxqdNbSFNsOmWi46ZDN/NqyqKpTktiJU4y3Rrf8ACRXg/wBXFaR/7tsn9RSjxRq6/cugn+5Eg/kKyKKftan8zJ9hSX2V9xbv/F+vo0Qj1W4TOc7WxnpV7Udc1wS2i2+rXibrBJ3/AH7cnBJP6Vy+on95F9DW/ejF3F/s6Qn/AKLNHtJ92P2NP+VfcLB4o1xoULardE46mU1MPFOuDpqlz+L5rEt/+Pdakpe0n3H7Kn/KvuNn/hLdc76jKfrg0h8V6yRzesfqi/4Vj0U/az7sXsaX8q+4nuby4vGDXMrSbc7Qei564HaoKKKhtt3ZokkrIKKKKQwooooAKKKKACiiigAoopaACiiigAooooAKKKKACiiigAooooAKKKKACiiigAooooAKKKKACiiigAooooAKKKKACiiigAooooAKKKKACiiigAooooAKKKKACiiigAooooAKKKKACiiigAooooAz79g86KvLKOa3LybzNQEaq27+zkiAOOoiwe9c9N/x+vng7uK6KUqviRS/yqtuudwxj93QBm25Bt1x6c1LUFpjymx03n+QqegAooooAKKKKACiiigAooooAKKKKACiiigAooooAKKKKACiiigAooooAKKKKACiiigAooooAKKKKACiiigAooooAKKKKACiiigAooooAKKKKACiiigAooooAKKKKACiiigAooooAKKKKACiiigAooooAKKKKACiiigDOvDm/Ueigfqa6bU/+Q7ef7Nkg/8AIJrl7s41Dj0FdRqf/IY1I+lso/8AIVAjFt/+PdalqO34t1+lSUDCiiigAooooAKKKKACiiigAooooAKKKKACiiigAooooAKKKKACiiigAooooAKKKKACiiigAooooAKKKKACiiigAooooAKKKKACiiigAooooAKKKKACiiigAooooAKKKKACiiigAooooAKKKKACiiigAooooAKKKKAMy551Ej6D9K6fUz/xNdWPpEB/5DFczN/yFDj1X+Qro9TJ/tHWD6Aj/wAdAoEZUH+oX6VJUcH+oT6VJQMKKKKACiiigAooooAKKKKACiiigAooooAKKKKACilooASilooASilooASilooASilooASilooASilooASilooASilooASilooASilooASilooASilooASilooASilooASilooASilooASilooASilooASilooASilooASilooASilooAy5eNTb/eX+QrodSfN3rJ/22X9VFc+/Oq/8DX+lbeoN++1kjvPIP/HloEU4P9Qn+6KfTIf9RH/uj+VSUDEopaKAEopaKAEopaKAEopaKAEopaKAEopaKAEopaKACiiigAooooAKKKKACiiigAooooAKKKKACiiigAooooAKKKKACiiigAooooAKKKKACiiigAooooAKKKKACiiigAooooAKKKKACiiigAooooAKKKKACiiigAooooAzP+YsP+ui/wBK1705GrH1uZP/AEYtY5/5Cv8A20Fac7brO/b+9O5/8fWgBsP+oj/3B/Kn0yL/AFKf7o/lT6ACiiigAooooAKKKKACiiigAooooAKKKKACiiigAooooAKKKKACiiigAooooAKKKKACiiigAooooAKKKKACiiigAooooAKKKKACiiigAooooAKKKKACiiigAooooAKKKKACiiigAooooAKKKKACiiigAooooAKKKKAMv/mKf9tB/OrznOmXR9ZT/wChiqH/ADEv+2g/nVwn/iUy+8n/ALNQBOn+rXHoKdSKMKB6CloAKKKKACiiigAooooAKKKKACiiigAooooAKKKKACiiigAooooAKKKKACiiigAooooAKKKKACiiigAooooAKKKKACiiigAooooAKKKKACiiigAooooAKKKKACiiigAooooAKKKKACiiigAooooAKKKKACiiigAooooAys41Ik/89P61az/xKW93/wDZjVJzi9bPaQ/zq2DnSR7sP5mgC6DkZ6Zoo6UUAFFFFABRRRQAUUUUAFFFFABRRRQAUUUUAFFFFABRS0UAJRS0UAJRS0UAJRS0UAJRS0UAJRS0UAJRS0UAJRS0UAJRS0UAJRS0UAJRS0UAJRS0UAJRS0UAJRS0UAJRS0UAJRS0UAJRS0UAJRS0UAJRS0UAJRS0UAJRS0UAJRS0UAJRS0UAYcx/0mQ/9ND/ADq6v/IJj/3h/NqpT4+0SY6eYf51dT/kGRD/AGh/NqAL9JS0UAJRS0UAJRS0UAJRS0UAJRS0UAJRS0UAJRS0UAJS0UUAFFFFABRRRQAUUUUAFFFFABRRRQAUUUUAFFFFABRRRQAUUUUAFFFFABRRRQAUUUUAFFFFABRRRQAUUUUAFFFFABRRRQAUUUUAFFFFABRRRQAUUUUAFFFFABRRRQBgynMjn/aP86vr/wAg6Ee4/rWe55P1NX1OLOAe4/rQBoUUUUAFFFFABRRRQAUUUUAFFFFABRRRQAUUUUAFFFFABRRRQAUUUUAFFFFABRRRQAUUUUAFFFFABRRRQAUUUUAFFFFABRRRQAUUUUAFFFFABRRRQAUUUUAFFFFABRRRQAUUUUAFFFFABRRRQAUUUUAFFFFABRRRQAUUUZxQBz55FXgf3UC/SqAHyj6VdU8wj2FAGpRRRQAUUUUAFFFFABRRRQAUUUUAFFFFABRRRQAUUUUAFFLRQAlFLRQAlFLRQAlFLRQAlFLRQAlFLRQAlFLRQAlFLRQAlFLRQAlFLRQAlFLRQAlFLRQAlFLRQAlFLRQAlFLRQAlFLRQAlFLRQAlFLRQAlFLRQAlFLRQAlFLRQAlFLRQAlFLTWOFJ9qAOf/hH0q3GczRD/dqp/APpVqHm4T/gNAGvRS0UAJRS0UAJRS0UAJRS0UAJRS0UAJRS0UAJRS0UAJS0UUAFFFFABRRRQAUUUUAFFFFABRRRQAUUUUAFFFFABRRRQAUUUUAFFFFABRRRQAUUUUAFFFFABRRRQAUUUUAFFFFABRRRQAUUUUAFFFFABRRRQAUUUUAFFFFABTZP9U3+6adTJeIX/wB00AYB+6PpVm3P+kR/Vf6VVb7oq1a83KfVaANmiiigAooooAKKKKACiiigAooooAKKKKACiiigAooooAKKKKACiiigAooooAKKKKACiiigAooooAKKKKACiiigAooooAKKKKACiiigAooooAKKKKACiiigAooooAKKKKACiiigAooooAKKKKACiiigAooooAKKKKACmTf6iT/dP8qfUc//AB7yf7p/lQBgN90Vasv+PlT7iqrfdFXLD5rpf89qANeiiigAooooAKKKKACiiigAooooAKKKKACiiigAooooAKKKKACiiigAooooAKKKKACiiigAooooAKKKKACiiigAooooAKKKKACiiigAooooAKKKKACiiigAooooAKKKKACiiigAooooAKKKKACiiigAooooAKKKKACo7g4tpP8AdP8AKpKiuv8Aj0l/3D/KgDBboPpVvT/+Ppcev9KpnoPpV3Tv+Ppfqf5GgDXooooAKKKKACiiigAooooAKKKKACiiigAooooAKKKWgBKKWigBKKWigBKKWigBKKWigBKKWigBKKWigBKKWigBKKWigBKKWigBKKWigBKKWigBKKWigBKKWigBKKWigBKKWigBKKWigBKKWigBKKWigBKKWigBKKWigBKKWigBKKWigBKiuzizl/3DU1Q3f/HnL/uH+VAGB6Ve08f6SPqf5VRFX9N/14/H+VAGrRS0UAJRS0UAJRS0UAJRS0UAJRS0UAJRS0UAJRS0UAJS0UUAFFFFABRRRQAUUUUAFFFFABRRRQAUUUUAFFFFABRRRQAUUUUAFFFFABRRRQAUUUUAFFFFABRRRQAUUUUAFFFFABRRRQAUUUUAFFFFABRRRQAUUUUAFFFFABUF6cWUv+7U9V7/AP48Zfp/WgDCFX9M/wBcPxrPq/ph/wBIH0NAGvRRRQAUUUUAFFFFABRRRQAUUUUAFFFFABRRRQAUUUUAFFFFABRRRQAUUUUAFFFFABRRRQAUUUUAFFFFABRRRQAUUUUAFFFFABRRRQAUUUUAFFFFABRRRQAUUUUAFFFFABRRRQAUUUUAFFFFABRRRQAUUUUAFFFFABVbUeLCT8P51ZqrqR/4l8n4fzFAGGKv6X/x8/8AAT/SqFXtK/4+j/un+lAGxRRRQAUUUUAFFFFABRRRQAUUUUAFFFFABRRRQAUUUUAFFFFABRRRQAUUUUAFFFFABRRRQAUUUUAFFFFABRRRQAUUUUAFFFFABRRRQAUUUUAFFFFABRRRQAUUUUAFFFFABRRRQAUUUUAFFFFABRRRQAUUUUAFFFFABVXUv+QfJ+H8xVqqmqHFg3uR/OgDEFX9J/4+G/3D/MVQq/pP/Hy3+5/WgDXooooAKKKKACiiigAooooAKKKKACiiigAooooAKKKWgAooooAKKKKACiiigAooooAKKKKACiiigAooooAKKVVZ3CICzMcAAZJNeheHvhNe30cdxrlx9hiYZ8hBmUj37L+p9qAPPKK9xj+Ffh2OPb5Ekp/vSTNn9MCqt18JtHlB8jzoT22SZ/nmgDxiivSb34QXKZNlfgjsJY/6isG9+G3iO0yY7aO5Ud4pB/JsGgDlKKv3OharZ5+1addRAdS0TY/OqHTrQAUUUUAFFFFABRRRQAUUUUAFFFFABRRRQAUUUUAFFFFABRRRQAUUUUAFFFFABVLVf+PE/wC8Ku1R1b/jz/4GKAMatDSP+Ph/9z+tZ9aGj/66U/7I/nQBr0UUUAFFFFABRRRQAUUUUAFFFFABRRRQAUUUUAFFFFABRRRQAUUUUAFFFFABRRRQAUUUUAFFFFABRRV7RdP/ALU1q1sznbJIN+OoUcn9AaAPRfhz4YisrdNav4w1zKM2yt/yzX+99T+g+teipc+9c6spiULGAqqMBQOAPSnrfMOtBJ0yXA9alWYGubTUfU1Yjvwe9AHQB1NLhG6gVjpfe9TpeD1oGX2gib+EVnX3hzStRJN5Y287f3pIgx/PrVhbv3qQXKmgDlb34YeHbpTttDAx/ihkZSPw6fpXP3fwbg5NnqUyDsJUDY/EYr0zz19a4X4l+NpNAtY9P04gXtwu8ucHyk9cep7UAefeIfAl34fs3u3vrSeFSBhSVc5OOARjv61y1J9omunea5leWRmyXdixP4mloGFFFFABRRRQAUUUUAFFFFABRRRQAUUUUAFFFFABRS7T6UlABRRRQAVR1b/jzH++P61erM1WTdIkJOFxuPueaAMvtWjo3+sl+gqyulab/Z9vO2ol5pJMSW6J8yL65PFEMVva6o0VpK0kUgOCxBOACRnHegC7RRRQAUUUUAFFFFABRRRQAUUUUAFFFFABRRRQAUUUUAFFFFABRRRQAUUUUAFFFFABRRRQAUUUUAFdx8OdPzLdai65CDyYyfU8t+mPzrh69f8ADdgdO8O2sDLtcpvcf7Tc8/y/CgTNQnNMIozQTQITbRgilzRmgBRI46GpVunXqai4pMUAXEvyOtWEvweprLxS4oA27acT3UUW7AZuee3evn/xTq7a34jv792JEsx2eyDhR+QFe128hhaebP8AqbaaT6YQ14Jb2yzLumYhewHU0DHWUJe23jux71P5Ddh/48Kki8qGMRxYCj1al85KAIhA3p/4+KX7O57qB7tmn+ch7/pR560wEFqe8sY/Fv8AClFn6zL+Cmjz19aUXKj1/KkBXcBZGUHO04zTac5DSuw6Mc/pTaBhRRRQAUUUUAFFFFADkQu21etTGBgMLx71oWVgVhDOPnbn6CrDW2B0oAwHtiKjIkQY3HHoea25Lf2ostGk1K5MaZSNP9bJj7vsPf8AlQBhLO7y+UkZkf0Qc1O0U8agzW8sYPdkOPzrt4NGs9Ptz5aLGijLOfQdya5a9168vZmj0hvs9qDjzyPmf6D0oAz6xtU/4/R/uD+tdCbuG3IXULmSdmGQGC/4Z/Wuc1CWO5vne3VhGMBdxyaAIQflFX9JI+1SdP8AVntVNYJmVT5bBTwGIwPzq7bwyae/nXC4V1+Uj68/pQBo0UqDzADH84IyNvNBBBwRg0AJRUn2ebbnynx67TUTOqnBPNAC0U3zF/yKPMX1/SgB1FNEiE4DDPoTTqACiiigAooooAKKKKACiiigAopaKAEopaKAEopaKAEopaKAEopaKAEopaKANLw9p51PXrW3xlN++T/dHJ/lj8a9eJ5rh/h7YYF1qDj0hj/m39K7XNAmLjNIeKUGmMaBCFsUB6848S+K9TtPE1xFYXJihgxGE2hgTjJJyPUkfhRbfEe9TAu7KCXHUxsUJ/mKAPSQ1PBrA0DxPaeIPMS3jliliUM6SAdCexHWt4UAOzTqZS9BQAXDeXousSf3NOm/UY/rXh1e1am/l+D/ABBJ6We3/vpgK8WoGhKKWigYlFLRQAlFLRQAlFLRQAlFLRQAlFLRQAlX9Js/td4MjKR/M39BVGur0Gz8qwViPmmO78O3+fegC4kGFzjmopIq0JFwMCq0gxk0gKBt3kZUhXfLIwSNfVj0/Ack+wrrLPTItPso7eLLBBlnPV27sfrWdokI+2SXLHIhBjQf7RxvP5YX860NX1dNK0m5vmwxhTKKf4nPCj8yKAOF8eayWnOk2uTFGQbllHVuoT8O9cpHqJUYHAHQUx7uVpnkdy0kjF3Y/wARPU0v2ksPnVW+ozTAr30hnmEoOflwfaoIlJcelXhJAfvQIfpxSgWp6KyH/Zb/ABoA63SbvTZ9E+x6zLdukfMMcbAID+Wf1rF1BZ9V2+ddM8cX7qLe3C8cL6CqHlLIuBdygehoS3MMcnkyKzOME5I4+nQ/jQBb063S2ZWRnebOAMEEHpjHrXd6dpRhhWS9PmTHna3IT/69YXgbQ5HuJNRugxSNtsIJzl+7fh/M+1dH4huTa2QhiOJZuOOy96QHN67q0l3K9raNtt14Zl/5aH/CsPyfatMwY4FAgzTAzhAaq3LhSyqdoX7zentWte/6Nb5Xh3O1Pb1P4Vy1zP5km1D+7U8e/vQBKZo89GPvV21mzhCcqfumsgVZtnKtx16j60AbFFCncoPqM0tACUUtFACUUtFACUUtFABRRRQAUUUUAFFFFABRRRQAUUUUAFFFafh2xGoa9bQuu6MNvceqjnH49PxoA9I0GxGm6Fa2/wDFs3v/ALx5P88fhWhuzTSaBQSOqOQheWOAOp9BT81l+Irn7L4ev5gcFYGAPoSMD9TQB5NPI2qazI6/eupyVH+83H867DVvh/awWs1zZX0kYhjZ2SZQwOBnqMY/I1znhG2Fx4qslIyI383/AL5GR+oFd/4wu/snhS7IOGlAiX/gR5/TNAzH+Gtvi2vrkj7zrGD9Bk/zFd8Olc14ItRbeFbYgfNMWlb6k4H6AV0oNAhaO1BNITQBQ8RyeX8P9fP98W6D8ZQf6V4/XqvjOQx/D+7x/wAtr6GM++FZv6V5VQUFFFFABRRRQAUUUUAFFFFABRRRQAUUUUAPgiM9xHEOrsFrvbYKgVUGFRcAVx2jR79RVj0jBY/y/rXWQy4jNAFhznJ9arysiKXkG5UBYr/eAGcfj0/Ggy0RsslxDERnzJBkH+6vzH9VA/GkBp2kRt7KOM/exl/djyT+ZNcd4+v/ADJbbTkf7g8+T6nhR/M/iK7Y5ZsDqeleV+JrhbjxJfOjbkEpRT6hflH8s/jQBlFG/vKfwro/BOkpqGuiW4RXhtV8wqwyGbooI/X8K5zPNej+BrMW2gm4I/eXUhYn/ZXgfru/OmIv60/hq0kiTWbK2DTAlWW35AHclRms+fw14VutHn1K0WRYI0Zt8UrDBA6Yb3rF8Y2+p3niA7LOd4Vj2wbELblXBZuPdv1FaXij/iS+C7DSoztaXAk98fM3/jxFAHA4IHJGafEkssyRxjLuwVR6knApd+a3vB9ot3r6SOgK2ymXp36D9Tn8KBnoenW0emabBaIdywoAW/vHufxOTXOanObzUZH/AIU+Ra2r24MNs5B5A4rAVMRj160gIPLyafHBkFsVKEzUtxILKykmIyY0JA9W7fqRTA4/xFcjznWNuB+6X6D7x/E8Vzpq7qMge6ZVORH8mfUjqfzzVI0AOU5qzEMEEduarR9auwrQBpQHMI9iRUlRwjCH/PapKACiiigAooooAKKKKACiiigAooooAKKKKACiiigAooooAK7bwHZbILm+ZeXPlIfYcn+n5VxSqXYKoyxOAB3r1TTLX+z9Lt7XjMSANj+91P6k0CZobqUNUG+nbqBE26uU+IF2YfDogU4NxMqn6DLfzArpg1UtU0q01e3EN9F5iKdy4Ygg/UUAea+E9Si0zXkklheYzL5KBCMhmYc8/wCea2fGuv2mo2yWFk7PLFcMJFKkYK5UYPfJJ/KtK18D21jrFve21zIUhkEgilUHJHTkY7+1Ylt4O1aLxBbtcxRvD5wd5kkBXAOTweefpQM9E022Fjp9vaj/AJYxrH+QxV4Hiq6n1p+6gRLupCaZuoJ4oAxPHj7fAUC/89NTz+UR/wAa8xr0j4hNt8H6Wv8AfvJW/JQK83oKCiiigAooooAKKKM0AFFJRQAuaTNFFABmikzRmgDT0g7WkbPoK21m+QDNc9ZyeXCT6tV4XHy9aANTzsHrmrFg4+3K5/hiZh/wIgf+yGsMXNW9Oucyyt7KB+Wf60COhub0W1pNcE/6mNpPyGf6V5VJEzNkk5rsvEV7s8P3IBx5m1PwLDP6Vy6yRv0IP0oAo+Uw962NP8TavptqltBKjQpnajxhsc569e9ViqGkMamgDbt/Hd3Fei4uLOGRhF5Q2krgZyfXrx+VZviPX21++il8ryY4o9iIW3d8k5/z0qoYKYYOegoAqH2ru/AlqE0y5uj96WQID7KP8T+lcY9uAM4/KvRPDsP2Pw3aR9CyGQ/8CJP8iKAJdUYNGif3m6fSqTCn30wa9Rf7ifqf8iod+TQMmiTdIoqj4juVtrFVIyWYufogzj8SVrRtmyxPoK5rxnOuRGvVY1U/ViW/kFoA44nOSetMNPpuKAHwLkmtKCP5RVawhMm8+hFbENvhRxQAgG0D6UuafMux9voBUdAC5ozSUUALRSUUALRSZpc0AFFFFABRRRQAUUUUAFFFFABRRUkMMlxMkMKF5JGCqo6kmgDb8IaZ9v1gTOP3Vrhzx1b+Ef1/CvQmTNVtE0hdH0uO2HzSfflYDqx6/wCH4Vf20ElYpScirBSmmOgCLdTt1KY6bsoAXNKKjINGSKAJgaXdUIel3UATbqC3FRbqC3FAGF8Rnx4c0JP70lw36qK88rvPiQ/+g6BF6Qyv+b//AFq4OgoKKKM0AFJmiigAoopCaAFpM0maKAFzSZpM0maAFzRmm5pM0ATrJtQD3qUXFUZHwBTRLxQBoGfCH6VfsJsRH3I/kK58zZU1qWMn7rg+h/QUAP8AEkpbRyM9ZFrkgD1FdHrr50wf9dFrnc0AKJZV6Ow/GrtkmoXshS0iedhyVRMn9Kpg16b8H/EGk6HrZfWEjKsR97uM9KmTsrnHja8sPQlVhG7XT/htdNzgZJ7mCRkmh2spwQcg5oW+yfmVh+tdn8XtT0jVvGElzoscaROmW8rpnJ/XGK8+3Fehoi7q5eFrOvRjUatc0TdqRz+tehQzhLKGMfwoq/kK8tDksAQOTXoXm4wM9Ko6CK4uN19Kc+gpEmBNZklzm7mP+2f509JqBm7bygKxrjPE8pk1B8n/AJaEf98gCujhn+QD3rk9affeA/3tzfmxoAz413Nj2pxjx2qS0XJc+gxUzLxQBp6DZ77NnI6yY/QVvR2GQMA0/wAO2WzRoCw5fL/meP0xXS2diHxxz2oA8/1H5b+Vf7pA/ICq2am1GQSalcMvQysR9Mmq2aAJM0ZpmaXNAD80ZpmaXNAD6KbmjNAElFFFABRRRQAUUUUAFFFWtO0261W8S1sYjLI3p0UepPYUAVo43lkWOJWd2OFVRkk+mK9M8J+Ev7JjF5fqDeuOF6+UPT61o+GvCFroSCV9txekfNKRwvso7fXr/KuiEee1AimYfaozDWgY6TyaBGcYaYY/atIw0xoaAM4x00x1eaGo2ixQBSMdMaOrhjphSgCmY6btIq2UphSgCvSMeKnKVFImAaAOU+I7f6bo6dhpqN+bvXGV2HxIb/if2Mf/ADy02BT+p/rXH0FCUUtFACUZoNIaADNJRSE0ABNJmikNABmkzQaSgAzSE0UhoAjnPyg1X8zFWH5UiqbdaAJN9aOnzfKQf7orH3VPazeXKvp0oA0tXO/TX9ip/WsGtqZhNbSIf4lIFYYb1oAfmnpIVOQcGot1OXlgCcA0APaQtmm5pZE2EfMDmm5oAcpww+tduZOa4Y11qTbo0b1ANAGe0n+kTf75/nUizYqlK+26mH+2f50iyelAGslyQo+tYOotuuF/3B/M1eWQ7ao3qlrqMLyWQAfmaAJLSI/Zs4+8c1L5RPGMmriwhI1XsoxViyhDXkZIyFO4/hQB1lkBFDFEOiIF/IYrXa8FnplxcjrFGzj6gcVgwPz1pNdvvI0F48/NOwQfQcn+WPxoA4tj8x5zzSZpuaM0APzS5pmaWgB+aXNMzS5oAfmjNNzS5oAnooooAKKKKACiinJGX9hQA0DPSvYPCGn2un+HrZrYAvcRrLLJ3cnt+GcV5OIeK6Dw54qn0L/R5lM9mWztzynqRQI9ZTFTKKydM1mx1WMNZzqxP8BOGH4d/qK1EagRKEzS+XSo1SjBoGQGKmmGrYWl8ugDPaGomhrTMVRtDQIy2i9qiaGtRoKiaD2oAymixUZT2rTaCoGgoAoFaidM8etXnhot7bzL6FT93eC30Byf0FAHm/xIlD+OLtF6QpHF+SCuVq/rl6dS16/vD/y3uHcewLHA/KqFBQUUUUAJTacaQ0AJSGnU00AJSGlNIaAG0hpxFJQA2kNOIppFAEbmqMjYY1ecVWmi3dOtAFTfnoacr4NQtEyNRuoAurckdTVeYfOWXo36VF5nqKBIR70ALRnHSm7vSjd7UATM+5aaGpm4Uv40AO3Vv2Vzvs4/UDafwrnqt2Vx5YKE8HkUAWLpv9Mf3Oaar80y4k3uGHpg0wPQBbV6eADcRSt0RcD3Of8A69VA9WJf+PRXU9Dz/n8KALn2jNaemD5TIf4jgVzVuXnmWNM8nk+grqbVQqBV6DgUAa0AJxisbxNdhriO2U8RL83+8ef5YrZjlS1tpJ5eFjXP19BXFXNw9xdSSynLuxLH3oATNLTAadQAtLSUtAC0tJS0ALS0gpaALFFFFABmmk0E1GWoAfvAPNWY5AcY5rMaT5jmpI5+KBGr5vrilBVqorNmpEfNAF6IyQvvt5GRuvB711Gl+O9Rs2VL9Rcx9Cx6j3z1/nXHI7KevFWEm9eaAPWtM8Y6XqCnMwt3HVZOn59vxxXRRSq6K6sGVhkMDkEV4MSjEMpKsOhBxir+n65qultm0uX2jnbn/IP4g0Ae4q4qVSDXmum/EoBlTU7bGerp8pH9D+lddYeKNLv8CK7VGPRZflz9CeD+BoA3sA0FM1CkwIBByPWplkzQA0xCmNF7VYBBpSAaAKLQCoHg9q0ilRtHQBkPBWT4hvxovh+9vOknlmKIf7bcZ/DJNdLMqRoXkIVR1NePePfEa6tqK2do+bW2Jzjo7+v4dPxNAHI0UUUDEopaSgApMUtFADcUU6jFADMUmKfikxQAzFJipMUmKAI8UhFSYpMUAQstRslWStNK0AU3iDdRVd7UHpWkUppjoAyvspzTTbHtWoY6YYqAMswOKaUYdq1DFTTDntQBl4IorRa3B7VGbUelAFLNKHIqybT0qM2rDpQAnnEjBFOV89KjMLjtTeQfegCyHq7bESwPG54xj6e/51liTHWp4LgK/wBetAG3p9p9nHPLnqa3bVOlYNrfeWoyPMXtU1xq0hj2qPKX26mgCxruqB0FtAQY0PJH8Tf/AFqwQaHYytk9OwpQtAEimpRUaLUwFACYpaXFLigBMUoFLilxQAlFLiloAmoNLSGgCNqhfPOKsMKiZaAKRPzc8H0oBIqd4w3UZqFoiPunPsaBD1mI61PHcAcVT6dRg0ooA0hMT0xUqyVlq5HepkuPU0AaSOe1TpK1ZyT+lWEmoAv/AHhzzSKpjbdEzI3qpxVdZcVMsmaANSx13VdObNtdOo7qCQD+A4/Sugs/iRqMDD7VCkyd8rg/mMfyrjt2afjigD0y3+JmnsB51tIh77WB/mBWjF8QtDcfNJMn1QH+RNeQ4pdoPUUAewv8QNBVciaVj6CPH8zVC4+JOnrGxtoHY44Ln+i5/mK8twq0ySUAcnAFAG54j8b6lq8DRIWt4iCD2Jz2AHT8yfeuNU8YParE84c88L2qs/ynNAD80UwNTgaBi0UUtACUYpaKAEpKdSUAJRS0YoASkxTqKAG4pMU6igBuKTFPooAj20m2pcUYoAh2UhSpsUYoArmOjy6sYo20AVvLppiq3tpClAFMxUnlVbKUhSgCqIc9qhn08tytaAXFPoAwmsZh2zTPssoP+rBrfIFNKCgDKgt5FOSSvsDirAh9eaubKNlAFYRU4R1Y2Uu2gCFUqQLT9tLigBmKMU/FGKAG4oxT8UYoAbijFOxS4oAdRRRQAmKaRT6KAISlRlKskU0rQBVKVGY8fd4q2UppSgCmQV6j8aPcdKslKYY+uOCfSgBisR0qSOYg80zaR1GfcUmM5wc0CLa3HvU6XNZnNPViMUAbUcoPerCyCsSKcirK3JoA1d4prSgVnG6PamGVm70AXXnFc9q+oXKXRjjcom0YArTBrI1aLfcIw7qR+tAygJneZTI7Nz3NdIxDIPcZrBisJ3OUQt9BW6qlI1VuoUA0AQ7sGpFeopSA3XmkVqALIOadmolNSA0AOooooAKKKKACiiigAooooAKKKKAEoxS0UAJijFLRQAmKKWigBKMUtFACUYpaKAG4oxTqKAG4oxTqKAG4oxTqKAG4oxTqKAG4oxS4oxQAmKKXFFACUUuKWgBKSnUUANop1FABRRRQAUUUUAFFFFACYpCKdRQAwrTSlS0mKAISlMaIHrVnFJtoApmJh05+tN4HDZX61dK00pQBXQA9DU4GKa1uh5KjPrSeQB0LD/gRoAkpRxUXlf7Tf99UhhB67j9SaAJy6r1IFRi4iXOdpOeOM1GIVHRQPwpfLoAc12T9xWP14FQu8kn3jtHovFSeXR5dAEIXHSnqKk2U8JQAiCpRSBacBQAtFFFABRRRQAUUUUAFFFFABRRRQAUUUUAFFFFABRRRQAUUUUAFFFFABRRRQAUUUUAFFFFABRRRQAUUUUAFFFFABRRRQAUUUUAFFFFABRRRQAUUUUAFFFFABRRRQAUUUUAFFFFABRiiigBMUYpaKAE20m2nUUAN20badRQA3bRtp1FADdtLilooAMUUUUAFFFFABRRRQAUUUUAFFFFABRRRQAUUUUAFFFFABRRRQAUUUUAFFFFABRRRQAUUUUAFFFFABRRRQAUUUUAFFFFABRRRQAUUUUAFFFLQAUUUUAFFFFABRRRQAUUUUAFFFFABRRRQAUUUUAFFFFABRRRQAUUUUAFFFFABRRRQAUUUUAFFFFABRRRQAUUUUAFFFFABRRRQAUUUUAFFFFABRRRQAUUUUAFFFFABRRRQAUUUUAFFFFABRRRQAUUUUAFFFFABRRRQAUUUUAFFFFAH/9k=;" vertex="1" parent="1">
          <mxGeometry x="410" y="114" width="312.67" height="458" as="geometry" />
        </mxCell>
        <mxCell id="qs4FXXVYRaF119wpGoub-259" value="" style="shape=image;imageAspect=0;aspect=fixed;verticalLabelPosition=bottom;verticalAlign=top;labelBackgroundColor=#1A1A1A;sketch=0;fontSize=22;fontColor=#FFFFFF;strokeWidth=1;fillColor=none;image=data:image/jpeg,/9j/4AAQSkZJRgABAQEAYABgAAD/4RDaRXhpZgAATU0AKgAAAAgABAE7AAIAAAAFAAAISodpAAQAAAABAAAIUJydAAEAAAAKAAAQyOocAAcAAAgMAAAAPgAAAAAc6gAAAAgAAAAAAAAAAAAAAAAAAAAAAAAAAAAAAAAAAAAAAAAAAAAAAAAAAAAAAAAAAAAAAAAAAAAAAAAAAAAAAAAAAAAAAAAAAAAAAAAAAAAAAAAAAAAAAAAAAAAAAAAAAAAAAAAAAAAAAAAAAAAAAAAAAAAAAAAAAAAAAAAAAAAAAAAAAAAAAAAAAAAAAAAAAAAAAAAAAAAAAAAAAAAAAAAAAAAAAAAAAAAAAAAAAAAAAAAAAAAAAAAAAAAAAAAAAAAAAAAAAAAAAAAAAAAAAAAAAAAAAAAAAAAAAAAAAAAAAAAAAAAAAAAAAAAAAAAAAAAAAAAAAAAAAAAAAAAAAAAAAAAAAAAAAAAAAAAAAAAAAAAAAAAAAAAAAAAAAAAAAAAAAAAAAAAAAAAAAAAAAAAAAAAAAAAAAAAAAAAAAAAAAAAAAAAAAAAAAAAAAAAAAAAAAAAAAAAAAAAAAAAAAAAAAAAAAAAAAAAAAAAAAAAAAAAAAAAAAAAAAAAAAAAAAAAAAAAAAAAAAAAAAAAAAAAAAAAAAAAAAAAAAAAAAAAAAAAAAAAAAAAAAAAAAAAAAAAAAAAAAAAAAAAAAAAAAAAAAAAAAAAAAAAAAAAAAAAAAAAAAAAAAAAAAAAAAAAAAAAAAAAAAAAAAAAAAAAAAAAAAAAAAAAAAAAAAAAAAAAAAAAAAAAAAAAAAAAAAAAAAAAAAAAAAAAAAAAAAAAAAAAAAAAAAAAAAAAAAAAAAAAAAAAAAAAAAAAAAAAAAAAAAAAAAAAAAAAAAAAAAAAAAAAAAAAAAAAAAAAAAAAAAAAAAAAAAAAAAAAAAAAAAAAAAAAAAAAAAAAAAAAAAAAAAAAAAAAAAAAAAAAAAAAAAAAAAAAAAAAAAAAAAAAAAAAAAAAAAAAAAAAAAAAAAAAAAAAAAAAAAAAAAAAAAAAAAAAAAAAAAAAAAAAAAAAAAAAAAAAAAAAAAAAAAAAAAAAAAAAAAAAAAAAAAAAAAAAAAAAAAAAAAAAAAAAAAAAAAAAAAAAAAAAAAAAAAAAAAAAAAAAAAAAAAAAAAAAAAAAAAAAAAAAAAAAAAAAAAAAAAAAAAAAAAAAAAAAAAAAAAAAAAAAAAAAAAAAAAAAAAAAAAAAAAAAAAAAAAAAAAAAAAAAAAAAAAAAAAAAAAAAAAAAAAAAAAAAAAAAAAAAAAAAAAAAAAAAAAAAAAAAAAAAAAAAAAAAAAAAAAAAAAAAAAAAAAAAAAAAAAAAAAAAAAAAAAAAAAAAAAAAAAAAAAAAAAAAAAAAAAAAAAAAAAAAAAAAAAAAAAAAAAAAAAAAAAAAAAAAAAAAAAAAAAAAAAAAAAAAAAAAAAAAAAAAAAAAAAAAAAAAAAAAAAAAAAAAAAAAAAAAAAAAAAAAAAAAAAAAAAAAAAAAAAAAAAAAAAAAAAAAAAAAAAAAAAAAAAAAAAAAAAAAAAAAAAAAAAAAAAAAAAAAAAAAAAAAAAAAAAAAAAAAAAAAAAAAAAAAAAAAAAAAAAAAAAAAAAAAAAAAAAAAAAAAAAAAAAAAAAAAAAAAAAAAAAAAAAAAAAAAAAAAAAAAAAAAAAAAAAAAAAAAAAAAAAAAAAAAAAAAAAAAAAAAAAAAAAAAAAAAAAAAAAAAAAAAAAAAAAAAAAAAAAAAAAAAAAAAAAAAAAAAAAAAAAAAAAAAAAAAAAAAAAAAAAAAAAAAAAAAAAAAAAAAAAAAAAAAAAAAAAAAAAAAAAAAAAAAAAAAAAAAAAAAAAAAAAAAAAAAAAAAAAAAAAAAAAAAAAAAAAAAAAAAAAAAAAAAAAAAAAAAAAAAAAAAAAAAAAAAAAAAAAAAAAAAAAAAAAAAAAAAAAAAAAAAAAAAAAAAAAAAAAAAAAAAAAAAAAAAAAAAAAAAAAAAAAAAAAAAAAAAAAAAAAAAAAAAAAAAAAAAAAAAAAAAAAAAAAAAAAAAAAAAAAAAAAAAAAAAAAAAAAAAAAAAAAAAAAAAAAAAAAAAAAAAAAAAAAAAAAAAAAAAAAAAAAAAAAAAAAAAAAAAAAAAAAAAAAAAAAAAAAAAAAAAAAAAAAAAAAAAAAAAAAAAAAAAAAAAAAAAAAAAAAAAAAAAAAAAAAAAAAAAAAAAAAAAAAAAAAAAAAAAAAAAAAAAAAAAAAAAAAAAAAAAAAAAAAAAAAAAAAAAAAAAAAAAAAAAAAAAAAAAAAAAAAAAAAAAAAAAAAAAAAAAAAAAAAAAAAAAAAAAAAAAAAAAAAAAAAAAAAAAAAAAAAAAAAAAAAAAAAAAAAAAAAAAAAAAAAAAAAAAAAAAAAAAAAAAAAAAAAAAAAAAAAAAAAAAAAAAAAAAAAAAAAAAAAAAAAAAAAAAAAAAAAAAAAAAAAAAAAAAAAAAAAAAAAAAAAAAAAAAAAAAAAAAAAAAAAAAAAAAAAAAAAAAAAAAAAAAAAAAAAAAAAAAAAAAAAAAAAAAAAAAAAAAAAAAAAAAAAAAAAAAAAAAAAAAAAAAAAAAAAAAAAAAAAAAAAAAAAAAAAAAAAAAAAAAAAAAAAAAAAAAAAAAAAAAAAAAAAAAAAAAAAAAAAAAAAAAAAAAAAAAAAAAAAAAAAAAAAAAAAAAAAAAAAAAAAAAAAAAAAAAAAAAAAAAAAAAAAAAAAAAAAAAAAAAAAAAAAAAAAAAAAAAAAAAAAAAAAAAAAAAAAAAAAAAAAAAAAAAAAAAAAAAAAAAAAAAAAAAAAAAAAAAAAAAAAAAAAAAAAAAAAAAAAHJpY2sAAAAFkAMAAgAAABQAABCekAQAAgAAABQAABCykpEAAgAAAAM0OQAAkpIAAgAAAAM0OQAA6hwABwAACAwAAAiSAAAAABzqAAAACAAAAAAAAAAAAAAAAAAAAAAAAAAAAAAAAAAAAAAAAAAAAAAAAAAAAAAAAAAAAAAAAAAAAAAAAAAAAAAAAAAAAAAAAAAAAAAAAAAAAAAAAAAAAAAAAAAAAAAAAAAAAAAAAAAAAAAAAAAAAAAAAAAAAAAAAAAAAAAAAAAAAAAAAAAAAAAAAAAAAAAAAAAAAAAAAAAAAAAAAAAAAAAAAAAAAAAAAAAAAAAAAAAAAAAAAAAAAAAAAAAAAAAAAAAAAAAAAAAAAAAAAAAAAAAAAAAAAAAAAAAAAAAAAAAAAAAAAAAAAAAAAAAAAAAAAAAAAAAAAAAAAAAAAAAAAAAAAAAAAAAAAAAAAAAAAAAAAAAAAAAAAAAAAAAAAAAAAAAAAAAAAAAAAAAAAAAAAAAAAAAAAAAAAAAAAAAAAAAAAAAAAAAAAAAAAAAAAAAAAAAAAAAAAAAAAAAAAAAAAAAAAAAAAAAAAAAAAAAAAAAAAAAAAAAAAAAAAAAAAAAAAAAAAAAAAAAAAAAAAAAAAAAAAAAAAAAAAAAAAAAAAAAAAAAAAAAAAAAAAAAAAAAAAAAAAAAAAAAAAAAAAAAAAAAAAAAAAAAAAAAAAAAAAAAAAAAAAAAAAAAAAAAAAAAAAAAAAAAAAAAAAAAAAAAAAAAAAAAAAAAAAAAAAAAAAAAAAAAAAAAAAAAAAAAAAAAAAAAAAAAAAAAAAAAAAAAAAAAAAAAAAAAAAAAAAAAAAAAAAAAAAAAAAAAAAAAAAAAAAAAAAAAAAAAAAAAAAAAAAAAAAAAAAAAAAAAAAAAAAAAAAAAAAAAAAAAAAAAAAAAAAAAAAAAAAAAAAAAAAAAAAAAAAAAAAAAAAAAAAAAAAAAAAAAAAAAAAAAAAAAAAAAAAAAAAAAAAAAAAAAAAAAAAAAAAAAAAAAAAAAAAAAAAAAAAAAAAAAAAAAAAAAAAAAAAAAAAAAAAAAAAAAAAAAAAAAAAAAAAAAAAAAAAAAAAAAAAAAAAAAAAAAAAAAAAAAAAAAAAAAAAAAAAAAAAAAAAAAAAAAAAAAAAAAAAAAAAAAAAAAAAAAAAAAAAAAAAAAAAAAAAAAAAAAAAAAAAAAAAAAAAAAAAAAAAAAAAAAAAAAAAAAAAAAAAAAAAAAAAAAAAAAAAAAAAAAAAAAAAAAAAAAAAAAAAAAAAAAAAAAAAAAAAAAAAAAAAAAAAAAAAAAAAAAAAAAAAAAAAAAAAAAAAAAAAAAAAAAAAAAAAAAAAAAAAAAAAAAAAAAAAAAAAAAAAAAAAAAAAAAAAAAAAAAAAAAAAAAAAAAAAAAAAAAAAAAAAAAAAAAAAAAAAAAAAAAAAAAAAAAAAAAAAAAAAAAAAAAAAAAAAAAAAAAAAAAAAAAAAAAAAAAAAAAAAAAAAAAAAAAAAAAAAAAAAAAAAAAAAAAAAAAAAAAAAAAAAAAAAAAAAAAAAAAAAAAAAAAAAAAAAAAAAAAAAAAAAAAAAAAAAAAAAAAAAAAAAAAAAAAAAAAAAAAAAAAAAAAAAAAAAAAAAAAAAAAAAAAAAAAAAAAAAAAAAAAAAAAAAAAAAAAAAAAAAAAAAAAAAAAAAAAAAAAAAAAAAAAAAAAAAAAAAAAAAAAAAAAAAAAAAAAAAAAAAAAAAAAAAAAAAAAAAAAAAAAAAAAAAAAAAAAAAAAAAAAAAAAAAAAAAAAAAAAAAAAAAAAAAAAAAAAAAAAAAAAAAAAAAAAAAAAAAAAAAAAAAAAAAAAAAAAAAAAAAAAAAAAAAAAAAAAAAAAAAAAAAAAAAAAAAAAAAAAAAAAAAAAAAAAAAAAAAAAAAAAAAAAAAAAAAAAAAAAAAAAAAAAAAAAAAAAAAAAAAAAAAAAAAAAAAAAAAAAAAAAAAAAAAAAAAAAAAAAAAAAAAAAAAAAAAAAAAAAAAAAAAAAAAAAAAAAAAAAAAAAAAAAAAAAAAAAAAAAAAAAAAAAAAAAAAAAAAAAAAAAAAAAAAAAAAAAAAAAAAAAAAAAAAAAAAAAAAAAAAAAAAAAAAAAAAAAAAAAAAAAAAAAAAAAAAAAAAAAAAAAAAAAAAAAAAAAAAAAAAAAAAAAAAAAAAAAAAAAAAAAAAAAAAAAAAAAAAAAAAAAAAAAAAAAAAAAAAAAAAAAAAAAAAAAAAAAAAAAAAAAAAAAAAAAAAAAAAAAAAAAAAAAAAAAAAAAAAAAAAAAAAAAAAAAAAAAAAAAAAAAAAAAAAAAAAAAAAAAAAAAAAAAAAAAAAAAAAAAAAAAAAAAAAAAAAAAAAAAAAAAAAAAAAAAAAAAAAAAAAAAAAAAAAAAAAAAAAAAAAAAAAAAAAAAAAAAAAAAAAAAAAAAAAAAAAAAAAAAAAAAAAAAAAAAAAAAAAAAAAAAAAAAAAAAAAAAAAAAAAAAAAAAAAAAAAAAAAAAAAAAAAAAAAAAAAAAAAAAAAAAAAAAAAAAAAAAAAAAAAAAAAAAAAAAAAAAAAAAAAAAAAAAAAAAAAAAAAAAAAAAAAAAAAAAAAAAAAAAAAAAAAAAAAAAAAAAAAAAAAAAAAAAAAAAAAAAAAAAAAAAAAAAAAAAAAAAAAAAAAAAAAAAAAAAAAAAAAAAAAAAAAAAAAAAAAAAAAAAAAAAAAAAAAAAAAAAAAAAAAAAAAAAAAAAAAAAAAAAAAAAAAAAAAAAAAAAAAAAAAAAAAAAAAAAAAAAAAAAAAAAAAAAAAAAAAAAAAAAAAAAAAAAAAAAAAAAAAAAAAAAAAAAAMjAyMjowNzoxNyAxMTozNjo0MwAyMDIyOjA3OjE3IDExOjM2OjQzAAAAcgBpAGMAawAAAP/hCxdodHRwOi8vbnMuYWRvYmUuY29tL3hhcC8xLjAvADw/eHBhY2tldCBiZWdpbj0n77u/JyBpZD0nVzVNME1wQ2VoaUh6cmVTek5UY3prYzlkJz8+DQo8eDp4bXBtZXRhIHhtbG5zOng9ImFkb2JlOm5zOm1ldGEvIj48cmRmOlJERiB4bWxuczpyZGY9Imh0dHA6Ly93d3cudzMub3JnLzE5OTkvMDIvMjItcmRmLXN5bnRheC1ucyMiPjxyZGY6RGVzY3JpcHRpb24gcmRmOmFib3V0PSJ1dWlkOmZhZjViZGQ1LWJhM2QtMTFkYS1hZDMxLWQzM2Q3NTE4MmYxYiIgeG1sbnM6ZGM9Imh0dHA6Ly9wdXJsLm9yZy9kYy9lbGVtZW50cy8xLjEvIi8+PHJkZjpEZXNjcmlwdGlvbiByZGY6YWJvdXQ9InV1aWQ6ZmFmNWJkZDUtYmEzZC0xMWRhLWFkMzEtZDMzZDc1MTgyZjFiIiB4bWxuczp4bXA9Imh0dHA6Ly9ucy5hZG9iZS5jb20veGFwLzEuMC8iPjx4bXA6Q3JlYXRlRGF0ZT4yMDIyLTA3LTE3VDExOjM2OjQzLjQ5MzwveG1wOkNyZWF0ZURhdGU+PC9yZGY6RGVzY3JpcHRpb24+PHJkZjpEZXNjcmlwdGlvbiByZGY6YWJvdXQ9InV1aWQ6ZmFmNWJkZDUtYmEzZC0xMWRhLWFkMzEtZDMzZDc1MTgyZjFiIiB4bWxuczpkYz0iaHR0cDovL3B1cmwub3JnL2RjL2VsZW1lbnRzLzEuMS8iPjxkYzpjcmVhdG9yPjxyZGY6U2VxIHhtbG5zOnJkZj0iaHR0cDovL3d3dy53My5vcmcvMTk5OS8wMi8yMi1yZGYtc3ludGF4LW5zIyI+PHJkZjpsaT5yaWNrPC9yZGY6bGk+PC9yZGY6U2VxPg0KCQkJPC9kYzpjcmVhdG9yPjwvcmRmOkRlc2NyaXB0aW9uPjwvcmRmOlJERj48L3g6eG1wbWV0YT4NCiAgICAgICAgICAgICAgICAgICAgICAgICAgICAgICAgICAgICAgICAgICAgICAgICAgICAgICAgICAgICAgICAgICAgICAgICAgICAgICAgICAgICAgICAgICAgICAgICAgICAKICAgICAgICAgICAgICAgICAgICAgICAgICAgICAgICAgICAgICAgICAgICAgICAgICAgICAgICAgICAgICAgICAgICAgICAgICAgICAgICAgICAgICAgICAgICAgICAgICAgIAogICAgICAgICAgICAgICAgICAgICAgICAgICAgICAgICAgICAgICAgICAgICAgICAgICAgICAgICAgICAgICAgICAgICAgICAgICAgICAgICAgICAgICAgICAgICAgICAgICAgCiAgICAgICAgICAgICAgICAgICAgICAgICAgICAgICAgICAgICAgICAgICAgICAgICAgICAgICAgICAgICAgICAgICAgICAgICAgICAgICAgICAgICAgICAgICAgICAgICAgICAKICAgICAgICAgICAgICAgICAgICAgICAgICAgICAgICAgICAgICAgICAgICAgICAgICAgICAgICAgICAgICAgICAgICAgICAgICAgICAgICAgICAgICAgICAgICAgICAgICAgIAogICAgICAgICAgICAgICAgICAgICAgICAgICAgICAgICAgICAgICAgICAgICAgICAgICAgICAgICAgICAgICAgICAgICAgICAgICAgICAgICAgICAgICAgICAgICAgICAgICAgCiAgICAgICAgICAgICAgICAgICAgICAgICAgICAgICAgICAgICAgICAgICAgICAgICAgICAgICAgICAgICAgICAgICAgICAgICAgICAgICAgICAgICAgICAgICAgICAgICAgICAKICAgICAgICAgICAgICAgICAgICAgICAgICAgICAgICAgICAgICAgICAgICAgICAgICAgICAgICAgICAgICAgICAgICAgICAgICAgICAgICAgICAgICAgICAgICAgICAgICAgIAogICAgICAgICAgICAgICAgICAgICAgICAgICAgICAgICAgICAgICAgICAgICAgICAgICAgICAgICAgICAgICAgICAgICAgICAgICAgICAgICAgICAgICAgICAgICAgICAgICAgCiAgICAgICAgICAgICAgICAgICAgICAgICAgICAgICAgICAgICAgICAgICAgICAgICAgICAgICAgICAgICAgICAgICAgICAgICAgICAgICAgICAgICAgICAgICAgICAgICAgICAKICAgICAgICAgICAgICAgICAgICAgICAgICAgICAgICAgICAgICAgICAgICAgICAgICAgICAgICAgICAgICAgICAgICAgICAgICAgICAgICAgICAgICAgICAgICAgICAgICAgIAogICAgICAgICAgICAgICAgICAgICAgICAgICAgICAgICAgICAgICAgICAgICAgICAgICAgICAgICAgICAgICAgICAgICAgICAgICAgICAgICAgICAgICAgICAgICAgICAgICAgCiAgICAgICAgICAgICAgICAgICAgICAgICAgICAgICAgICAgICAgICAgICAgICAgICAgICAgICAgICAgICAgICAgICAgICAgICAgICAgICAgICAgICAgICAgICAgICAgICAgICAKICAgICAgICAgICAgICAgICAgICAgICAgICAgICAgICAgICAgICAgICAgICAgICAgICAgICAgICAgICAgICAgICAgICAgICAgICAgICAgICAgICAgICAgICAgICAgICAgICAgIAogICAgICAgICAgICAgICAgICAgICAgICAgICAgICAgICAgICAgICAgICAgICAgICAgICAgICAgICAgICAgICAgICAgICAgICAgICAgICAgICAgICAgICAgICAgICAgICAgICAgCiAgICAgICAgICAgICAgICAgICAgICAgICAgICAgICAgICAgICAgICAgICAgICAgICAgICAgICAgICAgICAgICAgICAgICAgICAgICAgICAgICAgICAgICAgICAgICAgICAgICAKICAgICAgICAgICAgICAgICAgICAgICAgICAgICAgICAgICAgICAgICAgICAgICAgICAgICAgICAgICAgICAgICAgICAgICAgICAgICAgICAgICAgICAgICAgICAgICAgICAgIAogICAgICAgICAgICAgICAgICAgICAgICAgICAgICAgICAgICAgICAgICAgICAgICAgICAgICAgICAgICAgICAgICAgICAgICAgICAgICAgICAgICAgICAgICAgICAgICAgICAgCiAgICAgICAgICAgICAgICAgICAgICAgICAgICAgICAgICAgICAgICAgICAgICAgICAgICAgICAgICAgICAgICAgICAgICAgICAgICAgICAgICAgICAgICAgICAgICAgICAgICAKICAgICAgICAgICAgICAgICAgICAgICAgICAgICAgICAgICAgICAgICAgICAgICAgICAgICAgICAgICAgICAgICAgICAgICAgICAgICAgICAgICAgICAgICAgICAgICAgICAgIAogICAgICAgICAgICAgICAgICAgICAgICAgICAgPD94cGFja2V0IGVuZD0ndyc/Pv/bAEMABwUFBgUEBwYFBggHBwgKEQsKCQkKFQ8QDBEYFRoZGBUYFxseJyEbHSUdFxgiLiIlKCkrLCsaIC8zLyoyJyorKv/bAEMBBwgICgkKFAsLFCocGBwqKioqKioqKioqKioqKioqKioqKioqKioqKioqKioqKioqKioqKioqKioqKioqKioqKv/AABEIAXcBLAMBIgACEQEDEQH/xAAfAAABBQEBAQEBAQAAAAAAAAAAAQIDBAUGBwgJCgv/xAC1EAACAQMDAgQDBQUEBAAAAX0BAgMABBEFEiExQQYTUWEHInEUMoGRoQgjQrHBFVLR8CQzYnKCCQoWFxgZGiUmJygpKjQ1Njc4OTpDREVGR0hJSlNUVVZXWFlaY2RlZmdoaWpzdHV2d3h5eoOEhYaHiImKkpOUlZaXmJmaoqOkpaanqKmqsrO0tba3uLm6wsPExcbHyMnK0tPU1dbX2Nna4eLj5OXm5+jp6vHy8/T19vf4+fr/xAAfAQADAQEBAQEBAQEBAAAAAAAAAQIDBAUGBwgJCgv/xAC1EQACAQIEBAMEBwUEBAABAncAAQIDEQQFITEGEkFRB2FxEyIygQgUQpGhscEJIzNS8BVictEKFiQ04SXxFxgZGiYnKCkqNTY3ODk6Q0RFRkdISUpTVFVWV1hZWmNkZWZnaGlqc3R1dnd4eXqCg4SFhoeIiYqSk5SVlpeYmZqio6Slpqeoqaqys7S1tre4ubrCw8TFxsfIycrS09TV1tfY2dri4+Tl5ufo6ery8/T19vf4+fr/2gAMAwEAAhEDEQA/AOgdKrOtX3XFVpE71iUUnXNV3SrrrUDrTApOlVZYM8rwavutQsMUgKHlnODXI+MExqsP/XAf+hGu0nXgkHBFcL4smL6lFnJ/cgc/U1S3EZ9tpl3dWdzd29tJJBahTPIq5EYJwM+lJdWNxYz+TdwvFJtV9rDBwwBB/EEGuk8HeI7bQtD1hLoq/wBqkt0e3P8Ay2iywkH5H+VdmmueEzq988moWs9tII4R5sYy0a2yoDkqSfmHQYwRnNWB5Pa2s15dJbW0bSTSEKiKOSajKlc5BGODxXoeneIfDyLoU8pt1ubiaFdQBiGIlhDLnp/HlSfpWtbppsvg1pm+zwWA06LIe1/eLL9oXe+7HIIz35FAHlUNtNcFxBDJIY0MjbVztUdSfalubWezm8m5iaOTarbWHZgCD+RBr1O88S6DHLjT72zjnlsry3aUIuDkqYs4UD1+nTJqnD4m8P219b+W1k0ct5ZLOXgVsQi2VZeo4G4HPvSA8yycdOKkaGdbdLhonEMjFUfacMRjIB/EfnXqE8dk/gS9ltI7ZLNNKPlo9viTzvOwXDkcgjpz/Ksjw14g0xPD2j2upXVsrWtxdYSaMMI3eMeVIRjlQ2c/hQBwkcc08yQxI7yOwVUVckk9BikkSWJ2SRGVlO1gRjB9K7HUdasLfx9oN9BcW8jWot/t9zBGBHJIG+dgMf3cdu1b02seHm0XVI7q9srmefz5FIjUHzPNBTHy5PyjrkDtigZ5d83oaArMwAGSTgcd69f0a+sdb8RaidPjsliTVIEjkNmGje1y2UGBwSTnJ/pWdea94etNAmitFs/Pjkk3IwG8SiclXUbDkbcd8Y4oCx53JBLayNDcRtFKhwyMMFT9KjQV1vipLTWfE1/qMerWjRzyu0eAR8oUFeg6np9RXN3NslrcGOK4juF2qd8eccjOOfTpTEVJRgZ9Kj8we9TuOuRmofl3fcxSBDfMH92tKyt4pbcO6ZJNVo2CgjyQcitCyH+jjjHJrjxcnGndH0vDlKnVxjU4pqz31HjT4yhcQkqOpAOBTfscB/5Z/qa7KDUoh4ZtobbVI7NIbeVLm2KbmndicHGMHIIGe2Ks3Mnhe3sUaFLaaeOCXA+bDtsTYSM9d26uG0mr8/4n1spUISaeGT1tpFfjocJ9ig/55/qaPsEByfKyB15PFdvdN4a8m4NsLYI0p3hi+8KVTaI8f7W/r7U7Wbzw/FY6jDpHloZrcImwk7wJ0K5z0O0HNHLL+f8AEPaYdtJYbf8Auo89vbSGK2Z0Taw967X4eJnRnYE/6w1x+pf8eTfh/Ou1+G6A6E5/6aH+ldmFk3T17nyfElKnSxaVOKSsttO52aJ+5/CnQRfKPpVhI/3H4VJbx8fgK7D5kpTab/aDfZywXKk5J9KzLnQ3tgUCxvjuc5/nWtqcUTRYnl8pMfex3rGgtoXu0X+0GWMnDOc/LUzeppHY09P8NTx2a389mk0WcBS2M1Xntw0zFdPVRnoH4H6VLfyraA29lr8ssI6KpOKy1QuMvezZ/GouM6GRcVXYVddeKrOtWZlORagdauutVpFoEU3Wq7rVx1qB1oGUpFyCK8+8VoV1SP08ofzNejOtYl7bQTSfv4lcr03LnFJuzuWlc84xS4rvhY2n/PlGfpHSjTrY/wDLjH/3yKXtEPkOAqU3U5txbmeQwg5EZc7Qfp0ruv7Ntj/y6Q/98ik/su3P/LtCP+ACj2qHyHA0V339k2veCP8ABBTf7JtTIcwR4H+wKXtUHIcQbu4Nv9nM8nk5z5e87c/TpUNegDSbH/n2j/75pf7Ksh0tYv8AvgUe1Qch5/n3pMivQf7Msv8An1i/74FH9m2f/PrF/wB8Cj2qDkODhu57fd9nmki3DDbGK5HocVFmvQf7Ns/+fWL/AL4FKNNss/8AHrF/3wKPaoXIcdH/AKsURjrXuNj4f0prGNjptsSVHWIelPtfD+kndnTbY/8AbIVqpGJ4W5KnI6ioXdickL+Ve5al4f0tYZtun2y/L1EQ46Vz8mh6b5QK20Of9wUpSsVFXPMEncdAtTRX/kRlWTdzng16XZeHLW7crDYRyN6LGDUOpeH7azUrNp6Rt/tRgVjNxmrSR2YXEVsLP2lGVmed/wBrr/zyP50f2uv/ADyP512Q0uy/59If++BS/wBmWX/PrF/3wKy9jR7Hp/25mP8Az8/BHGf2uP8Ankfzo/tcf88j+ddl/ZNj/wA+sX/fNH9k2P8Az6xf980exo9hf25mP/Pz8EcPdah9ogMYTGe+a9I+GiZ0F8/89TVD+yrEf8usX/fIrrvC8CR2rJEiooIwAMCtYKMVyxR5mLxNbFT9pWldnRCMC2/4DT4EwvTsKmMeLc/7tSRJ8p47D+VbnGYeu/Lbfd3cjisdHktoSfIQ7x1PatzxFiOBSxwNwrl5rkO2N7EDpUT3NI7DwHkYnYvrStPKT/CPoKg+0Jtwu6m+cvoago7ZxVeRKuOKhYA1ZkUmSq8imr7rVd0pgUHWoHTir0iVXdaAKDrWbKuJTWxInpWZOuJW+tRPY0huVttGKkxRtrE1I8UmKlxSbaBkeKaR85+lS4pmPn/CgBMUmKfijFAiPFKBT8UmKVgG4oxTsUoFMD0XTBnTIP8AcX+VTWq/M1M0kbtNgPby1/lVm2XDP/nvXQtjme5nauuLa4P+z/hXFm6IGNv613OsL/oVz/uH+lcARU1C4Fyz1WWymEkGVYdwabf6jNflmmJLN3JzVXFGM1mWMApcU7HNLigBmKMU/FLtoAZtz2rqfDKf6LIf9pf61zYSur8MJ/okn+8v9auJMtjpGT/RD/u06NMA/h/KppI/9FP+7TkT731/pWxkct4uB+yR/wC+P5GuQ2HNdr4tjzbxj/b/AKVywgz0qKm5rHYqBKNp9KuC3PpTvs/tWRR2TCoWWrLComFamJXcVXkWrTLzUUgoGUnXiq7rVxhUEi0xFJ1rNuU/fNWwy1Qni3TN9KiexpDcobaQrVvyaaYqxNioUpNtWjHUZSgCHFMI+f8ACp9mKYy/OPpQLqR4pNtS7aTFAEeKMU/FG2mK4zFGKftpcUgPRNDH/Eot/wDcH8quW6fO/wDnvVbQRnR7f/cH8qvW4+dvx/nXStkc73M/Vk/0K4/3DXnpFekaqubO4/65mvOmUluhpVOhUCMClxViO2LrnpUgsveqjh5SV0NzS0Ke2lxV5bIetSCyQ/8A660+qy7i9ojO208JWktpGOuKkW3hHXFV9VfcXtEZiofSus8Mx4s5f98fyrLCQgdRW74eUG3m29PNwPyqJ0eRA5XR0Uqf6K30p0acN9ammT/RiPp/OlRcBvrQiDl/E6bliUDPzVz62rHop/Kuo1+dIJI967s5xWN/acQ6Rmr9ipasrnsVVsnP8Bp/2GTspqc6so6RfrR/bWOkS/nT+rxF7RmywqNqmbmomFcwyBhUTrVhhUTigCo61A61bcVA4pjKjrVby8zkf7NXnXNUrq6hsHE1wcJjFS1fQqOjAw+1RmGqsniixBwAx+imqkviq3B+SJj+FSqUjXnRotDUbRVjy+Kxn5LdsVa0zVHv5EBXCupIHcEHFDi1uHMmWWj9qidMSLmtFocioJYvnT61mMqsirjd3pmxfWpL6MgpjqelSroF6w5jA+r1Vn0JuisQgppKDrj86uDw5edxHj/fFDeHrhTy0X4GnyyFdFIPH6j86Xeg7iobu1lsJ9k4GG5Rh0PtUQfPcVm209RnqHh079FgI6bBWhAP3jfj/Os7wsd3h+2/3P8AGtSAfvW/H+ddMdjB7lfUE/0Wf/cNeazN5bcivTr8ZtZsf88zXmV8uG/GlV2RUCaCb930/WpRNVW3H7qrNnfafbSSrfSIpBGFY16dCLcFYwm0mO800nmE1dGv6BHx5kf/AHzmhvFWhr90g/SOtuSfYhzRTDP/AHT+VOAmPRG/KrA8ZaSv3Vc/RKQ+NrAD5YJT+Ao9nU7B7SJGIbhh/q3/ACrqfDaFbEgjB805z9K5R/GsLfctpD+Vdh4bfz9NWXGPMlLY/AVy4mEo2uXCSZ0lwQlvhg3LADA96WNg6thSOT1qScfuef7y/wA6VB8nHqa5upZxni8H7RCBxwf51zWK6fxdxdRf7p/nXLszdhXZHYhi7TSbfWm7pf8AIpR5lVYVztTUbCpiKjYV5hsQmo2qUjFMagCs4qAirLVEwzQMrMtY3iCLfpx9QR/Ot0is7V491i49qqPxIDhzBntUbQY7VqmL2qJofauliMloDW14ej2XFsvrvH/j2f61VaLGeK0dDjK3ltn+++PyFYVFoVF6nTND7VVniGY+P4v6VrtHVS4i4T/fFcpuZGqJsSNvrVb+2rz/AJ7EVp6xH/o0Z96415pNxAz1pSuibG0+rXR63DVA+o3BGGnY/jWXvlPeo2MpY/NUajsjQlnMwAkZmweMmoDG27pt981DBvMq7ueRWwIQxwRwaQHong4H/hG7bJzwef8AgRrahX98/wCP86yPCC48PwD/AHv/AEI1swj9+/4/zrrj8KOd7kV6v+iTf9cz/KvNNRXCj616heD/AEOf/cP8q801f5IUJ/vUVNkOBBbLiIVWl0iK8uGlfJY8cVq2ax/Z1OwkkZq7DIIVwiAZOele1QptU1qclSa5rHOf8I9Gp4idvbFSr4fQf8uz/jXSfbJO38qpSX0xlb5j1qqia6ihK/QzU0AdrQ49TUy6Gqji1BrVW6mNqfmPSobW5mabBJ6etKzutR825UGnRRMAbYA/Su28Npt06IYx+8P9K57cScsOa6bw+P8AQYf+uh/mK5MXHlsXTk5HQ3AxAP8AfH86dGP3Y+p/nRcf6pP98U5B+6H4/wA65TU4PxlOU1GNApOEycfWub89u0Zro/Fmf7WXB/5Zj+ZrC+b1rtjsYy3JII/MwZWCD071ZFvbd5jVIbvU0uG9adxHYmmMKkNMavLOghamMKkamNTGV2HNRsKmcVEaBkJFVL5N1sw9qvGoblcxGhbgcu0PtULw1quieoxVSR4gcFxXZoSZrxe1WtLyt3anpiYj8wKY88BYgN0p9nMr3MWzkLOh/MEf0rGpsUtGd0UG3mqV4gEY/wB9f51ohPkB9qqXqf6OfqD+oriOgy9ZT/RI/wDe/pXESLiVvqa7/WU/0BSeziuEnwLhwePmP86UhdSIim7eeakJT+8v503fGc/Ov51AbC265mX6it2SExsme5rFtHjNygDqfmHf3rrdTtiiRnHekxHV+EeNBiHoWH/jxraiH79voax/CoxpCj0Zv51tRD/SPwP9K6o/CjB7jbxf9Em/65mvN9bj/wBHT/fr0y6/49Zv9w155rcRa3TaM/PVVNkOJHZr/oyfQVZCetJZQMLdcjsKtrblvQfjXuUn7iPPn8TKwSqTL+8b6mtgWze351S+yEu3zL1PGams9C6YIn+jH6VBaLi4/A1qpaAWp3OBx6ZqG1tU8zIkB46bTSd7oFqmAWum8PL/AKHB/vk/qKxhbLgklh+Fb+gr/odt75/9Crlxbu0aUbWZtTn5E/3xTk/1YpJukf8Av0o/1Q+lcy3NTgvFB3av9EH9ax9tbmvpv1dyP7o/lWd5PtXUpKxm07lYR04R1P5JqTyKXMFjfNMbpTiaYTXnm5G1MantTGpgRN0qIipX6VGaAGFc1HOmYWAqfFMkH7s/SkM8rudbk86RDuwrEdaW2ku7+TFvEzcZJpdQbSNN1C4yrXk4kbK/dRTn9azbjxBdzLsjcW8WMBIRtGKpTbRpyxS1NDUobqxjDTBQx6gNzVjwzdGQzBvvLJG36kf1rnftzmHYTkepGSa1vC0gM10P4tqMPwYf41XQHZu6PZkwYVPqKq3i/wCjSewzVi3O60jI/uiorsZt5P8AdNcpqUdWXdpn0INebawu27cf7Rr0+/XdpbfQV5rry7dQl/36bI6mOQaYE61NjmgDg1AD9NX/AE6L/fH869b1y1220OB/Ef5V5Vp4xex/7w/nXtGuxg2UJ/2v6VLGiTwwuNPI9zWwo/0kfQ1l+HhttcVrL/x8D6GuqHwo55biXQ/0Sb/cNcLqiYt0/wB+u9uh/oc/+4f61wurj9wn+/VS2HEdZL+4HFX1UYqjYn9wtXgwxXr0pe4jz5r3hwUYrNA/eN9a0g1ZpP7xvrRVlexUEXj/AMebfSq9p/rfwqcn/Q/wqO1Hzn6VEpaoaWjLjD5DWzoS/wCi2v0P/oRrEdsIfpW7oTKtvaByB8vf8a5sQ7yRrRWjNedf9X/vf0pSuIQfapZCjsnzDg5/SnNs8ogMOnrWF9TWxw2qR7tTkP0/lVYRe1a15FuvpfrzUf2bIocrByma0PH4ineT7VoG32jj1qTyB3pe0HykGaYadTSagBjU00pNNNIYxulRtT2phoASmtypz6U6kIyDSGjxXxIvleJL9T/z2Y/nz/WsndW141TyvFl4P7xVvzUVgb6pbFExfitrws3/ABMp/e3b/wBCU/0rni1a/hlv+JyFzw0bg/lTGe6WD7tPh/3BTrjHkuO+01X0lt2mwn/ZFWJOVI9q53ualef59Mb/AHRXnHiNNuoSY7kfyr0nGdPYf7NeYeJLm4tPEUjqpaPapAKgjpTtch7mZjb97j605eQcVJc6pFdxok2mbgq4BHFVkvBFE8cGmtkjAZnzilyiuTLK9uwlRdxUjiuol+IGqX6rGbeFVH3Vwew9a5Ozvb2N3C2mdwx83Na//CP68USWS0KKOQSa3jOEY8tlcm13dtnq3gy7lvNJElwoWTJBArol/wCPgfjXK+ABKmjss+N/mt09OK6of8fI/H+QpLVEStfQfc/8ek3+4f5GuG1cf6Op/wBuu5uf+PSb/cP8jXEauP8ARBn+/wD40T2HEpQ38NuFSRsGrqXkcmNjg5rmLz/j4/AVLbsVAIPeumlWlsZTprc6kSe9Ui2Xb61T+1SetIJ3JrapIiMTWL/6OBmmR3KR5zms77Q5wO1QvO+TUSlqilHQ2xcLInB61sWrlhZL04rkYJm3IPU11tqPms/901lVd5IqCsjW3gybN4yBnbnmlDjzCocEgcrnkVAEUXDSfxEYJpyxqJnkH3mABNVZCMqXUYY53Vgxbcc1Wm8QQwuUETGse9u2F9MB/fP86wWmvDqszTsv2bb8mOueKwmlY0VzrpfEqhgRAePeoj4rGeIP1rnPtK9zmoTJzwawLO+zTTRSGtzMaaa1KaYxpANaozTzUdAxaD0ooxSA8e+IkfleLHJ/5aRIw/LH9K5XNeu+JtEjv9TSd7dJT5e3LDPc/wCNZA8MwHrYxf8AfNJSsaWZ5zmtTw4xGv24/vbh/wCOmu2HhiA/8ucY/wCA1NB4ajimWWK3RHXowXkVSkgszstDk3aVF9KvMc1m6Oht7MRtn5fWr5asnuadBsRzaEe2K808byyLqxiQAKYlIPvzXpNu3yMPevOviJLLb36LHHkPCpzj3P8AhUMqO5y/nTDaARu7j1p5mufMG3sORiolDIpfyyzjkH1qJLvUiOYjn/cpq76lzajui1Dd3guWG047fLXVtq3iJ7aP7a0iQ4HVcdq5e2ub37zR846EYrft9U8QX8UqX1uwslx5bGPGe1OcrkRhbXueh/DeS4bTJlu/vrKwHPbC12Y/4+V/H+Qrifho5exutybMTtx+C12xP+kJ9T/IVrDVHNJWdh1zzaTf7h/ka4jWD/oqj/b/AMa7af8A495f9w/yNcVrCMbIFQT+8H9aKg4nNXKbpM+lOhQrtGe9K0MzMcIx/CnRwT7gdj/kacZWE1csBaUL70gimz/q3/75p4hl7o3/AHzWznclKwoXpUbRsW6VKIZf7j/9807yZf8Anm//AHyaXPcaQ2JCJEz6iulvIZ3src2zMrKo+7XOxQzecmUfG4ZOK7uyQeXGDz8g/lU815Jia0OTNvqOeZ5v++qmtbW9NwvmTTFActlutdeYYv7opssSLC2F5xW/MZqJ5ldvu1KSNckmUgfnTbyzEVvLLuJ2KWx61DZ291P4lnLQybI3cglTg84FTzW+oy6bdrcRNuxhQqn8q46j1N4oxTcg03zT/k1Vl0rUk+7bTH6IagFlqg/5c7j/AL9mpQ7Hr1IaWmmtjMaaY1PamNSAYaYetOPWmnrSAKWkpwpDKs5CnmuZ8UeK7bQFijdHMkhVgVHG0MM/pWn4j1D+zo4nIBDMRycV5T8QNQOoNasoACqwOGz3BqVG7NObQ7Gf4l6fHGGSznccAkAcE0vhzxc2p+IZrVnby/J80K6gbTnp+RA/CvKUu7j+zvKATZ9ee3+FaHhrUZbbXPtBAyUYEk9qvlRDbue+Ryhl4qTdnvXnsXjtbdQPKDn6121vdLPGrqeCM1DRomWROsAJc4GaX7dpzNme3hmbGMuuaiU5z9aOPQflUFE32/Su1ha/9+//AK1PGo6d2s7cf9s//rVXwueg/KlAHoKegtSb+0LEdLW3/wC/Y/wp7avbldvlR7fTZUGF9BSYHp+lLQNTc0K4juJHaJFQDg7VxWv/AMvCfj/KsPQZFWZk6EgkD8q2yf8ASE+p/lWsdjKW5JLzDJ/un+RrkDqaRMybc4POVrr2z5cv+6f5VxUnEjfWlMqBIdaUNxGMf7lSx66APuD/AL4qi2M9KegqLlWNAa+v/PMf98Uv/CQL/wA8x/37qmB7UvA6ii4WLn/CQj/nn/5Dpf8AhIB/c/8AIdc/f6xHbbhHtG3qxqhZ393qTn7MXdR1bbgV50swXNy04uXod8cDLl5pyUTrX1sXC+UFwW4+5it+0GET/cH8hXny3c1tKFulK+9dNp2u4KrPhkPAcdqzpZrTVTlqxcR1sunyc1N8x0ZNRzHERoWRXUMpyD0IpJj+6NfQJpq6PItZ2Zzj+JthIC4wf+edRHxT7N/37qFwpzwPyqMhfQflXK2rmyRZ/wCEq9m/790n/CVH0b/v3VUhfQflSfL6CloM2KaacelRk1uYgTTDS0hoGRmm05utMNJ7CFpwplOFSUeffGHcnhm2lUkbboA4Pqrf4V43AzXUhVnIwM8nNe7/ABL0x9W8JtDFyyTJJ/Mf1ryOPwhfRsWHyn/eFVFpbjafQyWtSD/rKl01il8V3diK0JvDd4qkgnKjk5zisyzXytTKE5IyCaptPYSv1Nh34r1nRrjFrECeqg/pXkLGvTtHkJ062b1iX+VK2gzqkfjipA1UoZP3YqdWrGRZYBp2cVEGpwNSO4/dRmm5pM0rjNHRlY6vG46CJwfxK/4V0bN/pCfX+hrB0E5uHrXuJhDIHKsyg87RntW0dYmMtzWtoVmVwzYBGKpt4VsmbPmN+dUv7Zt1/gmH/AKUa7bf9NR/wA1pypk3aLJ8J2fZ2/OgeFLYDhz+dVzrlsP45P8Avk0n9u2w/wCWj/8AfJo5EHMy1/wi9v8A3zWH4stbbRNLDI+ZZThfYdzWl/btt/z1f/vk1xnjG/8A7RvRHEzNGiAc+vU/0rzsxqKlQduuh34Cn7Ssr9DntE0m48V+Io7QExwfec/3UH9a9ah8J2NlaiONxHHGv5Y71yHgprXTLWeaVtssjBQcfwj/AOvWpr/iCL+zHhtZS0kvynqMDvWVBQw2E9q+xpWc8RifZJnP390LiaREwYNxCcdR61NdWM+hXSRz8wTKGR6zYRyinoSM12GsXNhqOmtAZvnUZjODwwrxsPhXjaVSb+JbHqV66ws4QXwvcZpOoGGRYZTmNuh9DXSLC0zBMHHrXn1hOZLfa334+DXU2msxfZU+0T7XAwcnrXdkuKk28PN7bHBmWHStViaZ8LWzDl2/OmnwpaD+Nj+NUjrdqP8Al6/U1EdbtT/y9fqa+gdM8fnL58LWg/iP50n/AAjFl6/rWadYtTn/AEsfiTTP7Yt/+fofmaXsx85zWo6xPpepBHuEuYsgHYmMAit1W3DIrz3QtIvtWuvtc8i/ZvMOX3ZLYODivQVG0ADpRp0G4uOjHU0nmlpp60E6jDTTTj1pDQ9gEFOFNzSg1JRk+KUL+H7jaMlQGA+hFecSxSTbWeGFuMZ8zFemeIsf8I/eMduFiLHd0GOefyryaXUhtHkzWD/7xxUuUU7MpRbLMsLrCyrFGPl4xJ0+tcRPE1trxSTG4nPHuM/1rrhqEZj/AH0lkWwRhW6Vy+ryxyeIEaJlYbUDFemcYojO8rIfLZXZKSc16Vob7tFtT/0zArzXvXovh192g23suP1rboZnSQPmFato9Z0JxCPrVqNqxZoi6DTs1ArVJmpZRJmjOaZmjNQxo2tAP79/89q3CeTWBoB/0hq32IyfpXRD4TGW4hx6D8qTav8AdH5UmaTNMQpRfQflQUT+6PypM0ZpgGxP7o/KuK1VPM1q64HDAD8hXaGuTv48a1dj1KsPyrw86b9jF+Z6+Ute1fobmiQIujwgoM8k8e5rlNavBd6pIY8eWh2rj2rqLVZJdB8qBgjlWUE9ua5S/wBLuNOZTOFKseGB61zY51JYWHKvdtqdGDVNYibk9bkunpvv7ZOuXXP512xhiPWNfyrz6PUPsZE235kOQR610Xh7XrrV55A8QEUa8v3z2FVk9dRvSa1Ys0ouVql9infwiz8QOqjCTLuArQ0so1w0cihgVyMiofEw2z2k3cEqf0pljJtvosHviuKaWHzJW7/mdEf32B17fkbjW0HeJfyqF7aD/nmv5VO5qJjX2Z8uV3trf/nmv5Uz7PB/zzX8qkc81HU2A8y8O6rLDp7wfbPIihUsqr94sTwPp/jXZWXiBfMMF8FhkULkg5AJGcH0NeRK5XDA4I547cZz+lbWk6mxuI4ZyxQvy/Ugk4Ln3A6Vwwqu9j6athYSTbPWIru3nfbFMjtjOA3OKlPWsi1gjlvbSS1hMcNsjDeVwXyMAe/rWtXWtj5+ooxdkIaa1ONNNMzEBpR1plKDzQBn+JYzL4Y1KMdXtZR/44a+aYD/AKVH3G8fzr6g1FPN024QdWiYD8jXy+FKXAx2aqp7hI6d7aPb9xfyrG1BBFfw7RgcfzrpGgfYOKwNcUx3EBI9f6VrNWJiyevQPC7Z0GDPq38zXn+DXe+E1LaGMEcSMKy6DOkhP7n/AIFViNqhhgcW/I/i61NHC27qPzrHmi9mVGSeiZZRqmB4qNIHIzlcfWpkgk/2cfWoNEGaTNP8l+2Pzo+zyHt+tSM0tBb/AEpv8+tdAxwT9K57RY3iuzuGAf8A69bznn8K6KfwmU/iF3Um6mZozVk3H5NAPrTc0ZoAdkVz+sR+VrMb9po8fiK3e1ZeuwNLYiZPvwNvH07152ZUHWw0kt1qduBq+yrq/Ul0l/3bxnscisvxa/8Ax6r/ALx/lU1jchJUkB+V+tUPFswW6j7hYsj8TXiwxCnl3s3unY9RUeXGqfRnL3kheRYV557dzXoWg6cNM0mKLH7xhvkP+0a47wtpxv8AVxPKMxwHeSe7dhXoBavTyvD8kPaM4syr80+RGL4oP+iwevmf0qlaODdxc/xCpPE82ZbePPIBY1T0lvO1KIddp3H8K8rFL2uYpLuj08O/Z4G77M6pmzULtTmbk1BI1fYanywx25pu6mO1N3U7DPDCfmOecHn8/wD69dF4bs5RfwIVc/ahtJRhgrjJ+hGM1nQWUSapErcIzDaSePc/pXpGhaTBp++VPmkkOSxAGPpXn0ad9T6DGYjkXL3Nqzto7O0jt4d2yNdq7jk/nU5pivxTs12HgN3EJphNOamGkMaTQppGoFIYr8oc18tXQaO8mQnBWRh+Rr6kc/Ka+cdd0i8HiDUNls5U3MhH03GiLsxNMp/2ndbB++fp61WuLqa42+c7Nt6ZNT/2begY+yyflSNp95j/AI9ZB+FW53BRaLYvkIGc5r1v4e2Ua+GDf33yx72ZQ3YDua8y0nRJCVmuYyD/AAqRXrvh23+2+BzZA4ZWZTj/AHs/1rwc5rShh0k7JtJ27HDj7xpLs3qTJ410hphHtkVM43FOKu6s0EVmL1OY8ZyncVwd14evbOcxSQO4/hZRkGuuNvJa+A/JuuHVOAew3cCvGqUsPh6lKrhZat9zinTo0pQnQe77lOPxBZ9CZB9Vqwuv2fTe35VySoAPUVIFH4V9bzM+h5Trxr1l/wA9T+VOXW7I/wDLfH1Fchn06UHBFLmHY9I8P3sN1dt5MofABP610jH5vwrz3wGwGpTgf3V/ma78tk/hW9P4TCfxBmjNNJpu6rRJLmkzTM0ZpgPzQcFSGGQRg0zNLmjRjuc3JGdNvTbyf6pjuib+lZmuQXmo3yR28RcBAM+tddfWcd9bGKTg9Vb0Nc5KbrT22XKllH3ZB3r5HG4KeGqupBXgz6TCYmNeHJJ2kbOg6b/ZemJE/wDrW+aT6+laLuEUsxwB1Nc9D4g8tcON4/WqereIfNhKqPLixyM8tXqQzSgqNqad+xwyy6q6t5vTuU9YvxcXjy54Jwv0FafheAtHJduOG+VPcd6wNN0i91q8EsqNBag/eYYJHtXcxRJbwrDCoVEGABU5fg58/t6u48bio8nsqY9zVeRqe7VXc1754rGM3NIGprHNNoGecXF7YwSjaCJFDq21MHPIHJzXoGnt51pDIvR0DD8RXlmtR+XeXGPvLNkfQ816X4Vk8/w1Yt3EQU/hx/SuGhFQukexjop04yRsKMU/NGKK6TyRDTCaexqImgYhNANNJoBoBDjypry/W4sa5eY7StXp9ee+II9uv3OBwSD+grKZpAxlTPNPCDv196l24PH6U5Yt3IxmsiiIZ710/gy/8m8ks3OFmG5f94f/AFqqaV4duNSHmMTFDnG9h1+laMiaRoVwipFJc3S8hs4ANePja1PEwlhqa5n5bL5nnYmrCupUILmf5fM67Ge1c94vuNtlFbKeZXyfoK2LO+jubLz3ZY9ozIN2dlc5d+I3MkksMcU8WcKrRnIX6187l2Br+3cuT4O+mp4+EwtVVebl+HuczIhjbAIIPpTmjlWMMUYKe+K7OzXTvEVkxNsIyh+bHGDjsaxL/Tls7t7Per/KHRpHI4P/AOqvqMNjlWqOjKPLJdD3qGLVWbpSVpIw9zZx3o3EtgjHvUjx7WK8Eg4yDRsK43D8TXoHadJ4FcjVZR6oOfxFeglvm59K898GDbrD89U9f9oV3zN834V1UvhOep8Q7dxSZpu6jNaEj80ZpmaQtQBJmlzUQY0uaAH5pkirIu11DD0IpN1ITTsnuBTbSbJmyYR+FPTTrSMhkgjz6kZqfNNJ9amNGnF3ikW6k2rNik4GBwPamE0E1GxrQzEc5qF+lOJqNjT0ERmm7qU0zNMDzDxMnl6pc8ZztP8An8q7j4fy+b4YQHrHK6/1/rXJeLk8vVJMj5Wh4+oaug+G8udJuY8/dlDY+o/+tXDT0m0e5iPewyZ2tJRTWrpPGEY1HTjTTSAYaAeaQ0lK4x56Vw3iVca0/uqmu3J4rjvFC41RDg/NGP5msp7Fx3MVcEbSc/hVixbyrj72wHvt3GmRwGTODtAHUmnwtsuBiQrjjeBnFZ2LO407VLSaBIt/luq4KuNufesnU/C8k0ge0cMO+9uawr4qWUiaV+MZZcY+lW4pbj7GWtklHH+s38V40ctnQqOeGqct901dHmxwUqU3KjO1/K5eGham9oYQsMIYfNtP3vrU1n4dliiMV5dhF7Ip/wAay7TUryTen2sDvukPNU3nkS9KtdE5PzOh7Vv9XxUtJVfuVv8AM19jiHo6n3I6c6np+iQi1sUaSQnp0yfc1ganLNJqAvJgm5ugBzioLtELCSLzX/vO44qaOE3FmRFbKSOC5bvWuHwdLDtyjq3u3uaUMNTotuO76vcS62yxiTzVZwOFRcVGGR4dsu4t2FNt7qWENEu1eeSRmoS2HIYk89RXUdZ0HhP5dYYf7H/swruy3zfhXA+FSw1Y5J+5/UV3ROTXVR+A56nxDt1GaZmjdWpA8GkzzTd1GRQBIDRmo80ZpjH55pCabmkJoEKTSE0wtTS1UA4tUTHNIWppagQE4qNjSsaYxoAaT1qPNKTTKYHF+Nov9JjbpkMD+Wf6VJ8Np8TXMOeqBvyJ/wAas+NYd0Mbejr+vFY3w/lMXiMxk4EkTrj3GD/SuJaVD2172Efkep9qaaUHimnrW5441qb2pWNMJpgIabmhjTM0mA7Nct4pX/TIW9UIz+P/ANeumzXO+J1XfAzHGdw/lWU9jSJiWsqRgmSNpD2zQ0h+0B1xHzkADimCMocqdopcD1LGsjQvX25oAXuEfn7iio7JoWgKTySk/wBxelWFAksyIbTkj756/Wq9g86S+XbsgLcndSEQR4hvcCLcu7hH71PqNvKFWdoY4gOPlPNGoRSrMHlkRmYc7e1PU2htsyzSPJjp6GmAsfmXdmyzXSRqONuO1VLdo4ZmE5Yx9PkPWpLWRY5i0luJieFX0NOvo3Mgl+zGFemAKQEF4iGQNbROkZHO6oNwORg5PFSyXMjDbIxC1CGQHKE59hSYzb8LMy6phs8oQPzFd6W+avPPDb/8TgZJztPBrvi3zCuqj8BhU+Ik30b6j3UjNxVkEm/1o8yoS+aaXqWykifzKXzaq76TzKnmGWfNo8yq2+k31SkIsF6aWqPdSFvetUSxxam76YWppNMkkZqjZqazUxmoGKWpm6mM9ML0XAh13T/t1uUbI75Hsc1y+i6VNp3jaBokbyeu7HGCpB/WvQpIgwPFQwwCM4YAkHg+lYuKbudUa8opx6MudqYTTs0xqowEJqNjTmNQuc0ADNUW7mlY4qPPNICTdXJeKp3GoQJxsVNw+pPP8q39Q1GHTrN55zgDgKOrH0FcVc3UuoTm5nzlvuqP4R6VnLYtEkRmmIVV5I4AqeSKWADzYSuTwc1Xtp2t5BJHJsYDGCc0+4vZblv3khO30rJlmrbxXc9p8tysceMAYrOVI47jY5O0NgutS2CQSxsbm4Kc/dzjNV7p4Yp2FsxZPVqQyxdrZrF/o5ctnkk9qfp9zsQpFbiRyc59Kk+3iW1KQ2e7IxkDIFUbW6ngn22+A7nbg0CJLjzoroyS/uWJ3KBwKvNb3F1arJJeLtIzjjFQ39rePH51xIpCjkDtWYJ8KFwfpQBMV353444FRlnQ7SAAO5qMkt1X8aUlGUbhz9DRZDNXw+QdXTkZZT0rvowDIC5+XFeYaVKbTWYJM4TdtbJ9a9JSUEDDD866aOxjPe5e2wAdaaVtz1b9aqM1Qs1aNIzReMUB6N+tMMER/jx+IrOZz2NRGYg9awlY0RpSxQxRNJJMERRksSMCqsM9pdR77S6WdP70fIrifiBrn2PRHtw/zSjkZ/L/AD7V5JaaxqGnkmxvJoM9fLcjNONNNXY2z6UKN/CDj16VBNdQWuTc3MEX+/IBXzvL4i1i4BE2pXTg9QZTVGSaaQ5lldj7sTWnJBCufQF34y0CxB87VoWP92L5z+lbNk5v7CG7gBMUyB0J6kHpXzPDCzSLwWGea+i/Dd+R4csUjxsWIKOPTirir7EN2NIwSD+A00xyD+E/lUn21/QflTje56oKtxEVWVx/CfyqJsjqKtveDPK/rUT3kf8AdP51DTKKbE0zNWGvI+4NN+1Rf3aydxmye9RkU8e9NbmrEGeKYxp1RtQMax4qJjTmPFQk0hg1Vbq6jtLd552CxoMkmpJZVjRndgqqMlj0FcLq+qy6zdbYW22kbfICPvn+8aluwIbqF/Nq9750gIhX/Vx+g9frSK3YKRimAbRhsD3xSh2XooP41g9zQccL64zzxTC6sDj+VSJG0rqi4yxxVybTEgt2dpeV5PoaQFaxNoshN3nGPl44p2oTWbyKLRcDHJHeobQwC6BuwTH2HvVi/u7F4glsgDA/eC44oAmsL658kQQQh9g+9zVO6WaOZmmUrIx3Utley2+Y4EWQP0GOc068S6kYTXSbQOBjoKaEXoLG4u7VXmuyQRkDqKy5IzG7KGDbSRkd6s2NrJd7lWZo0XqAetF7ZfY2Uebu3du4pDK4ckdMUAMpz7+tNLlSBn86VWZuDjH0pAOEgfgKc+tTCadTu3uMejVDnZyNvtmnF2YYx29adwJ11C7DfJczAnpljSJquoRLgXMmM56k1GSeHx06gVWu7zylCrEXkbhVH+NVzMLF+XxFeRJukusD1IH+FVh4s1GXAiUMDwGdcA1iXjfZFFxqDCSRjhEH3Qf896bqGopptqHmuYXncZEEPO36mrSbJujH8ZavJqOpBHYEoPmx0zXNGpZXeaV5H5ZiSTUeDW7MyS3IE6bumcVZv1QBcYDe3pVPBFPdjI2WOTiiwD4bpoFAQDIJJJ711+heMNR0NUEsMj2jclTyPqD2ri8V22gOLjSY1JyUypBqXJx1Q7XPRdO8V6ZqFsksc+3cM7XUgirw1iybpcx/nXnclkhT92fLK/dK8YqNba8PBu+PXYM0vbMOVHosmq2iqWa6hVR3LgVS/t/T3bCXSH3AOPz6VxK2Gz53cyv6uc0/aSMDil7XyHyncidJV3ROrqehU5phkOa4J4pE+eFmjk9VbAP1FZ82q6mJColK7eDhsVnzJjse9McGmUrn5jTCa3IDNRsaUtUTNSGMdj0FRM21eaezVyPibW2Zm06xbDdJpAfuj+6Pek3YNypr2snUpzZWjH7MjfvHH/LQ+n0rPCbMbGIA9qZbQ+XHtXdge9TlNuOSKxbuaJWHLkghiMY9Ka2VPGCPp0pQG9Rn0x2pWBwSDyO1SMaDJLgRgZJwMHvV99Jm8rdJN82MkZ4rODsmNoAOc5B6VoG11O5t/mJ2/wB0tjNGgjPgMbXCLcBgmfmPtWldyaYlqyxqpcj5do5z9ays7JjG42sDgjHQ1trpVosGZWJwMl84FCAyrS7FtceYgVjjGDU97fXF9bgeSVizkkKefxqmXjiuflw6o3Gf4hmth9dh8j93ES2Oh6CkBlW0cjzqsDbXY4GDitCfR5lieVptzAZIyayU+WXevysDkEVpxpqF/D95vL9ScZpjILFYPtSm5J2Y6npVzUDZrBi2ZfMyMbRWVNDLbyFJdwb0zW1ZaTby2aPI7OzDJIOMUCMpdzE5YH8Kk8mUR7lRiPUrTLqMW928cMgdQeCea1Y9XiMQDpggdBjFA7mdGGuJliGPmOM07UNDnEfnQSAzR8gevqKgkeQSmRAAMkgDjGasw3N9ejyV5yOee1AM4XX2v7kiSeACOLjKHp71iAZ5PJr02806WFD58PynjsRWXY+EdPvXkcvJHg/6v0rWM+5DRwpAFKkMkmTHG7AdwpNdjqvgyCzCvFO5Vv4SORVzSG06ytlguY2ymefWr9oibannrqRSxxySHCIzfQV3eowWNxdGW1gjUY5OOSaoxwBJM4Apc9x2MCHRbyQ8oEH+0a6TSbD7FblS5LMcnHFaS6VcPDv8g4POM0y1tk+1IspMak4PtUOTe40rE0Y7Fm/E1KRx8pPHetN9GhKEwswbHBJyKx23A4EjZqdhjssF+9+YpdpwORmkVSV6/jQ+7bkMAPcUhojdnDYYLWdNaxzSbnUZ6davSbifn2/XFVn4brSsO57TJ1qMmnStUJausxFY4qItQ3WsfXtaTSrbCYe4k4jT+p9qnRDsVPEuufYk+x2hzdSDkj/lmPX61ysNrtjLMTuPJYnkmmRrLLK888jPK53MzDqauKGwQ3P4VjKVy0iMB0wQ5GR3FSbW28nnHPFMdtvZW+pxUvlzNHuMLhf7w6VNxjUY+cm7btJwT6Vss9lFDwIiMduS1YmC0wRFLFjgAVrR6Mmz97MysewXgUgMaRtsu8KdueAO3NaR16d4ykcOGx97BNZ86iOdkLBgpIyO9blteafBbgJIijHI70gOdkYM29z8x6k960LXTJLuFX80JGRlec5qvfzJPeNIihVbjpUtvqlwkYhVVYLwuRyKAK97ataT+XIwbgEEelaelQWIs1ZvLMhzu3dqybkyyys84O7ryMU6xsXvJSqNsVeS2TQBLqIt/tH+iqNvcrwM+1TWmrvbwrEU3hOFO4inXejfZrZpVmL7eoIxVbTXhW9H2ggDHylumaAGXVw9zOZZODjAA7UWiXFxJ5EEmM9c9BWxqFzbG0dC0bsR8oUZwaxreWa0kEkON3cHvTEXLjRbiCFpRIjADJwMGmad5P2zbc7duONxxk06fWbm4jMPlhQV5Kc5qjkk52kH3ouM3tTjs/sjELGjY+UqeSayrS7ksZt6x7wwwRmprGwa7j81jsTPcZNNv7Q2eCW3oxwPlxQK4691g3VuYhEUB6k81nBmVvkLKfWtfRzbLGwlKCTdn5+OKTWDaHYYGj8zPzbD2pgVIbCa+h8wyKozgbz1qrdWT2soWQKQRwV6GrVrqMtmDGAHXqFJ6Ul3eyX2AyBVXoB3pBYz9menI9PSmtbjYcLk1ZMasPuj8qYIwoG0fkadx2NG21TZGomgywGNwPWqlwy3M7y4CbuwpnkZAPJP1rc09bV7VY8DzMfMGAyffmi4jDBlVcRzOq/3d3FXU0S7ZA4ZTkZAJ5/lTtUtYoZE8hsEj5lHan22rTW8YRlEm0YB70ajKItzBcAXG5QrDeMdq3DYWlzD+72YI4Zaxr29kvJvMaNV+XGBmoVMiqeQD3waYhLqAwyyRgq4Q4z61mSlw/3F/Ot2106e6h3rt25xkmq8+kXiSkLbs49VI/xpDPUZXGBioSaCdxqre3sNjbPcXD7UQZPv7V1syRDq+qw6VYtcTHJ6Ig6sfSuCLz39095dtvkc9B0UdgPalv8AUX1jUDc3LFEUYjiP8I/xqVHQL8rA8VzylfY0SE5jGMZ7jBFSLPkfdIOO4phPIIP4U8elZjJrCWFLgNc4VQO44zWjdavbCFkgkWRmGPYVn2lm93Iyp8oHVuwq1c6PHDatIshJQZwR1p9AMxZCkm5D8wPB9KuPf308eBnaB1Rev41UhSF7pPP4TPzV0D3FpbxcSIABwFb+gqQuc4w65q5Z6ILiPzZyAGGQAOcVTlPmzSSj5QzZAz0qzHq11BAsaFTt4BZe1Ahl/p4s5FVGLKwyB6VZ0h7WFX3vtlz1Y9qzZrmeebfKyux/Clt7eW6mEcSjPc56CmBoazdRSosULh3ByWx0FULW6ms2LQ456gjOavS6K8cbMsm5gM429azInRpUEm4LuGflI4pXC5Pc6neXUW10XYOoXOKqqxxnYAT711ivbxw/KY1iA65AGK5u6eJryQwYEZPFMC5a6O8kIkmdk3DgAZ+lVr2E2k4jbJyMg7TViDWZYYhGUVwowDnFU57iS8uPMkIPoPT6UgNnSZbVbMDKLLzuLcZqrrFxatMgheMuB85U/pWcAeAvXPFaA0KdlDNIgbH3TzRfQCGz1Ka1yqbWQ84Palub+S9ZRKFVUPQetVmtzbyPHIgVgcHiujsIbf7ChhVTkfMe+aerA51lyRx+VT22jNdxiYuqKTwCOvapdZt4orhTCzKSPmVT0p9lqT20CxMm9R055o06jKt1ppsmHmAFTyGFaGmC2+z7chZMnPPJqnqV/JdMoRdsa84Izk1TjMmegPToKNANLVbaJNrRtiQnBCnqPWs7yypyDmrNvYT3bMYwpUdyaW5tZ7Q5lhLA/wASkYoArZkXowx2yppQZGfkrjFaWi+RNM6yx/vMfKH5q/fafbm3d4gEZQWyBigRkW9jLdM5TAC9ST/Si4sbi1TzDFvQcllI4+tJaamtpJkOpVvvBjir8mrwSROqpnIx2IpjINHe3LOtwi72Py7wKu6jYW/2ZpFXy2UZyo6+1YSjK8kEe3FSku8e3eSAOhNFwHWepfZAQD8pOSpFX/7fgPWM/wDfVVBpV20WRDxjgbhmqrxMjlWQqR1BFFwO+SceSJCeNu4n8K4TWdWfWr0BcraxkiNP7x/vGiiumsrMiK0IVXy2C9j3zUqr9M59KKK5WUSlY0A4+vJqs6hm+UsMd9xoooYy3Z6g9mjKo3Kx7mo7rUbq5whZUTPC4/8Ar0UUgKgZ2JB2n3Hc1opo1xIgc7EyOBnNFFCJM2aZLeZoZCwdDgjrW5pVrA1stxje7DILDoKKKaAj1pIxFGdoEhPBHpWfZXjWUxfG9SMMKKKQyzea0ZISkEWwt1YmsoMMcj9aKKAJ7e3e6bZEMgepxRd6fJb481VIPQjFFFBJPpdnFcXiq6jaASQO9bk2nWsiCMxBfQrwRRRRcZy/zR3B2Oco2efr9K3k1qIR/Orh8cgAYoooYGPeXbz3TucDJwBjoKSOeYZCnA77WIoopLUZIltcTp5qLuX1LVG1wq8FWBzzRRQwNzSra0mtUlceYzdznjmoNT0+OFRNCdq5+Zf60UVYBpmoLb5SXmNjnIHIq1f6hbvbPGmXMg44xj3oooWwGKhKsDnB6gg1O087xlHldl9CaKKkZE8REY3cA9OaSIKW25HPtRRTGb40GyaIjackfezWPeaZ9jn+Y/I3KsGOaKKb2A17PUUcCKUssgGM9c1JcSWQl/frubHUiiilcR//2Q==;" vertex="1" parent="1">
          <mxGeometry x="760" y="150" width="152" height="190" as="geometry" />
        </mxCell>
        <mxCell id="qs4FXXVYRaF119wpGoub-260" value="" style="shape=image;imageAspect=0;aspect=fixed;verticalLabelPosition=bottom;verticalAlign=top;labelBackgroundColor=#1A1A1A;sketch=0;fontSize=22;fontColor=#FFFFFF;strokeWidth=1;fillColor=none;image=data:image/jpeg,/9j/4AAQSkZJRgABAQEAYABgAAD/4RDaRXhpZgAATU0AKgAAAAgABAE7AAIAAAAFAAAISodpAAQAAAABAAAIUJydAAEAAAAKAAAQyOocAAcAAAgMAAAAPgAAAAAc6gAAAAgAAAAAAAAAAAAAAAAAAAAAAAAAAAAAAAAAAAAAAAAAAAAAAAAAAAAAAAAAAAAAAAAAAAAAAAAAAAAAAAAAAAAAAAAAAAAAAAAAAAAAAAAAAAAAAAAAAAAAAAAAAAAAAAAAAAAAAAAAAAAAAAAAAAAAAAAAAAAAAAAAAAAAAAAAAAAAAAAAAAAAAAAAAAAAAAAAAAAAAAAAAAAAAAAAAAAAAAAAAAAAAAAAAAAAAAAAAAAAAAAAAAAAAAAAAAAAAAAAAAAAAAAAAAAAAAAAAAAAAAAAAAAAAAAAAAAAAAAAAAAAAAAAAAAAAAAAAAAAAAAAAAAAAAAAAAAAAAAAAAAAAAAAAAAAAAAAAAAAAAAAAAAAAAAAAAAAAAAAAAAAAAAAAAAAAAAAAAAAAAAAAAAAAAAAAAAAAAAAAAAAAAAAAAAAAAAAAAAAAAAAAAAAAAAAAAAAAAAAAAAAAAAAAAAAAAAAAAAAAAAAAAAAAAAAAAAAAAAAAAAAAAAAAAAAAAAAAAAAAAAAAAAAAAAAAAAAAAAAAAAAAAAAAAAAAAAAAAAAAAAAAAAAAAAAAAAAAAAAAAAAAAAAAAAAAAAAAAAAAAAAAAAAAAAAAAAAAAAAAAAAAAAAAAAAAAAAAAAAAAAAAAAAAAAAAAAAAAAAAAAAAAAAAAAAAAAAAAAAAAAAAAAAAAAAAAAAAAAAAAAAAAAAAAAAAAAAAAAAAAAAAAAAAAAAAAAAAAAAAAAAAAAAAAAAAAAAAAAAAAAAAAAAAAAAAAAAAAAAAAAAAAAAAAAAAAAAAAAAAAAAAAAAAAAAAAAAAAAAAAAAAAAAAAAAAAAAAAAAAAAAAAAAAAAAAAAAAAAAAAAAAAAAAAAAAAAAAAAAAAAAAAAAAAAAAAAAAAAAAAAAAAAAAAAAAAAAAAAAAAAAAAAAAAAAAAAAAAAAAAAAAAAAAAAAAAAAAAAAAAAAAAAAAAAAAAAAAAAAAAAAAAAAAAAAAAAAAAAAAAAAAAAAAAAAAAAAAAAAAAAAAAAAAAAAAAAAAAAAAAAAAAAAAAAAAAAAAAAAAAAAAAAAAAAAAAAAAAAAAAAAAAAAAAAAAAAAAAAAAAAAAAAAAAAAAAAAAAAAAAAAAAAAAAAAAAAAAAAAAAAAAAAAAAAAAAAAAAAAAAAAAAAAAAAAAAAAAAAAAAAAAAAAAAAAAAAAAAAAAAAAAAAAAAAAAAAAAAAAAAAAAAAAAAAAAAAAAAAAAAAAAAAAAAAAAAAAAAAAAAAAAAAAAAAAAAAAAAAAAAAAAAAAAAAAAAAAAAAAAAAAAAAAAAAAAAAAAAAAAAAAAAAAAAAAAAAAAAAAAAAAAAAAAAAAAAAAAAAAAAAAAAAAAAAAAAAAAAAAAAAAAAAAAAAAAAAAAAAAAAAAAAAAAAAAAAAAAAAAAAAAAAAAAAAAAAAAAAAAAAAAAAAAAAAAAAAAAAAAAAAAAAAAAAAAAAAAAAAAAAAAAAAAAAAAAAAAAAAAAAAAAAAAAAAAAAAAAAAAAAAAAAAAAAAAAAAAAAAAAAAAAAAAAAAAAAAAAAAAAAAAAAAAAAAAAAAAAAAAAAAAAAAAAAAAAAAAAAAAAAAAAAAAAAAAAAAAAAAAAAAAAAAAAAAAAAAAAAAAAAAAAAAAAAAAAAAAAAAAAAAAAAAAAAAAAAAAAAAAAAAAAAAAAAAAAAAAAAAAAAAAAAAAAAAAAAAAAAAAAAAAAAAAAAAAAAAAAAAAAAAAAAAAAAAAAAAAAAAAAAAAAAAAAAAAAAAAAAAAAAAAAAAAAAAAAAAAAAAAAAAAAAAAAAAAAAAAAAAAAAAAAAAAAAAAAAAAAAAAAAAAAAAAAAAAAAAAAAAAAAAAAAAAAAAAAAAAAAAAAAAAAAAAAAAAAAAAAAAAAAAAAAAAAAAAAAAAAAAAAAAAAAAAAAAAAAAAAAAAAAAAAAAAAAAAAAAAAAAAAAAAAAAAAAAAAAAAAAAAAAAAAAAAAAAAAAAAAAAAAAAAAAAAAAAAAAAAAAAAAAAAAAAAAAAAAAAAAAAAAAAAAAAAAAAAAAAAAAAAAAAAAAAAAAAAAAAAAAAAAAAAAAAAAAAAAAAAAAAAAAAAAAAAAAAAAAAAAAAAAAAAAAAAAAAAAAAAAAAAAAAAAAAAAAAAAAAAAAAAAAAAAAAAAAAAAAAAAAAAAAAAAAAAAAAAAAAAAAAAAAAAAAAAAAAAAAAAAAAAAAAAAAAAAAAAAAAAAAAAAAAAAAAAAAAAAAAAAAAAAAAAAAAAAAAAAAAAAAAAAAAAAAAAAAAAAAAAAAAAAAAAAAAAAAAAAAAAAAAAAAAAAAAAAAAAAAAAAAAAAAAAAAAAAAAAAAAAAAAAAAAAAAAAAAAAAAAAAAAAAAAAAAAAAAAAAAAAAAAAAAAAAAAAAAAAAAAAAAAAAAAAAAAAAAAAAAAAAAAAAAAAAAAAAAAAAAAAAAAAAAAAAAAAAAAAAAAAAAAAAAAAAAAAAAAAAAAAAAAAAAAAAAAAAAAAAAAAAAAAAAAAAAAAAAAAAAAAAAAAAAAAAAAAAAAAAAAAAAAAAAAAAAAAAAAAAAAAAAAAAAAAAAAAAAAAAAAAAAAAAAAAAAAAAAAAAAAAAAAAAAAAAAAAAAAAAAAAAAAAAAAAAAAAAAAAAAAAAAAAAAAAAAAAAAAAAAAAAAAAAAAAAAAAAAAAAAAAAAAAAAAAAAAAAAAAAAAAAAAAAAAAAAAAAAAAAAAAAAAAAHJpY2sAAAAFkAMAAgAAABQAABCekAQAAgAAABQAABCykpEAAgAAAAM5MQAAkpIAAgAAAAM5MQAA6hwABwAACAwAAAiSAAAAABzqAAAACAAAAAAAAAAAAAAAAAAAAAAAAAAAAAAAAAAAAAAAAAAAAAAAAAAAAAAAAAAAAAAAAAAAAAAAAAAAAAAAAAAAAAAAAAAAAAAAAAAAAAAAAAAAAAAAAAAAAAAAAAAAAAAAAAAAAAAAAAAAAAAAAAAAAAAAAAAAAAAAAAAAAAAAAAAAAAAAAAAAAAAAAAAAAAAAAAAAAAAAAAAAAAAAAAAAAAAAAAAAAAAAAAAAAAAAAAAAAAAAAAAAAAAAAAAAAAAAAAAAAAAAAAAAAAAAAAAAAAAAAAAAAAAAAAAAAAAAAAAAAAAAAAAAAAAAAAAAAAAAAAAAAAAAAAAAAAAAAAAAAAAAAAAAAAAAAAAAAAAAAAAAAAAAAAAAAAAAAAAAAAAAAAAAAAAAAAAAAAAAAAAAAAAAAAAAAAAAAAAAAAAAAAAAAAAAAAAAAAAAAAAAAAAAAAAAAAAAAAAAAAAAAAAAAAAAAAAAAAAAAAAAAAAAAAAAAAAAAAAAAAAAAAAAAAAAAAAAAAAAAAAAAAAAAAAAAAAAAAAAAAAAAAAAAAAAAAAAAAAAAAAAAAAAAAAAAAAAAAAAAAAAAAAAAAAAAAAAAAAAAAAAAAAAAAAAAAAAAAAAAAAAAAAAAAAAAAAAAAAAAAAAAAAAAAAAAAAAAAAAAAAAAAAAAAAAAAAAAAAAAAAAAAAAAAAAAAAAAAAAAAAAAAAAAAAAAAAAAAAAAAAAAAAAAAAAAAAAAAAAAAAAAAAAAAAAAAAAAAAAAAAAAAAAAAAAAAAAAAAAAAAAAAAAAAAAAAAAAAAAAAAAAAAAAAAAAAAAAAAAAAAAAAAAAAAAAAAAAAAAAAAAAAAAAAAAAAAAAAAAAAAAAAAAAAAAAAAAAAAAAAAAAAAAAAAAAAAAAAAAAAAAAAAAAAAAAAAAAAAAAAAAAAAAAAAAAAAAAAAAAAAAAAAAAAAAAAAAAAAAAAAAAAAAAAAAAAAAAAAAAAAAAAAAAAAAAAAAAAAAAAAAAAAAAAAAAAAAAAAAAAAAAAAAAAAAAAAAAAAAAAAAAAAAAAAAAAAAAAAAAAAAAAAAAAAAAAAAAAAAAAAAAAAAAAAAAAAAAAAAAAAAAAAAAAAAAAAAAAAAAAAAAAAAAAAAAAAAAAAAAAAAAAAAAAAAAAAAAAAAAAAAAAAAAAAAAAAAAAAAAAAAAAAAAAAAAAAAAAAAAAAAAAAAAAAAAAAAAAAAAAAAAAAAAAAAAAAAAAAAAAAAAAAAAAAAAAAAAAAAAAAAAAAAAAAAAAAAAAAAAAAAAAAAAAAAAAAAAAAAAAAAAAAAAAAAAAAAAAAAAAAAAAAAAAAAAAAAAAAAAAAAAAAAAAAAAAAAAAAAAAAAAAAAAAAAAAAAAAAAAAAAAAAAAAAAAAAAAAAAAAAAAAAAAAAAAAAAAAAAAAAAAAAAAAAAAAAAAAAAAAAAAAAAAAAAAAAAAAAAAAAAAAAAAAAAAAAAAAAAAAAAAAAAAAAAAAAAAAAAAAAAAAAAAAAAAAAAAAAAAAAAAAAAAAAAAAAAAAAAAAAAAAAAAAAAAAAAAAAAAAAAAAAAAAAAAAAAAAAAAAAAAAAAAAAAAAAAAAAAAAAAAAAAAAAAAAAAAAAAAAAAAAAAAAAAAAAAAAAAAAAAAAAAAAAAAAAAAAAAAAAAAAAAAAAAAAAAAAAAAAAAAAAAAAAAAAAAAAAAAAAAAAAAAAAAAAAAAAAAAAAAAAAAAAAAAAAAAAAAAAAAAAAAAAAAAAAAAAAAAAAAAAAAAAAAAAAAAAAAAAAAAAAAAAAAAAAAAAAAAAAAAAAAAAAAAAAAAAAAAAAAAAAAAAAAAAAAAAAAAAAAAAAAAAAAAAAAAAAAAAAAAAAAAAAAAAAAAAAAAAAAAAAAAAAAAAAAAAAAAAAAAAAAAAAAAAAAAAAAAAAAAAAAAAAAAAAAAAAAAAAAAAAAAAAAAAAAAAAAAAAAAAAAAAAAAAAAAAAAAAAAAAAAAAAAAAAAAAAAAAAAAAAAAAAAAAAAAAAAAAAAAAAAAAAAAAAAAAAAAAAAAAAAAAAAAAAAAAAAAAAAAAAAAAAAAAAAAAAAAAAAAAAAAAAAAAAAAAAAAAAAAAAAAAAAAAAAAAAAAAAAAAAAAAAAAAAAAAAAAAAAAAAAAAAAAAAAAAAAAAAAAAAAAAAAAAAAAAAAAAAAAAAAAAAAAAAAAAAAAAAAAAAAAAAAAAAAAAAAAAAAAAAAAAAAAAAAAAAAAAAAAAAAAAAAAAAAAAAAAAAAAAAAAAAAAAAAAAAAAAAAAAAAAAAAAAAAAAAAAAAAAAAAAAAAAAAAAAAAAAAAAAAAAAAAAAAAAAAAAAAAAAAAAAAAAAAAAAAAAAAAAAAAAAAAAAAAAAAAAAAAAAAAAAAAAAAAAAAAAAAAAAAAAAAAAAAAAAAAAAAAAAAAAAAAAAAAAAAAAAAAAAAAAAAAAAAAAAAAAAAAAAAAAAAAAAAAAAAAAAAAAAAAAAAAAAAAAAAAAAAAAAAAAAAAAAAAAAAAAAAAAAAAAAAAAAAAAAAAAAAAAAAAAAAAAAAAAAAAAAAAAAAAAAAAAAAAAAAAAAAAAAAAAAAAAAAAAAAAAAAAAAAAAAAAAAAAAAAAAAAAAAAAAAAAAAAAAAAAAAAAAAAAAAAAAAAAAAAAAAAAAAAAAAAAAAAAAAAAAAAAAAAAAAAAAAAAAAAAAAAAAAAAAAAAAAAAAAAAAAAAAAAAAAAAAAAAAAAAMjAyMjowNzoxNyAxMTo0MjoyOQAyMDIyOjA3OjE3IDExOjQyOjI5AAAAcgBpAGMAawAAAP/hCxdodHRwOi8vbnMuYWRvYmUuY29tL3hhcC8xLjAvADw/eHBhY2tldCBiZWdpbj0n77u/JyBpZD0nVzVNME1wQ2VoaUh6cmVTek5UY3prYzlkJz8+DQo8eDp4bXBtZXRhIHhtbG5zOng9ImFkb2JlOm5zOm1ldGEvIj48cmRmOlJERiB4bWxuczpyZGY9Imh0dHA6Ly93d3cudzMub3JnLzE5OTkvMDIvMjItcmRmLXN5bnRheC1ucyMiPjxyZGY6RGVzY3JpcHRpb24gcmRmOmFib3V0PSJ1dWlkOmZhZjViZGQ1LWJhM2QtMTFkYS1hZDMxLWQzM2Q3NTE4MmYxYiIgeG1sbnM6ZGM9Imh0dHA6Ly9wdXJsLm9yZy9kYy9lbGVtZW50cy8xLjEvIi8+PHJkZjpEZXNjcmlwdGlvbiByZGY6YWJvdXQ9InV1aWQ6ZmFmNWJkZDUtYmEzZC0xMWRhLWFkMzEtZDMzZDc1MTgyZjFiIiB4bWxuczp4bXA9Imh0dHA6Ly9ucy5hZG9iZS5jb20veGFwLzEuMC8iPjx4bXA6Q3JlYXRlRGF0ZT4yMDIyLTA3LTE3VDExOjQyOjI5LjkwOTwveG1wOkNyZWF0ZURhdGU+PC9yZGY6RGVzY3JpcHRpb24+PHJkZjpEZXNjcmlwdGlvbiByZGY6YWJvdXQ9InV1aWQ6ZmFmNWJkZDUtYmEzZC0xMWRhLWFkMzEtZDMzZDc1MTgyZjFiIiB4bWxuczpkYz0iaHR0cDovL3B1cmwub3JnL2RjL2VsZW1lbnRzLzEuMS8iPjxkYzpjcmVhdG9yPjxyZGY6U2VxIHhtbG5zOnJkZj0iaHR0cDovL3d3dy53My5vcmcvMTk5OS8wMi8yMi1yZGYtc3ludGF4LW5zIyI+PHJkZjpsaT5yaWNrPC9yZGY6bGk+PC9yZGY6U2VxPg0KCQkJPC9kYzpjcmVhdG9yPjwvcmRmOkRlc2NyaXB0aW9uPjwvcmRmOlJERj48L3g6eG1wbWV0YT4NCiAgICAgICAgICAgICAgICAgICAgICAgICAgICAgICAgICAgICAgICAgICAgICAgICAgICAgICAgICAgICAgICAgICAgICAgICAgICAgICAgICAgICAgICAgICAgICAgICAgICAKICAgICAgICAgICAgICAgICAgICAgICAgICAgICAgICAgICAgICAgICAgICAgICAgICAgICAgICAgICAgICAgICAgICAgICAgICAgICAgICAgICAgICAgICAgICAgICAgICAgIAogICAgICAgICAgICAgICAgICAgICAgICAgICAgICAgICAgICAgICAgICAgICAgICAgICAgICAgICAgICAgICAgICAgICAgICAgICAgICAgICAgICAgICAgICAgICAgICAgICAgCiAgICAgICAgICAgICAgICAgICAgICAgICAgICAgICAgICAgICAgICAgICAgICAgICAgICAgICAgICAgICAgICAgICAgICAgICAgICAgICAgICAgICAgICAgICAgICAgICAgICAKICAgICAgICAgICAgICAgICAgICAgICAgICAgICAgICAgICAgICAgICAgICAgICAgICAgICAgICAgICAgICAgICAgICAgICAgICAgICAgICAgICAgICAgICAgICAgICAgICAgIAogICAgICAgICAgICAgICAgICAgICAgICAgICAgICAgICAgICAgICAgICAgICAgICAgICAgICAgICAgICAgICAgICAgICAgICAgICAgICAgICAgICAgICAgICAgICAgICAgICAgCiAgICAgICAgICAgICAgICAgICAgICAgICAgICAgICAgICAgICAgICAgICAgICAgICAgICAgICAgICAgICAgICAgICAgICAgICAgICAgICAgICAgICAgICAgICAgICAgICAgICAKICAgICAgICAgICAgICAgICAgICAgICAgICAgICAgICAgICAgICAgICAgICAgICAgICAgICAgICAgICAgICAgICAgICAgICAgICAgICAgICAgICAgICAgICAgICAgICAgICAgIAogICAgICAgICAgICAgICAgICAgICAgICAgICAgICAgICAgICAgICAgICAgICAgICAgICAgICAgICAgICAgICAgICAgICAgICAgICAgICAgICAgICAgICAgICAgICAgICAgICAgCiAgICAgICAgICAgICAgICAgICAgICAgICAgICAgICAgICAgICAgICAgICAgICAgICAgICAgICAgICAgICAgICAgICAgICAgICAgICAgICAgICAgICAgICAgICAgICAgICAgICAKICAgICAgICAgICAgICAgICAgICAgICAgICAgICAgICAgICAgICAgICAgICAgICAgICAgICAgICAgICAgICAgICAgICAgICAgICAgICAgICAgICAgICAgICAgICAgICAgICAgIAogICAgICAgICAgICAgICAgICAgICAgICAgICAgICAgICAgICAgICAgICAgICAgICAgICAgICAgICAgICAgICAgICAgICAgICAgICAgICAgICAgICAgICAgICAgICAgICAgICAgCiAgICAgICAgICAgICAgICAgICAgICAgICAgICAgICAgICAgICAgICAgICAgICAgICAgICAgICAgICAgICAgICAgICAgICAgICAgICAgICAgICAgICAgICAgICAgICAgICAgICAKICAgICAgICAgICAgICAgICAgICAgICAgICAgICAgICAgICAgICAgICAgICAgICAgICAgICAgICAgICAgICAgICAgICAgICAgICAgICAgICAgICAgICAgICAgICAgICAgICAgIAogICAgICAgICAgICAgICAgICAgICAgICAgICAgICAgICAgICAgICAgICAgICAgICAgICAgICAgICAgICAgICAgICAgICAgICAgICAgICAgICAgICAgICAgICAgICAgICAgICAgCiAgICAgICAgICAgICAgICAgICAgICAgICAgICAgICAgICAgICAgICAgICAgICAgICAgICAgICAgICAgICAgICAgICAgICAgICAgICAgICAgICAgICAgICAgICAgICAgICAgICAKICAgICAgICAgICAgICAgICAgICAgICAgICAgICAgICAgICAgICAgICAgICAgICAgICAgICAgICAgICAgICAgICAgICAgICAgICAgICAgICAgICAgICAgICAgICAgICAgICAgIAogICAgICAgICAgICAgICAgICAgICAgICAgICAgICAgICAgICAgICAgICAgICAgICAgICAgICAgICAgICAgICAgICAgICAgICAgICAgICAgICAgICAgICAgICAgICAgICAgICAgCiAgICAgICAgICAgICAgICAgICAgICAgICAgICAgICAgICAgICAgICAgICAgICAgICAgICAgICAgICAgICAgICAgICAgICAgICAgICAgICAgICAgICAgICAgICAgICAgICAgICAKICAgICAgICAgICAgICAgICAgICAgICAgICAgICAgICAgICAgICAgICAgICAgICAgICAgICAgICAgICAgICAgICAgICAgICAgICAgICAgICAgICAgICAgICAgICAgICAgICAgIAogICAgICAgICAgICAgICAgICAgICAgICAgICAgPD94cGFja2V0IGVuZD0ndyc/Pv/bAEMABwUFBgUEBwYFBggHBwgKEQsKCQkKFQ8QDBEYFRoZGBUYFxseJyEbHSUdFxgiLiIlKCkrLCsaIC8zLyoyJyorKv/bAEMBBwgICgkKFAsLFCocGBwqKioqKioqKioqKioqKioqKioqKioqKioqKioqKioqKioqKioqKioqKioqKioqKioqKv/AABEIAVgBUQMBIgACEQEDEQH/xAAfAAABBQEBAQEBAQAAAAAAAAAAAQIDBAUGBwgJCgv/xAC1EAACAQMDAgQDBQUEBAAAAX0BAgMABBEFEiExQQYTUWEHInEUMoGRoQgjQrHBFVLR8CQzYnKCCQoWFxgZGiUmJygpKjQ1Njc4OTpDREVGR0hJSlNUVVZXWFlaY2RlZmdoaWpzdHV2d3h5eoOEhYaHiImKkpOUlZaXmJmaoqOkpaanqKmqsrO0tba3uLm6wsPExcbHyMnK0tPU1dbX2Nna4eLj5OXm5+jp6vHy8/T19vf4+fr/xAAfAQADAQEBAQEBAQEBAAAAAAAAAQIDBAUGBwgJCgv/xAC1EQACAQIEBAMEBwUEBAABAncAAQIDEQQFITEGEkFRB2FxEyIygQgUQpGhscEJIzNS8BVictEKFiQ04SXxFxgZGiYnKCkqNTY3ODk6Q0RFRkdISUpTVFVWV1hZWmNkZWZnaGlqc3R1dnd4eXqCg4SFhoeIiYqSk5SVlpeYmZqio6Slpqeoqaqys7S1tre4ubrCw8TFxsfIycrS09TV1tfY2dri4+Tl5ufo6ery8/T19vf4+fr/2gAMAwEAAhEDEQA/AMcU4UxTTxXyx+goeKcpzTRTgMVLNUSCnCmCnioZQtKKSk71JQ8daWmU8dKAFAp3am0uaRVjoPCV55OoNbucLMMj6iuywDXmEMzW86SxnDIQRXo9jcrd2sU6Hh1zXo4aV42PGx1O0lNdS1gYo2c5oFOPA5IFdR5wbaRkVkKtyCMGo5LqNE5cD8aqtqtqn3pl/OgLPc4XU7Q2WpTQH+FuPp2rpPCN7vgktHPKfMn0rJ8W31kZI7oTplhtbB9KyNI8SadY3q3D3QAXgqFJ3A1wxjKnV0PZlKNfD+Z6gDk8U5VJNci3xA0VcbJXf2CGkT4laSr7THcE+nl128yPK9jPsdiwpnQ1ycnxM0lOttdg44BjqCT4mWSsNunXTA+oxS5oi9jU7F3xbZ7hFdqOnyP/AErlsVtXXxB0e/s5IbiyvI4zwWC5KmsUaz4ceQg3d5GMd7bP9a4qtPmleJ6eGrOFPlmnoFKKsLd+GW/5jkqZ/v2jf41KsOjy48jxFYtnoHDJ/SsfYTOn61S6/kymKdVsaYzyBLa6s7gk8eVOpz+tWJfD2qxrk2bsP9jDfyrN0proV7el/MjLzQDUktrcQtiWCRD/ALSEVFWbi1uapp7Dqdmo8+lO3VIySq97ZQahZyW10geNxj6e4qUGnCnGTi7omUVJWex5JrujzaLqBgk+aNuY3/vCsuvXde0aLWdOaBgBKozE+PutXk11by2dy9vcLtkjbDA19bgcWsRCz+JHwmZ4B4WpePwvb/IjppNG6kJr0DygJpM4ozTTTGLmikzRQB6mvSngc1Gp4qVea+MZ+koeKfTBTutQaoeDRSCnYqWUKDS5pvTqaikuoYv9Y4FJJsq6W5ZzSg1nHU1Y7YI3kPsOKN1/P91EiHqTk1apvqT7SJos4UZJxSNIiAl5EQbd43MBke1ZbaY8v/HzdSH2XgVKmmWseP3e4j+8c1XJDqyHUm9kD61bAkIWc/7K5rZ0bxhcWtgYUtZSVYldy9qz1REHyIo+gp4NXBqDvEzqQdRWmzY/4SvVJsk5iHbpUUmtXs2fMupQfY1lk+9N3Gr9tMyWFpIvvfysOXcn3aoTKxbJC/jVYMaUbj3pe0qPqaKjRXQkmiiuUCzRo4ByARTEtoI+EhjA/wB0U4K9KcjrUNy6mijBbIAqL0RR9Fp2RnPGfWo949KOewqdS7IlPPJOfrS7vU1EA56CneXIaQD93HtTcL/dH5ULbyN0FSizlPagLIhKo33kU/hTGtrd/vQxn/gIq6unserxj6tUqaWrH5rqJf8AgVGonyoyvsFof+WCD6DFOjtVhbNtc3NufWKZlrbj0a2P39Tt1+oNW4tB05vv67ar/wAAarXP0MpTpfaX4GJHeavFxDrV3j0kfcP1pz6jq7f6/wCy3Y9WjCn8xXRL4b0f+LxJag+0Zo/4RWydv9H8Q2Lf7+VrTlqsx9rh1tp8n/kcq2pyKf3+nOnvGdwp0eo2spxv2H0cYrqW8Gzhcw6rpsvsJ8f0qpceD9Q2nfFbzr/sSK1ZTpy6xLjiKT2kZakMMqQR7Gng1FLoU9q3yrLbkenIqE/a7fqomXvjg1zOHY6E7lzPpXL+MPDv9p25vLRP9KiHIH8a+n1ro45g47qe4IxUowaqjVlQmpx3RlXoQxFN057M8NIIODwR2pDXX+NvD/2O4/tG1T9xKf3gA+63r+Ncea+zoVo16anE/PsTh54eq6c+gE0lFIa3OcKKSikB6otSCoVNSAgda+OZ+kxJhTsgVQl1CNG2oDI/oopgW8uOuIl/WjkbH7SK0RfkuY4h87AVAb95OLeFj/tHgUQ2cUZ3SEu3q1Tlwo+UYFHKkDnJ+RWMFzNzPMFHotSJaQRjldx9W5p3mE00k+tVqSSghegAHsKcJKg3etHmCizDmLHme9HmVXDelLvxRyj5ywHoznvVfzPSlBY9KVrbhzNk4570YGetRBT3NPBVaXMkHK2SAr2GakDMOgAqDzwKYZ/elzvoWopblssxHzNSZXPPNVPNo8yldsv3UW96elHnAdBVMyUnme9TYfMi99ox0FN+0t24qkZRTDPjvT5WLmRofaXHek+0uerfrWcbtR1NMN9GOrD86rkkT7SJpmY+tHnNWSdThHWRfzph1i3H/LVfzp+zl2J9vBbs2POb1o81qxf7btv+ey0f23bdplo9lPsL6zT7m55p9aUTH1rDGtW2f9cv51IurW7dJVP40vZT7D+sU31NkTEdz+dSJdSKflkYfjWOuoxHo4P41Ml6h6NU8kkX7SDNgahcdPOcj3NO+2ufvc/hWUtwp71Iswz1qGmX7vQ0hOrdVFLvXtxVESVIHqWOyJrqCK8tZLecBkkUqwNeZ6r4N1OxkkeCL7RBn5Wj5IHuK9ID1IrkdDXThsXUwzfLs+hw4zL6WLS5911PE3Ro2KupVh1BGDTCa9h1PRNP1iPF3AN/aRRhh+Ned+IfC11oh85T51qTxIByv1r38NmFKu+V6M+TxmU1sMnNe9EwM0Um6ivRPGuj0yS7WP5V+ZvQU0RXFzzM3lp/dXqaWGNIhwOfWpt9fKWtsfoXM3uOhhitx+7UZ9e9TeZn2qvuo3ijlGnbYnLk00n1NQmXFRtP70+UHMsmTHSmGWq3m+tKsoo5SecnLE0A1F5gpfNxS2He5ZAzTsKByaqiYnpQXJrNtmqsi15qr0pPP9KrBvWlLCpL5icyk0heoPMxUclyqDJIp8rYnUS3LW+k31kT61bxDmQZ9jWZceJQP9SpPvW0aEpdDlnjKcd2dQZ8d6ie+ij+84/OuJm1y6lJw20e1UpLqWQ5Z2P410Rwnc4p5kl8KO4m121j6uD9DWdN4oiGfLUmuT3E9TRmt1hoI5Z5hVltob8viiZgdiAfjVWTX7x+jY+lZWaTNaqlBdDmliast2XW1K6frM351E13M33pWP41XzSE1fIjF1JPdk3nP3Yn8aTzD61Duo3VVieYm8w+tG8+tQ7qN1FhXJd59aXzGH8RqINS5qbFXJhcSjo5H41LHqFzH92Zh+NVM0ZpWXYpTktmaqa9ex/8tCfrV2DxVcL/AKxQ3PaueoqJUqb3RrHE1o7SO2tvFsLYEgZTWtba9azkbZR9DXmmacrsp4JH0Nc8sHTex208zrR+LU9biukcZVgfxqwkoNeU2+rXlvjy52x6Hmtuy8XypxcrkeorkqYKa+E9KlmlOWktD0BXomhju7aSCdQ8cg2sCOtYlhr1rd4CSDPpmtmKQMBivPnTlB6nqRlCpHTVHI/8K/g/56H86K7PIorq+v1u55/9l4b+U5YPzS7xVTzaa04HeuzkOf2li4Zfemmb3rPe8UD71V3v/Sn7NszlXSNKS4AHWqzXYB61mvcu9RFiTya1jSOaWIfQ1ftY7GnLcE1kCTFWYpcgUSikEKrZqJITUytWfFJVgSgdTXNKJ2wmrFoNineZxWdLqEUK5Z/1rMufEPUQj8acaMpCniqcN2dE06pyzACqNzrNvD1fP0rlbjUp5ydzEA1TaXPUk10wwq6nDUzB7RRv3PiJ24iXHuay59RnmJ3yH8KoNMO5qJrqNc5YV0xpRjsjz6mJnP4mWi+epppf3qk1/GO5NRtqC9lNaqLOd1EaG/3pN9Zhv37LimG8lPQgVXKyPao1txo3+9Y5uZj/AMtDTl8+T+M4+tNQuL2prFveml8d/wBaoCI/xSMaZJEFGQSfxqvZE+1NHzB60bwe4rPjRSdpzntzUnkr7/nR7Jh7Uu7vcUZqg6BcEE4z60KD5m0MwGOOaPZsPal/dSbqqASr0kz9aQ3Eith1zx2pezZXtEy6HpwaqaXMbcHg1KGB5U1HKy1K5Y3UoaoNxHXmlD1LRXMT5o3VEG4pwOaRVyTNKKYDS5oGPpaYDThSGSJK6MChKkdxXVaD4pdHSC8PBOA1ckOtOBwc1lUpRqKzOihXnRleLPXP7Qg/57L+dFeWfbp/+erUVwf2f5nr/wBreRrG8k7VEZXY8k0zNBNdlkea5SYp560lJmkzTIY7OKaWFNJpppoQFqfFNsPJqBnxVWWany3J5+U1zfoneqlxqzMMR8VnlhjLttH86rTanDDxCuW9TVxopkTxUkXP30/zOcL6scVFLPawDLPvI9OlY899LO3LED61VdietbqmkcUqzZpz6orH92vHtVOS8kc/LxValq7Iycmxxdm6k02iimSFFFFABVmJlnCxOAG/hf8AoarUqnawI7UAOIKS7GGMHBq4iAL8pqvd4aRXX+Ic/Wprc5iFXETJMUmBTqMVoSVSfKkHsf0qznIqGdOh/CnwtujHrU9RjiN2VNQ5JTPdTUzA4yOoqEnEmR0YVQE6tuXIpJFyMjqKjiPJXPTpUpJUZ60AV2G9cgfWkUPGxKkkVKpAJGPemA7f+AnB+lS0NOxJHdZ+VqsAq/Q81Qlj+YlabHOyHBrKUexrGfc0+lKGqKKZZFxT9pXpyKysapkqtTs1CpqQGpZoiRTTxUS1KKRQ4Cnjim07tQUFFJiikBqUZpKSsDpuLRmkzTC4AoE2KxxUEkuKZLP1xVOSXJPNaRiYymPknJqtLdLGCSearXN0EGAeaz3cycsa6YwOSVQnnvHlyFOBVbJooqzBu+4A0GiigQUUUUAFFFFABRRRQAUUUUASE7oR/smpbQ/KRUCHnB6GnwtsmwaqO4mXTSUtJitSBsg3RmoYDiQr2PIqxiq5+VwR2b9KTGizVeQbW9s5qxTZE3pigCEHbIPQ1PVfGY/ccVOp3KDSQyOUbcMO1NJG4H1GDUxGQRUBXdGf7y0MB/WMH0NQzxYfI9KmHIYeozSkblU9+lICqkhjNaVvOJUrMkXEhFLFIY2yKzkjSMrGqyFTlelKrZogmEq0Mmw7h0rKx0Jki9qmWoU5HFSqag1RJinduKaOlT2sRmuoox/G4FJuyuXFNuyLH9nyen6UV2f2FP7porj9uz2fqi7HIZpM0hNRSSha2SueY3Yc7gDmqkku7vgUyWcnvxVUu0jY6LW0YmEpkjy7sheB3NULq6CfKnWn3U4iTA69qy2JYkk5NbRics5dAZizZPWgUnSlrQwCiiikAUUUUAFFFFABRRRQAUUUUAFFFFAAOCKcThg3vTaUHK/SgC+jbkBp1QQOBEcnpTzcIO9bXIJKhlTr7ig3K+hNNeZXGNpzRdASxtujBp9QW5yGHvU/agCu/wAsxHZqdB0ZfSknHzKfeniSJpsopQbAGBOcml1GPqNhiQ1J9Ka45FMCNeGH1IpQ2FZT65FIerfnT8ZY/SkBDOvzZHpVerf3mGfQ1UqGMs2kuyTBrVDB15rCB2tmtW2k3xrWcu5vTl0JSpQ5XpU0Tq/1pnWtCw0C71Ft0K+Wn99uBWMpRSu2dVOE5u0VciA9a2PDVr9o1qJsZWPmr9p4GmmgO/U7dJB0RlIz+Nb3h7w8+kbzcOjuehWuKviIKDsz1sLg6rqLmjoaX2f2oq5ken6UV5PtGe/7M8keUAVSkk3EnNDycZNVZHLHatfRRR8VKQpJdsCklkEMRNOUbV461nX0uWCA/WtI7mMpWRWd2kcs1NoorU5QooooAKKKKACiilxQAlFLinLGxxgUAMoqYWzGpFtD3oAq4pdpq8tqo608QoO1AGeEY9qcIXPatDYvpS4HpQBQFs9PFo1XaM0DK0dpg/NVkWYHQClB5qZH45qkyWiH7N7UG34qffSb6oRVS02SEg9al8g+tSDO6nimBVktSy4J71CbNg4zg1oHpUbDLcUgK4s2HIP60NbS465q2GIAwM04MSOlO47FA20m78Ketu27J44q3igClcCp9kbeDkVCdPJOd9aOBmozUyAomwJBw9WdMsppLpYOPm6GpRViyl8m+ifphhWcr8rsa0rc6vsdjpfhuzt1V7hfOk6/N0FdBGiqu1QAPQVSspd8Qq4rV87VnKUtWfcUKcIR9xEyrzxWhB/q6zlOMVoW3KVzVNjthuS7aKkxRXNdmtjwhnaU4QbV9TTgoQcU7Hy0019gfnojthSaxZGLyFj61q3LbYD9Kya0itDCo9bBRRS1ZkJijFLS4JoAbS4qVYyeoqZYR3oAgWEnFTLbetTAYp4oAhFuo61IqBegp9GKLDEFLRRiiwAKMUClpAJS0UUAFFFAoAKcvDUlLmmBLszS+WBSI2RT+tUITGGpaTvThVCGt92k/iX3px+6ak+zyfZxcBD5YYKW7A+lDDqRL1p9IB89P281NxjD94Ufx1IY+lJs+Y0XAjPNMYVNtqFu9JgNpQcEfWkopDPQ9JffaRP/AHlBrUWuf8OTeZpsWeq/LW+pr5usrTaPusLLmpp+RKDWjZHKmswVoWJzmuap8J2Q3LtFLRXNY21PDcU0rTu1Ia+uPz4qXvEJrNA4rSvv9XWcOlbR2Oep8QmKMZpwBNSKlUZjVSpljFOVcU7vQAoUY4707A/TNKF547GnBOR+VAxuP508Dn/gWKcEyB7j9RS4+UkegamIZjp9MUmOPwzU23BPswP50bPmA9yKAIiP50n1qTZ8v1Whh1/A0ARUuKcRjNJSGJRRRSAKBRQKAFooooAfG3OKlFVx2NTqc1SEKeKcORTX+7T1+6PpVXELjAqRGbyzHuOwtnbnjPrSLyR+FSomVLADgZ5PoalgRomWUkcHH60/GSD9D/SrH2fAI443fpzTvs+SRgdSB+WRUjK4TOCf89qbsIxn/Parv2Zm6D73t/eXI/Wl+yu+SFJyCRx6jI/lRcRn7emf89qrOuCa2Hs37Ie+M/TcP61nTRlSSR1NG47oq4pKkI7GmGgZ1HhWXNtIn91s11KNxXFeF5Nt1Kn94ZFdejcV4mLjaoz63Lp3oItBqu6e37w/Ss0NV3Tz+/A9q4Jr3T1YPU1t1FGKK5Dp1PEDSGu9/wCEPix93NRSeEI+cLX0ixVM+ReW110PPb0fuTWcK7XxF4bNhpclwAcDH864sCuyjUjON4nlYmjOlPlkh1PSoxUif0rY5iZRT1GcUwe3pmpV4yfQg0AKBkfUZqTHUj2aljUlgO2/b+dWYIC+wY+8rJ+IpARBMH2V/wBDSpFyB7lDVoQbozjq0W78QalNucOwGQNkvA7GmBT8v5AT1ZD+YpGThm9lcVprZusvzLgJNtOewYUsWns5jj7kvCRjuORU3SEZbR4b2D/oaj2YAHsRW4uj3E0O6OKR91uZBtX+4eagv9LmsZJBNEyH93Mu7urDrVJNoLpbmORxn2zTCMVZePYxX0YrUBHT6UFEdGKcRxSUgExRilooAKKKKAFxT0NMpymgCU8rSqeRTc0KeadwLCe3of05rqvDPh8a1dx25nSITSeVkjON65H6iuTjb5h/n2rqvCuq/wBn3aSH/lmUk/GN/wDCufEOSg3Dc1owjKXKzsLH4fwyrbyz3ZUSLbyPiL7ocmNvybFWofANtEqPPLOdqRu/ygY2ymNx+RU12DMsizxWzllVrqKPHRiMTJ/I1ZZfOZ1XOyaSRU54ImhDg/8AfaVUGnHmW36L/NBKKT/H9V/kcivgXTraJmkE5MKuWy3/ADxmwfzQ1dTwPo9pLh4WZYmOSznkRygH80kH5V0Ee26mQk/LcPGT6Hz4NrfhvWnQYu7dGYjNwqbmPYyRMjf+PKtVr/X3f5Mhxit/6/pO/wAjDHg7RoCoexRvK2BwWOTsmZG/8cZa8d8VafHY6pLbxrs8qRoiB6qxU/yFe9Xcge2Z2KDzwzZ7nzIe3/A4jXh/jW6S91qe4iUKJiJcDsWUMf1zW1PWEm/6/q/4HNN/vF36/wBetzknqI1LIOaiIqDc0/D77NVUeqkV2iGuC0yTy9Ugbtuwa7xfu8V5WNXvJn0WVSvSa8ydTVuxfFwv1qgDVi0fE6fWvNktD3IvVHR5oqLdRXJY7bjI23xqR3FBXNVNHn+06dG/fHNXq0krSsKnLmimc341TPhe5/D+deP9K9n8Xrv8MXg9Ez+teMkcn617mXP90/U+Tzxfv16CAVIg5plPTrXpngkyDkfiKmVdy+5X+VQqe/vmrEXDL/vY/OkBZhjLbtoydoeux07wfe3CSzIihIZ4XJd8fLJxn6VyllhZI89w0Zr1bwTe/wBp2s9q337nSymSf44jkfoTXPVqODV9rr80vyub0oRnF36fp/wCtafDqSK9iiubiJBDqDWcmwbsB1yD+oq7YeAbST7LFM8ztNBc2rj7uJI+VH6V1Vwxlt766iI3T2VvqSbezoQG/HirNw6W11cSjIWDUYLxN3dJRtb8OT+Va30uuqv87X/OS+4j2benXb56L82/uOXTwtp5sZJktVDXGlpcoXJP7yJsOB+laj6RaWj3U9vFEix3VrqCFYxwj4Dc+nWtW3i8i8tYn+WO3v57EjqAsqhl/Ur+VQW0Zntba3O7M9hcWLY7vEx25/Bf1qvdvpt/X6Rf3lLlfvW3/wD2vyS+8ji0qGC6gtmDFbfUZrY44HlzISB/30R+VcP4306Madp0yKys1rLZSbjn54m4/Qj867q6u2ktLm5T5pJbK3v1Po0TYb+ZrgfH2pJHqF5aKMqt+t5G2eAkqDI/MV0Yd2vJ/wBd/wAZfgceJTvGPX9Vp+Lcjze4+YlvVVf/ABqs4+Y/7386tTDDBTzhmj/wqoxyPqv8qxNER4/wpDSnqcetIetBQlFFFIApRSUtABSjrSUooAfmgHmko6GgCVTx+eKvWz/vc5wM/ow/xrPU9PrU8QYq2zkquT+BoeqA9U8GeM1tzDHfuxBkt5CTz0zG/wCjV3kF3GLdZVkBMMa5wepgmII/74cV88xTFchSQPmHHvzXQaX4ouLGT5SHV94IY54kTaf1ArjjSlTfu7aaen/ANXUvq/67HtkoNvFMikF4lmUFfWKXzUA/4CalmmS2adl4WJpSvHA2ssyj/vnfXmC/EO/aRHIiHzRkjb6x+U38s1Rl8d6rLbqj3AX5U3YUc4UxnP4Gt4pte9/XT8rGEpWXuq/9f5No7Dxb4ogs7aWCzuUd0YoOOmyQSL+auRXkd/cebK5zkAkD6Bv8DTr3UJbuUPM25iFBJ+m3+grPkkJ/Ef0rfmurGUIO/NLchc461CakkOTURqTcfCds6Hphh/Ou/hbKL9K89BwQa7qxl8y1ib+8grz8atEz2sqlZyRdzzUtucTL9ahFSRHEg+teW9j6CL1N/fRVfzBRXPY7TL8IXHmWbRE8qa6QiuG8KXPk6l5ZPDiu5JyK0xEeWoc+Bqc9FGP4lTf4dvVA/wCWTV4mwwx+te76nH5mm3K9zEw/SvC7gYmNellr92SPDz2Pvwl5EdOWkoHFesfOE6HP5VMp+X8AaroelTIfu/UigC9HJtLMD0dXFdN4c1xtH1C3lU8Q3BDD1VxgiuRjbIA/vIR+VWFmPzY7orfiKzqQU42Y4ycXoe7eGdatL2HSLUurSsbmwlT1U5ZP5AVpxBrqxiRs5uNKkgYnnMkBGP0DfnXh1nrE1nMZoHZHimjnVlOCDXV6V44n0+SBnHmfZ9QaQ726rIpBFYw56W2vVfi/8vuNpVVJN7N/nr+sj0i5uHlF7dLj57S01FAvZ0JDn9P0qeZxbXk0qfcttViuFPT93OoBH0y36V5zD44naG3tm2IqwXFmxAzlScisnUfF97e2ZU3En76xRWwcfNGeP5VunrZf1svyv95lKqm3Zaf8N+kV952+r61DpcMMDxZEU13p8iludj/Mo/QV5Rf3j3QQysSxthGST3Q0t7qclxNNLK5dndJtzHPPQms+STMhz/DKfyNbc91+P6/qcsYycuab1/q/4tkc0m5mb3V6gYc/RiPzpx5UD1Ur+VMJ/kDUm5GRx+FJTyPm/Gm4oGNxS0uKXb/OkA2jFOxx+FAH86AG0uMUoHH4U7GfzoAQCnAZFGMr+FOHDfjQAmKu6Y6fbRHIcJMDGT6ZH+NUx1z9DSqSvTqOn1BoAmBZPlf7yEZ+o4p27A46gfyOaSaXzbh3/vMSfxFMDdD9P8KALJnOCAfXH8xQZid3Pc/rz/Sqwbpn2/wpA2OvoKAJZJc5x6k/1qF26/WkLU0nK0AITTTQTTc0ALXY6M2/S4D6DFcdXW+Gzv0sj+65FcmLV4XPTy1/vmvI2E61Kv3xUSdalX7wryGfSxL+73oqHJorA6rnH6bN5GoQv0+Yc16ZGwkjDDuM15UCQQe4r0bQ7j7TpMbZyQMGurGR0UjzsrqbwLsi7lZT0IIrw7V4Ps2pTxH+CRl/WvcmryHxtb+T4kuuOGIcfjVZdK02iM8hejGXZnO0UlFe6fIkqnipAf05qAGpFNMCwpwfo386lQ42/itVweD9Kk3fzBoAsxyHaB/eQqfqKmM52ue7IrfiKpK2GHs386crcKD7rSEaBuiJGYdpA459RzTBL8yr/cdl/A1TD5X3KY/KlMmST9GosFictlVB7qUP4UxnypP95Q34imlvm+j5/OkHZfqtAClsP9Gz+dN29B9RQOR9V/lTj1J/2gaBjCMjPtmkxyfrUoXoD6laAh2+5X+VADAmcfiKMd/YGpduG/EH8DTli4C+7JQBCV7e+KTb8oP+zn8qnKfKSP7ob9cU4xEPt/2yv5igCEJ83tux+dLj5fw/lUgT93nvs3fkaeIsyEY/jx+YpiuQhOSMd/50bTwe4ANWDHhM4/hB/I4pREPM29izJ+dICuUxn6kf1oAy2T0yP1qy0Q27s9QrfrimGBwpGOcMPyNAbkA6D2GT+FBGP1qd4cH6k/kRUJHy/gD/AEoGMJxnFIWpKQ0AG6kJopKAA0lFFABXT+E3zDcR+hBrmK3/AAo+LyZP7yf1rnxCvSZ24GVsRE6dakU4YU0LinAcivFZ9YWN9FR7KKzsbXOMrsPBt1mGaA/wnIrj61vDl0bbVkBPyv8AKa9CvHmptHg4Op7OvFnoDDPSvOfiLZ7L6C5xxKhQ/UV6SFrlvHln9o8PNIBloHDfh0P868/CT5KyPczGn7XDSXbU8i6UUrjbIRSV9MfBCg08Go6cKYEwNODVGDThQBIGp+7AOPUGoQadnigCVT8w+uKM5x9CKYDSg8/jQA/OQfoKkzjJ9wajUdPrinqM/iMUASAfMB6Pj86ekZZVGOqsPxBpEXOT/shh+Fbtlot3clngt3dY50DEDpvHFRKSW4rPoYxTKswH8Kv/AI1IITvPs+PwIrpYvCV/mOOWJULSTWpDNyHUbsfrUA0K4a38yNHcvbCYBEJ5VsNVCv0RhCIsiju0bL+Kml2HcX6jKSfn1rq4vCeom44tJSqXMeWZcDbKvH8qtQeAtRkjSF4443ZLmDDNk74ucUr7L+v6sH9fqccLf5tuD95k/qKURFk3f7Cv+Rwa7hfBbhPPadNvlW92NqH7rNsb8q0YfAKC5S2keVibmezOFA6rvQ/jSvYdn+f4bnnYtCJAuCf3pT8GHFC27mItjB8rdz6q2DXpMPg+L+z/ALS1uxP2KC8wz90bEn6VqJ4Ns4r37OYYgBey2+Wy2Eki3r+Ros07P+upXI18v6/Nnk6afI8mzGf3hTjn7y5FWIdMuJYfOWNjiNJjhD/C2Gr1aPSoYLMXCKiuLW1ufljHDRuY2/Qc1p/2LGsrWqbgPMvbNcns674x+maNev8AXcOVp6+f4bnk8HhHUZ5DAttLu3yw4xjkLvA/Kr1v4E1KeSNvKRVZoWy7gYEowP1r02ARri7cE82V4cHqDmJvzNL5TwWMkYKebFbzxjI/jgn3A/gppWl/Xff8jTkV7fL8L/8AAPKtR8E3lhpzXEhgwluZCFYk5jk2uOnvXIXcHlSOOOCw4/MV9B6yLYzXMDtEkU0t1EpyPuSxeYn5kV4Pq7K9wzAg7wjkj6YP8q6LRdPmXf8ADp+Bycz9pb0f3mOe9MJp7Hj9KjJrI2Ckpc0lABRRRQAVreHH26ug/vKRWTWhoRxrVv7tis6qvTZvh3atF+Z3uw4oAqfZ8uKb5Rr5/mPteUbzRUmw0VJpY4anRSGKZXXqpzTaSvW3PlU7O56nY3H2mxilXoVFQ6nai80+e3P/AC0Qr+NZfg+982wNux+aM8fSuiZRivEnF06h9dSmq1JPujwC8haG4ZHGGQlW+oqvXXePtK+xa00qLiO5HmA+/euQr6alNVIKSPg8TSdGrKD6C0opopa1OckWn0wU7NMBwpwpgpw6UgHindqYKcDQA8H/ABqVSAR7NUA6fpUgOc/T+VAGlp8QkuooyOGLJ+hxXsmkabANBzAjl73SVnGX/wCWkLgH+Zrxe1mMUwkXgo6uK9B8OeM10/7DHdq0sVvJNCV/2JF6fnXJWi/aRla6/wAtf0R0U5xjHXf/AID/AFsejyx2qXtxOscQWO8tdQBI/hkADfyp0NuEu7e0GAkd3d2B2Lj5JEZlrgx47WbTxCIFVpNMa2Jdud8bEqatS+PYna4ug4V2ktLxQo5yMK/6CteZ2t1t+KVl+LbMm4LRen5RX4XOrkzLphLghptLVwPWS3fH54IFW3McWqPMoQBNRt7lf9yZQrfhnNcRH42tYbyMBJJVjvbmLsN0co3D9azpfHUkmmmJYlV300W+4tk74m+Vqpy5233/AOG/JfiHPF79f87/AJJI9CiiHkRWmdu6C7sD8vOVO9P0Gae0+d96AwG2zvwSenGx/wBAPzrze48fXzXcs8TRp/pcd0uB03JsYVmy+LNQkgW3kuH2+TNa4HGV3bgKrm5tbf03d/hoHtUtbdn+r/E9aES+abWYAjz72yYZ4w4Mij+QqvJqkC27XM9zEu62tbz7w5aN9j/jyBXkk3ie7lfz2uJSxeG4bLfxAYJqo+pNtEZOeJYfwPzD9aXvNW/re/8AwCOdrT+u/wCZ69Pqulx3D2kl6mPMvLU88YkAlU/TJxVI+N9LEqXPmszM9ndkAE4JGyQfgK8pOpOW8wtyTHJ+IG01WkuiEMe48JJHj6HIqnd7/wBX3Epy6+X4b/eel3XjSzWz+zQQylhb3FtknGNsgeP8hmqd34/Et4WS3XZJNuIZv4ZYQrD8WGa8+NyWfcT/AMtA2c+q4qu85Ccnog/8dNGv9f12M+V9X/V7nUX/AIuuru0RX2rhYHb6x5T+Rrl5pAykHqNw/I5pkkmSV7EsPz5qIvn8Tn8xVK6Vhxik7kMmMn6/zqM0880wmkaCUUUUAFFFFABV7Rif7Ytsdd4qjV7RF365agf89BUVPgZrR/ix9UenCPhc9cUpSrvk/KPpUbR18yz9A5SDy/aip9hopcxXKeaYpKWivaPjjY8M3v2TVEDH5X+U16JjK15JG5jlDr1BzXqWjXIvtKilHJAwa87Fw1Uj3csq3i6b6GH440n+0fD7youZbb51+nevHJF2ORX0lHaicFXXIbgg968h+Ingm58LamkpjP2G8y9u/bHdfqK68vqe64M8/OqK5lVXzOJHWlpCpVqM16x84SA04VEDUgNADxThUkSRyrjeEb3pWtpV5A3D2oAjHenDvTcFW+YYoJoAkU8U9eoz64qEHj8Kfnr+dAFiN+w7qR+VWVuSFY5/uv8AiKoKcOPrUit0+hFIRordbZAewlJ/BqRZztVD/wA82jP4ciqJbKn/AHQfxFPD/MT/ALQP5iiwWLrXDHLKeyyD8OKes37wAnpKR+DCqAboD6MtKZDtJ77VP5UWCxb84+VjJ/1RX/vk0nnnzN2f4w/5jmq3mYf23n9RTN3ygf7GPyNAWLO87Nh/usn5HIoMp3bs/wASv+mKr7/mz/tZ/Om7vlxn+Ej9aYFgufu57Mv65pPMy249yG/MYqHf82fcH9Kbu4/4D/KmFiYv8uP9nH5GkZwePUkfnURbP50hbP5Uhj9+cfgabnimHjpRmgBabjNBNGaAEoozSGgBc0ZpKKAFzWx4Ui8/xRZR+r5/Ssauy+GWnfbPFPnMPlgjz+JrKs7U2zqwkeevBeZ6dJYMkYOM8VTeE7wMdTXoMGmRT2gBHOKz18NPPqsUUafKxyTjoK8GVLsfYRxkLvm6HK/YW/u0V1P2SL+8KKy9my/rSPneilxSV7B8wJXX+BtT8u6NnKfkfpmuQqexuGtbyOVTgqazqw542N8PVdKopHv+h6Ybi+SMrkFhXVePvBFl4s8C3GkSqqTQx+ZbS4+5IBx+B6Gsz4Z30GrWKTZBmhGDz1Fd/OVWBzJyoU59xVYSCjFzM8yrSnVUD4Fu7OWzvJbW6jaOaFirqwwQRVV4sdK9t+MPhZdUvpda06P/AEpD++Vf+Wi+v1FeMMMr/jXbSqRqK6POxFCdGVpdSqOKeKcUDZx1pNhHWtTnFHSpY55Iz8jEVCKeBQBJJM0rBn60maYKcKAHA07NMFLmgB+aeD0+tRUuaYEoOOPrS7uPwFQ5pc0gJt+D/wACBo3dvqKizS5/nQBIX4P4Gjdz+JqPNGaAH7vl/AUu7+dRZpe1AD93p6Ubv50yigB+6kJptFADs0U3NLmgBaTrRmigAooooAKXFJ1paACvWPhdpptNLkvpBhrhht9lFeaaRpk2r6lHawKTuPzkfwr3Ne4WEUdjZRW8I2pGoUCvNx1ZRSgtz3snw/NJ1XstEdvpl9gqCeK6JbyGx0i91MgZiiIX6np+ted212yY5qxrWsu2ipp6tgO+9/fFcKrKCcmejVwbqTSXV6+hi/2jP/fP50VV5orzOefc9j2UOx5NSGlpDX0h8cNpKd3pKQj0H4a+L5dC1SMFvkPBU9xXv+p65bT+HvtNpJuWUfiPavkOCZoJldDgg16j4Z8SPNp/ks5IIwRmuepOVFNLZnoUaUMU483xR/FGpqM/myvnkE968r8Y+EJIZpNR0qLdG3zSwr1U+or0udtzE1VkGRjt3rip4iVKfMj2K+EhiKfJI8DU/Makz2Nd54p8F+ez3ukLtk6vAOA3uK4J0khlMcytG6nBVhXv0a0K0bxPjcVhKmGnyzXzEKZ6daQEr1p1PABHNbHIRHk0oNOKYPFNxQAuaWm0oNADhTqYDSg0AOoBzSUCgB1FJRQAtGaTNGKAFzS03NGaAHZpaZmlzxTAdRTeaUZ57UgFopB161LHBLK2IopHP+yhNDaW40m9iOlrQh8P6tPzFp85HqVxWlb+BtbmxviihH+29ZSrU47yRvDC15/DBnO0V21t8NrhsG7vkUeka5/nW1ZeANJtiGm8y5I/56Nx+Qrmnj6Ednc7qeU4qe6t6nmcMMtxIEt4nlc9FRSTXSaX4E1S92tdgWkZ7vy35V6Za2NpZx7LW3iiH+wgFWM1wVcyk9IKx6tHJacdajuZmjaFZ6Hb7LSP5yMPIfvNWqGx1pKDXmSnKTvI9uEIwjyxVkTRPhs9qrzyGWUsfwpC5C4pmc1MpNqxpGNtROaKWioLPJqKKK+mPiRtFB70UyRDWlpOpPYzAqeO4rNNAODkVM4qSsy6c3TlzRPTNP1WO9iGD83cVbPNedWF/JbyhlYiuwsNXjuYgGIDd68mtRcHdH0mGxUaq13NEjNY2teGrDWlzPGEmA+WVRyP8a2FcHkGlPNYRnODvF2OupThVjyzV0eSav4T1LSmZhEbiAdJIxnj3FYmcHnjmvcmxWVeaBpl4SZ7OMsf4gMGvVpZjpaoj57EZKr3oy+TPJN4NGV716LN4G0qQ/IJY/8AdeqzfD+yP3LmUfUA11rHUWec8pxK2SODwD0NGyu3Pw9iz8t64/4CKP8AhXqH/l+b/vmq+uUe5H9l4r+U4cL60oFdyvw7TPN82P8AcFSr8PLb+K9lP0UUfXaHcpZVin0OC6UYNeip4A08femnb8QKtR+BtIX7yyP/ALz1Dx9FGkcnxL7HmO00Yx1r1mLwlo0eP9DVv94k1ci0LTIvuWMI/wCA1k8yprZG8cjqv4pI8cVGb7oJ+gqxHpt7N/qrSZ/pGa9nSzt4/uQRr9FFSBFHRQPpWTzPtE3jkS+1M8fj8M6xL93T5vxXFW4vBOtydbdY/wDecV6vtFG2snmVR7I6I5JQW7bPNYfh3qL/AOuuIY/plq0YPhuvHn37H1CpXdBCegqRLeV/uoayljq8up0RyrCR3jc5CL4e6Wn+sknk9fmxV6HwVokf/Lpv/wB9ia6iPTp267FHqzgVYj0lD/rr62i+r5/lWTrV5faZssLhIbQRz8GgaVbY8mwgU+uwVfjijjAEcaKPRVAraj07RY+bnWs+0MBP88VKP+EVhxmTUbkjrhVQGpcakvil+JaqU4/BB/JGJSHGa3jrHhuE/udEll/67T/4VG/ia1H/AB66HZRehILGo9lFbyLVao9qb/BGKqZ6VIIn/umrc2vXU33UhiHpHGBVWS8ml5dyahxj0ZrHne6sJ5ZHXighR1PNRM5PekBqGaWJC47U0sTTaKi4BRRTaNxjqKbRTsM8oooor6U+IG+tFFFMQhpKKKAJIm5q9bztGQVOKKKiaTN6Umnobdlq0iYDHIrai1CKQD5sGiivOqU4nuYetN6MnDK44bNIfrRRXJ1PQ3GsMUlFFMkTOKcCaKKQh608EUUVJaHUuRnmiikULuA704SLiiigBPNWjzRRRTsAvn+go89u38qKKADz37MR9KPOkPV2/OiimFg3E9WJoz70UVJQZpeKKKYCZFG6iikAu6jfRRSAN9KHoopALuo3UUVNgF3UUUU0AlFFFMD/2Q==;" vertex="1" parent="1">
          <mxGeometry x="270" y="170" width="97.15" height="99.17" as="geometry" />
        </mxCell>
      </root>
    </mxGraphModel>
  </diagram>
</mxfile>
